<svg xmlns="http://www.w3.org/2000/svg" width="32" height="32" viewBox="0 0 32 32">
  <path fill="#0D0D0D" d="M15,6 C19.9705627,6 24,10.0294373 24,15 C24,17.124779 23.2636898,19.0775836 22.0323074,20.6171757 L25.7071068,24.2928932 C26.0976311,24.6834175 26.0976311,25.3165825 25.7071068,25.7071068 C25.3466228,26.0675907 24.7793918,26.0953203 24.3871006,25.7902954 L24.2928932,25.7071068 L20.6171757,22.0323074 C19.0775836,23.2636898 17.124779,24 15,24 C10.0294373,24 6,19.9705627 6,15 C6,10.0294373 10.0294373,6 15,6 Z M15,8 C11.1340068,8 8,11.1340068 8,15 C8,18.8659932 11.1340068,22 15,22 C16.8904747,22 18.6059153,21.25059 19.8654514,20.0326404 C19.8886352,20.0004394 19.9147502,19.9710363 19.9428932,19.9428932 L20.0326404,19.8654514 C21.25059,18.6059153 22,16.8904747 22,15 C22,11.1340068 18.8659932,8 15,8 Z"/>
</svg>
