<svg xmlns="http://www.w3.org/2000/svg" width="32" height="32" viewBox="0 0 32 32">
  <path fill="#D4DDDB" d="M16,9 C18.5445752,9 20.7619877,10.2234 22.6386281,12.2251498 C23.279243,12.9084723 23.8349114,13.6372178 24.3059485,14.3665655 L24.3059485,14.3665655 L24.5032823,14.6799166 L24.6672433,14.9545622 L24.7976765,15.1863101 L24.8944272,15.3709682 C25.0351909,15.6524957 25.0351909,15.9838679 24.8944272,16.2653954 L24.8944272,16.2653954 L24.7976765,16.4500535 L24.6672433,16.6818015 L24.5032823,16.9564471 L24.3059485,17.2697982 C23.8349114,17.9991458 23.279243,18.7278913 22.6386281,19.4112139 C20.7619877,21.4129636 18.5445752,22.6363636 16,22.6363636 C13.4554248,22.6363636 11.2380123,21.4129636 9.36137189,19.4112139 C8.72075699,18.7278913 8.16508856,17.9991458 7.69405153,17.2697982 L7.69405153,17.2697982 L7.49671767,16.9564471 L7.33275674,16.6818015 L7.20232353,16.4500535 L7.10557281,16.2653954 C6.96480906,15.9838679 6.96480906,15.6524957 7.10557281,15.3709682 C7.11888246,15.3443489 7.13360199,15.3155929 7.14972819,15.2847874 L7.14972819,15.2847874 L7.33275674,14.9545622 L7.49671767,14.6799166 L7.69405153,14.3665655 C8.16508856,13.6372178 8.72075699,12.9084723 9.36137189,12.2251498 C11.2380123,10.2234 13.4554248,9 16,9 Z M16,11 C14.0900297,11 12.3528968,11.9584182 10.8204463,13.593032 C10.2678794,14.1824368 9.78377507,14.8173276 9.37413029,15.4516163 C9.30466816,15.5591706 9.24188953,15.6593957 9.1858884,15.7512141 L9.1858884,15.7512141 L9.145,15.818 L9.27496147,16.0290475 L9.37413029,16.1847473 C9.78377507,16.819036 10.2678794,17.4539269 10.8204463,18.0433316 C12.3528968,19.6779455 14.0900297,20.6363636 16,20.6363636 C17.9099703,20.6363636 19.6471032,19.6779455 21.1795537,18.0433316 C21.7321206,17.4539269 22.2162249,16.819036 22.6258697,16.1847473 C22.6953318,16.077193 22.7581105,15.976968 22.8141116,15.8851495 L22.8141116,15.8851495 L22.854,15.818 L22.8141116,15.7512141 L22.6258697,15.4516163 C22.2162249,14.8173276 21.7321206,14.1824368 21.1795537,13.593032 C19.6471032,11.9584182 17.9099703,11 16,11 Z M16,12.6363636 C17.7572697,12.6363636 19.1818182,14.0609122 19.1818182,15.8181818 C19.1818182,17.5754515 17.7572697,19 16,19 C14.2427303,19 12.8181818,17.5754515 12.8181818,15.8181818 C12.8181818,14.0609122 14.2427303,12.6363636 16,12.6363636 Z M16,14.6363636 C15.3472998,14.6363636 14.8181818,15.1654817 14.8181818,15.8181818 C14.8181818,16.470882 15.3472998,17 16,17 C16.6527002,17 17.1818182,16.470882 17.1818182,15.8181818 C17.1818182,15.1654817 16.6527002,14.6363636 16,14.6363636 Z"/>
</svg>
