<svg xmlns="http://www.w3.org/2000/svg" width="32" height="32" viewBox="0 0 32 32">
  <path fill="#D4DDDB" d="M8.61289944,7.20970461 L8.70710678,7.29289322 L24.7071068,23.2928932 C25.0976311,23.6834175 25.0976311,24.3165825 24.7071068,24.7071068 C24.3466228,25.0675907 23.7793918,25.0953203 23.3871006,24.7902954 L23.2928932,24.7071068 L20.1962019,21.6127732 C18.9385171,22.3752358 17.4943568,22.7938612 15.9999999,22.8181818 C13.4554248,22.8181818 11.2380123,21.5947818 9.36137189,19.593032 C8.72075699,18.9097095 8.16508856,18.180964 7.69405153,17.4516163 L7.49671767,17.1382652 L7.33275674,16.8636196 L7.14972819,16.5333944 C7.13360199,16.5025889 7.11888246,16.4738329 7.10557281,16.4472136 C6.9602612,16.1565904 6.96521048,15.8134847 7.11884433,15.5271737 C7.91118877,14.0505663 8.9534619,12.7259943 10.1966814,11.6109587 L7.29289322,8.70710678 C6.90236893,8.31658249 6.90236893,7.68341751 7.29289322,7.29289322 C7.65337718,6.93240926 8.22060824,6.90467972 8.61289944,7.20970461 Z M9.2902898,15.7670375 L9.148,16.004 L9.27496147,16.2108657 L9.37413029,16.3665655 C9.78377507,17.0008542 10.2678794,17.6357451 10.8204463,18.2251498 C12.3528968,19.8597637 14.0900297,20.8181818 15.9836527,20.8183154 C16.9424007,20.8026404 17.8797167,20.5693259 18.7270555,20.1421436 L17.4456927,18.8604927 C16.7552287,19.2295018 15.9405554,19.3370808 15.1582642,19.1372973 C14.0309105,18.849391 13.150609,17.9690895 12.8627027,16.8417358 C12.6629192,16.0594446 12.7704982,15.2447713 13.1395073,14.5543073 L11.6126573,13.0281811 C10.7100166,13.8237162 9.92767032,14.7463224 9.2902898,15.7670375 Z M16,9.18172188 C18.544576,9.18172188 20.7619888,10.4052039 22.6386292,12.40696 C23.279244,13.0902845 23.8349123,13.8190322 24.3059492,14.548382 L24.5032831,14.861734 L24.6672439,15.1363804 L24.8502724,15.4666065 C24.8663986,15.497412 24.8811181,15.5261682 24.8944278,15.5527875 C25.0394855,15.8429039 25.0348202,16.1853551 24.881913,16.4714122 C24.4076317,17.3586927 23.8420103,18.1940316 23.1942471,18.9638447 C22.8386615,19.3864288 22.2078304,19.4407418 21.7852462,19.0851562 C21.3626621,18.7295706 21.3083491,18.0987395 21.6639347,17.6761553 C22.0360251,17.2339566 22.3766593,16.7666649 22.6834891,16.2777481 L22.853,15.997 L22.7250378,15.7891308 L22.6258689,15.6334305 C22.2162241,14.9991396 21.7321197,14.3642466 21.1795526,13.7748399 C19.6471021,12.1402209 17.9099695,11.1817999 15.9976857,11.1817972 C15.5610307,11.1807866 15.1257602,11.2305357 14.7006405,11.3300451 C14.1628911,11.4559181 13.6249188,11.1220263 13.4990458,10.5842769 C13.3731728,10.0465274 13.7070646,9.50855518 14.2448141,9.38268219 C14.8208665,9.24784346 15.4106594,9.18043326 16,9.18172188 Z M14.8005087,16.3468542 C14.9074453,16.7655855 15.2344145,17.0925547 15.6531458,17.1994913 C15.705941,17.2129742 15.7591332,17.2226882 15.8123736,17.2287355 L14.7712645,16.1876264 C14.7773118,16.2408668 14.7870258,16.294059 14.8005087,16.3468542 Z"/>
</svg>
