<svg xmlns="http://www.w3.org/2000/svg" width="32" height="32" viewBox="0 0 32 32">
  <path fill="#0D0D0D" d="M14.122,12.673 L10.9276859,13.140257 L10.8436897,13.1596531 C10.4967348,13.2710709 10.3755366,13.7247476 10.6511336,13.9931791 L12.963,16.244 L12.4171957,19.4254783 L12.4096688,19.5057605 C12.404031,19.8732486 12.8003652,20.1325807 13.1427256,19.9525368 L16,18.449 L18.8572744,19.9525368 L18.9312973,19.9845132 C19.279042,20.103479 19.648193,19.8067274 19.5828043,19.4254783 L19.036,16.244 L21.3488664,13.9931791 L21.4054999,13.9281851 C21.6210635,13.6343756 21.4529888,13.1958983 21.0723141,13.140257 L17.877,12.673 L16.4483537,9.77868804 C16.264936,9.40710399 15.735064,9.40710399 15.5516463,9.77868804 L14.122,12.673 Z"/>
</svg>
