<svg xmlns="http://www.w3.org/2000/svg" width="32" height="32" viewBox="0 0 32 32">
  <path fill="#0D0D0D" d="M14.0834601,6.38295607 C15.9498159,5.60840746 18.0989197,6.03338904 19.53,7.46 C20.160339,8.09493515 20.6121836,8.88480087 20.84,9.75 C20.9293164,10.0965476 20.8269672,10.4644206 20.5715064,10.7150447 C20.3160455,10.9656688 19.9462836,11.0609682 19.6015063,10.9650447 C19.2567291,10.8691211 18.9893164,10.5965476 18.9,10.25 C18.7648544,9.72982559 18.4959483,9.25406854 18.12,8.87 C17.2607657,8.01182697 15.9689164,7.75630901 14.8476815,8.22276026 C13.7264466,8.68921151 12.997017,9.78561306 13,11 L13,11 L13,13 L21,13 C22.6568542,13 24,14.3431458 24,16 L24,16 L24,23 C24,24.6568542 22.6568542,26 21,26 L21,26 L11,26 C9.34314575,26 8,24.6568542 8,23 L8,23 L8,16 C8,14.3431458 9.34314575,13 11,13 L11,13 L11,11 C11.000428,8.9793047 12.2171042,7.15750468 14.0834601,6.38295607 Z M21,15 L11,15 C10.4477153,15 10,15.4477153 10,16 L10,16 L10,23 C10,23.5522847 10.4477153,24 11,24 L11,24 L21,24 C21.5522847,24 22,23.5522847 22,23 L22,23 L22,16 C22,15.4477153 21.5522847,15 21,15 L21,15 Z M17,17.0009146 L17,22.0009146 L15,22.0009146 L15,17.0009146 L17,17.0009146 Z"/>
</svg>
