<svg xmlns="http://www.w3.org/2000/svg" width="40" height="40" viewBox="0 0 40 40">
  <path fill="#0D0D0D" d="M20,4 C28.836,4 36,11.164 36,20 C36,28.836 28.836,36 20,36 C11.164,36 4,28.836 4,20 C4,11.164 11.164,4 20,4 Z M20,6 C12.2685695,6 6,12.2685695 6,20 C6,27.7314305 12.2685695,34 20,34 C27.7314305,34 34,27.7314305 34,20 C34,12.2685695 27.7314305,6 20,6 Z M18.4391607,14.4378889 L19.8475169,15.8579356 L16.679,19 L26,19 L26,21 L16.446,21 L19.8582283,24.4440294 L18.4375962,25.8517951 L13.4375962,20.8060967 L13.354859,20.7115403 C13.0516928,20.3179857 13.0818697,19.7510759 13.4437342,19.3921905 L13.4437342,19.3921905 L18.4391607,14.4378889 Z"/>
</svg>
