<svg xmlns="http://www.w3.org/2000/svg" width="320" height="131" viewBox="0 0 320 131">
  <defs>
    <filter id="2-a">
      <feColorMatrix in="SourceGraphic" values="0 0 0 0 0.050980 0 0 0 0 0.050980 0 0 0 0 0.050980 0 0 0 1.000000 0"/>
    </filter>
  </defs>
  <g fill="none" fill-rule="evenodd">
    <path fill="#00C65E" d="M163.409091,100 C178.094844,100 190,88.1355459 190,73.5 C190,58.8644541 178.094844,47 163.409091,47 C153.618589,47 122.482225,55.8333333 70,73.5 C122.482225,91.1666667 153.618589,100 163.409091,100 Z" transform="rotate(30 130 73.5)"/>
    <g filter="url(#2-a)">
      <g transform="translate(98 32)">
        <line x1="62.5" x2="62.5" y1="51" y2="55" stroke="#222829" stroke-width="2"/>
        <line x1="55" x2="66" y1="48.5" y2="48.5" stroke="#222829" stroke-width="2"/>
        <line x1="53" x2="71" y1="44.5" y2="44.5" stroke="#222829" stroke-width="2"/>
        <g stroke="#222829" stroke-width="2" transform="translate(33)">
          <path d="M58,7 L58,15 L50,28 L41,28 C39.344,28 38,29.344 38,31 L38,48 L36,48 L36,55"/>
          <polyline points="37 22 46 22 52 13"/>
          <polyline points="6 13 12 22 21 22"/>
          <path d="M0,7 L0,15 L8,28 L17,28 C18.656,28 20,29.344 20,31 L20,48 L22,48 L22,55"/>
          <path d="M6 7C6 8.657 4.656 10 3 10 1.344 10 0 8.657 0 7 0 5.343 1.344 4 3 4 4.656 4 6 5.343 6 7zM58 7C58 8.657 56.656 10 55 10 53.344 10 52 8.657 52 7 52 5.343 53.344 4 55 4 56.656 4 58 5.343 58 7z"/>
          <line x1="42.5" x2="42.5" y1="35" y2="37"/>
          <line x1="42.5" x2="42.5" y1="39" y2="41"/>
          <line x1="42.5" x2="42.5" y1="43" y2="45"/>
          <line x1="16.5" x2="16.5" y1="35" y2="37"/>
          <line x1="16.5" x2="16.5" y1="39" y2="41"/>
          <line x1="16.5" x2="16.5" y1="43" y2="45"/>
          <path d="M38,9 C38,13.971 33.971,18 29,18 C24.029,18 20,13.971 20,9 C20,4.029 24.029,0 29,0 C33.971,0 38,4.029 38,9 Z"/>
        </g>
        <g stroke="#222829" stroke-linejoin="round" stroke-width="2" transform="translate(8 14)">
          <path d="M20 0L6 0C2.688 0 0 2.686 0 6L0 66M108 66L108 6C108 2.686 105.312 0 102 0L88 0"/>
          <line x1="44" x2="48" y1="60.5" y2="60.5"/>
          <line x1="36" x2="40" y1="60.5" y2="60.5"/>
          <line x1="52" x2="56" y1="60.5" y2="60.5"/>
          <line x1="60" x2="64" y1="60.5" y2="60.5"/>
          <line x1="68" x2="72" y1="60.5" y2="60.5"/>
          <polyline points="88 8 100 8 100 60 76 60"/>
          <polyline points="32 60 8 60 8 8 20 8"/>
        </g>
        <polygon stroke="#00C65E" stroke-linejoin="round" stroke-width="2" points="116 98 8 98 0 90 0 86 48 86 52 90 72 90 76 86 124 86 124 90"/>
      </g>
    </g>
    <polyline stroke="#0D0D0D" stroke-linejoin="round" stroke-width="2" points="241.6 54.514 250.88 58 243.92 44.054 259 38.243 243.92 33.595 252.04 20.811 235.8 26.622 230 15 224.2 26.622 207.96 20.811 216.08 34.757 201 38.243 216.08 44.054" transform="rotate(45 230 36.5)"/>
    <path stroke="#0D0D0D" stroke-linejoin="round" stroke-width="2" d="M232,41 C232,44.314 229.313,47 226,47 C222.688,47 220,44.314 220,41 C220,37.687 222.688,35 226,35 C229.313,35 232,37.687 232,41 Z"/>
    <polyline stroke="#0D0D0D" stroke-width="2" points="91.662 58.841 78.038 43.5 95.449 47"/>
  </g>
</svg>
