<svg xmlns="http://www.w3.org/2000/svg" width="320" height="142" viewBox="0 0 320 142">
  <defs>
    <filter id="3-a">
      <feColorMatrix in="SourceGraphic" values="0 0 0 0 0.050980 0 0 0 0 0.050980 0 0 0 0 0.050980 0 0 0 1.000000 0"/>
    </filter>
    <filter id="3-b">
      <feColorMatrix in="SourceGraphic" values="0 0 0 0 0.050980 0 0 0 0 0.050980 0 0 0 0 0.050980 0 0 0 1.000000 0"/>
    </filter>
  </defs>
  <g fill="none" fill-rule="evenodd">
    <circle cx="113" cy="75" r="30" fill="#00C65E"/>
    <path stroke="#0D0D0D" stroke-width="2" d="M118.915797,102.769022 C122.76683,97.7236662 125.054043,91.4207079 125.054043,84.5835421 C125.054043,68.0149997 111.622586,54.5835421 95.0540434,54.5835421 C89.869893,54.5835421 84.9928659,55.8984936 80.7383027,58.213056" transform="rotate(-165 102.896 78.676)"/>
    <g filter="url(#3-a)">
      <g transform="translate(100 21)">
        <polyline stroke="#222829" stroke-width="2" points="82 20 82 56.068 80 60.075 80 104"/>
        <path stroke="#222829" stroke-width="2" d="M46 6C46 2.687 48.688 0 52 0 55.313 0 58 2.687 58 6M46 14L46 6.0004286C46 2.68619187 43.312 0 40 0 36.687 0 34 2.68619187 34 6.0004286L34 14M58 20C58 23.313 55.3088195 26 51.9929007 26 49.9114408 26 48.0802767 24.944 47 23.34M70 20C70 23.313 67.312 26 64 26 60.687 26 58 23.313 58 20L58 6C58 2.687 60.687 0 64 0 67.312 0 70 2.687 70 6M82 6C82 2.687 79.312 0 76 0 72.687 0 70 2.687 70 6L70 20C70 23.313 72.687 26 76 26 79.312 26 82 23.313 82 20L82 6z"/>
        <line x1="80" x2="72" y1="59.5" y2="59.5" stroke="#222829" stroke-width="2"/>
        <line x1="42" x2="50" y1="59.5" y2="59.5" stroke="#222829" stroke-width="2"/>
        <path stroke="#222829" stroke-width="2" d="M46,34 C54.836,34 62,41.163 62,50"/>
        <line x1="80" x2="68" y1="67.5" y2="67.5" stroke="#222829" stroke-width="2"/>
        <path stroke="#222829" stroke-width="2" d="M40,36 L40,26.001 C40,26.001 50,24 50,18 C50,15.791 48.209,14 46,14 L34,14 C29.581,14 26,17.583 26,22.001 L26,44.001 L42,60.001 L42,90"/>
        <line x1="40" x2="34" y1="25.5" y2="25.5" stroke="#222829" stroke-width="2"/>
        <line x1="89.5" x2="89.5" y1="74" y2="78" stroke="#222829" stroke-width="2"/>
        <line x1="89.5" x2="89.5" y1="82" y2="86" stroke="#222829" stroke-width="2"/>
        <line x1="89.5" x2="89.5" y1="90" y2="94" stroke="#222829" stroke-width="2"/>
        <line x1="33.5" x2="33.5" y1="62" y2="66" stroke="#222829" stroke-width="2"/>
        <line x1="33.5" x2="33.5" y1="70" y2="74" stroke="#222829" stroke-width="2"/>
        <line x1="33.5" x2="33.5" y1="78" y2="82" stroke="#222829" stroke-width="2"/>
        <line x1="17" x2="62" y1="89.5" y2="89.5" stroke="#222829" stroke-width="2"/>
        <line x2="120" y1="103.5" y2="103.5" stroke="#222829" stroke-width="2"/>
        <line x1="36" x2="92" y1="117.5" y2="117.5" stroke="#222829" stroke-width="2"/>
      </g>
    </g>
    <g stroke-linecap="round" stroke-linejoin="round" filter="url(#3-b)">
      <g transform="translate(197)">
        <circle cx="19.5" cy="19.5" r="19.5" stroke="#000" stroke-width="2"/>
        <line x2="39" y1="19.5" y2="19.5" stroke="#000" stroke-width="2"/>
        <path stroke="#000" stroke-width="2" d="M19.5,0 C24.3774967,5.33978814 27.1493679,12.269466 27.3,19.5 C27.1493679,26.730534 24.3774967,33.6602119 19.5,39 C14.6225033,33.6602119 11.8506321,26.730534 11.7,19.5 C11.8506321,12.269466 14.6225033,5.33978814 19.5,0 L19.5,0 Z"/>
      </g>
    </g>
  </g>
</svg>
