<svg xmlns="http://www.w3.org/2000/svg" width="66" height="66" viewBox="0 0 66 66">
  <g fill="none" fill-rule="evenodd">
    <path fill="#00C65E" fill-rule="nonzero" d="M27.0520398 0C27.5753138 0 28 .447682365 28 .999290994L28 30.9960081C28 44.5933606 23.2729963 54.3709234 12.4032103 64.5661897L11.145267 65.746852C10.7826722 66.0871106 10.2352252 66.0841127 9.87642226 65.7393574L.309607581 56.5488781C-.0913795976 56.164151-.104651041 55.5036197.280220814 55.1009054L1.67704022 53.639942C6.94201136 48.2777465 11.8581331 42.1061253 12.0557828 34.0468435L2.2638276 34.0468435C1.74007957 34.0468435 1.31586737 33.5991611 1.31586737 33.0475525L1.31586737.999290994C1.31586737.447682365 1.74007957 0 2.2638276 0L27.0520398 0zM59.0520558 0C59.575795 0 60 .447682365 60 .999290994L60 30.9960081C60 44.5933606 55.2730763 54.3709234 44.4034743 64.5661897L43.1455523 65.746852C42.7829637 66.0871106 42.2355259 66.0841127 41.8767291 65.7393574L32.3096023 56.5488781C31.9086219 56.164151 31.8953507 55.5036197 32.2802161 55.1009054L33.6774858 53.639942C38.9418938 48.2777465 43.8588803 42.1061253 44.0560527 34.0468435L34.3562138 34.0468435C33.8324747 34.0468435 33.4082697 33.5991611 33.4082697 33.0475525L33.4082697.999290994C33.4082697.447682365 33.8324747 0 34.3562138 0L59.0520558 0z" transform="translate(3)"/>
    <path stroke="#0D0D0D" stroke-width="2" d="M63,30.9960081 C63,44.5933606 58.2730763,54.3709234 47.4034743,64.5661897 L46.1455523,65.746852 C45.7829637,66.0871106 45.2355259,66.0841127 44.8767291,65.7393574 L35.3096023,56.5488781 C34.9086219,56.164151 34.8953507,55.5036197 35.2802161,55.1009054 L36.6774858,53.639942 C41.9418938,48.2777465 46.8588803,42.1061253 47.0560527,34.0468435 L37.3562138,34.0468435 C36.8324747,34.0468435 36.4082697,33.5991611 36.4082697,33.0475525 C36.4082697,24.4974467 36.4082697,18.0848673 36.4082697,13.8098145"/>
    <rect width="14" height="2" x="8" y="4" fill="#0D0D0D"/>
    <rect width="6" height="2" x="8" y="8" fill="#0D0D0D"/>
    <rect width="15" height="2" x="8" y="12" fill="#0D0D0D"/>
    <rect width="13" height="2" x="8" y="16" fill="#0D0D0D"/>
    <rect width="8" height="2" x="8" y="20" fill="#0D0D0D"/>
  </g>
</svg>
