<svg xmlns="http://www.w3.org/2000/svg" width="320" height="142" viewBox="0 0 320 142">
  <g fill="none" fill-rule="evenodd">
    <rect width="31" height="50" x="106" y="16" fill="#00C65E" rx="4"/>
    <path stroke="#0D0D0D" stroke-width="2" d="M112.462445,16 L133,16 C135.209139,16 137,17.790861 137,20 L137,62 C137,64.209139 135.209139,66 133,66 L130.91626,66 L130.91626,66" transform="matrix(-1 0 0 1 243 0)"/>
    <g transform="translate(114 22)">
      <path stroke="#0D0D0D" stroke-width="2" d="M40.5780596,1 L41,45.5547391 C41,65.2479944 33.989514,79.3960964 17.9279165,94.1566574 L17.9279165,94.1566574 L16.0410667,95.8918133 L1.14934725,82.3811114 L3.22192035,79.542313 C11.5328346,71.2489249 19.1990748,61.645947 19.0917889,49.0385427 L19.0917889,49.0385427 L3.39574141,49.0385427 L2.97380105,1.46865495 L40.5780596,1 Z"/>
      <circle cx="22" cy="31" r="9" stroke="#0D0D0D" stroke-width="2"/>
      <circle cx="16.5" cy="14.5" r="3.5" stroke="#0D0D0D" stroke-width="2"/>
      <path stroke="#0D0D0D" stroke-width="2" d="M88.5780837,1 L89,45.5547391 C89,65.2479959 81.9896338,79.3961004 65.9283063,94.1566631 L65.9283063,94.1566631 L64.0414885,95.8918191 L49.1493455,82.3811172 L51.2226266,79.5422752 C59.532646,71.248893 67.2002625,61.6459156 67.0921294,49.0385427 L67.0921294,49.0385427 L51.5343208,49.0385427 L51.1124045,1.46865495 L88.5780837,1 Z"/>
      <rect width="15" height="2" x="56" y="8" fill="#0D0D0D"/>
      <rect width="10" height="2" x="56" y="12" fill="#0D0D0D"/>
      <rect width="25" height="2" x="56" y="16" fill="#0D0D0D"/>
      <rect width="21" height="2" x="56" y="20" fill="#0D0D0D"/>
      <rect width="8" height="2" x="56" y="24" fill="#0D0D0D"/>
      <rect width="3" height="2" x="56" y="28" fill="#0D0D0D"/>
      <rect width="10" height="2" x="56" y="28" fill="#0D0D0D"/>
      <rect width="17" height="2" x="56" y="32" fill="#0D0D0D"/>
      <rect width="9" height="2" x="56" y="36" fill="#0D0D0D"/>
    </g>
  </g>
</svg>
