<svg xmlns="http://www.w3.org/2000/svg" width="24" height="24" viewBox="0 0 24 24">
  <path fill="#0D0D0D" d="M17.5575833,4 C18.5095833,4 19.2775833,4.758 19.3229167,5.65 L19.3229167,5.65 L19.3229167,20 L17.5095833,18.4846667 L16.51425,17.5926667 L15.42825,16.6606667 L15.88225,18.1306667 L6.37625,18.1306667 C5.42691667,18.1306667 4.65625,17.4206667 4.65625,16.48 L4.65625,16.48 L4.65625,5.65333333 C4.65625,4.76133333 5.42825,4.002 6.37958333,4.002 L6.37958333,4.002 Z M10.6755833,7.788 L10.6200876,7.78798521 C10.3785852,7.7927259 9.38352536,7.86133333 8.32091667,8.63466667 C8.32091667,8.63466667 7.09891667,10.7306667 7.09891667,13.3146667 C7.09891667,13.3146667 7.77625,14.4746667 9.63358333,14.5186667 C9.63358333,14.5186667 9.90491667,14.1633333 10.1789167,13.8506667 C9.13558333,13.5386667 8.72958333,12.9146667 8.72958333,12.9146667 L8.72958333,12.9146667 L9.07825,13.092 C10.09825,13.506 11.1775833,14.028 13.10025,13.716 C13.50625,13.626 13.9129167,13.538 14.3189167,13.3593333 C14.5829167,13.226 14.90825,13.0926667 15.2649167,12.868 C15.2649167,12.868 14.85825,13.492 13.7715833,13.804 C13.9955833,14.1146667 14.31025,14.4706667 14.31025,14.4706667 C16.16825,14.4306667 16.89025,13.2706667 16.9309167,13.32 C16.9309167,10.74 15.7015833,8.64 15.7015833,8.64 C14.6029167,7.83666667 13.57625,7.80066667 13.38225,7.8 L13.38225,7.8 L13.25825,7.922 C14.6615833,8.322 15.3409167,8.94666667 15.3409167,8.94666667 C13.3049167,7.944 11.1055833,7.88666667 9.09158333,8.67866667 C8.77491667,8.814 8.59358333,8.90266667 8.59358333,8.90266667 C8.59358333,8.90266667 9.27158333,8.23466667 10.7669167,7.878 L10.7669167,7.878 L10.6755833,7.788 L10.6755833,7.788 Z M13.52825,10.7306667 C14.00425,10.7306667 14.38825,11.1306667 14.38825,11.6206667 C14.38825,12.114 14.00225,12.514 13.52825,12.514 C13.05425,12.514 12.66825,12.114 12.66825,11.6246667 C12.6695833,11.1313333 13.05625,10.7326667 13.52825,10.7326667 L13.52825,10.7326667 Z M10.45225,10.7306667 C10.92625,10.7306667 11.3095833,11.1306667 11.3095833,11.6206667 C11.3095833,12.114 10.9235833,12.514 10.4495833,12.514 C9.97558333,12.514 9.58958333,12.114 9.58958333,11.6246667 C9.58958333,11.1313333 9.97558333,10.7326667 10.4495833,10.7326667 L10.4495833,10.7326667 Z"/>
</svg>
