<svg xmlns="http://www.w3.org/2000/svg" width="24" height="24" viewBox="0 0 24 24">
  <path fill="#0D0D0D" d="M17.25,5 L6.75,5 C5.784875,5 5,5.784875 5,6.75 L5,17.25 C5,18.215125 5.784875,19 6.75,19 L12,19 L12,14.1875 L10.25,14.1875 L10.25,12 L12,12 L12,10.25 C12,8.800125 13.175125,7.625 14.625,7.625 L16.375,7.625 L16.375,9.8125 L15.5,9.8125 C15.017,9.8125 14.625,9.767 14.625,10.25 L14.625,12 L16.8125,12 L15.9375,14.1875 L14.625,14.1875 L14.625,19 L17.25,19 C18.215125,19 19,18.215125 19,17.25 L19,6.75 C19,5.784875 18.215125,5 17.25,5 Z"/>
</svg>
