<svg xmlns="http://www.w3.org/2000/svg" width="24" height="24" viewBox="0 0 24 24">
  <path fill="#0D0D0D" d="M15.0195,8.787 C17.5365,8.787 18,10.4455 18,12.5985 L18,12.5985 L18,16.9995 L17.997,16.9995 L17.997,17 L15.5145,17 L15.5143116,12.9820505 C15.510737,12.0727361 15.4423958,10.978 14.221,10.978 C12.9275,10.978 12.7295,11.988 12.7295,13.0325 L12.7295,13.0325 L12.7295,16.9995 L10.2445,16.9995 L10.2445,8.988 L12.631,8.988 L12.631,10.0805 L12.666,10.0805 C12.9975,9.451 13.8095,8.787 15.0195,8.787 Z M8.686,8.9885 L8.686,17 L6.198,17 L6.198,8.9885 L8.686,8.9885 Z M7.441,5 C8.236,5 8.8815,5.6455 8.882,6.441 C8.882,7.2365 8.2365,7.8955 7.441,7.8955 C6.6455,7.8955 6,7.2365 6,6.441 C6,5.6455 6.6455,5 7.441,5 Z"/>
</svg>
