<svg xmlns="http://www.w3.org/2000/svg" width="24" height="24" viewBox="0 0 24 24">
  <path fill="#0D0D0D" d="M17.9255172,7.42770443 L19.1330049,6.27255172 L19.1330049,6.01970443 L14.9499901,6.01970443 L11.9687882,13.4399212 L8.57710345,6.01970443 L4.19105419,6.01970443 L4.19105419,6.27255172 L5.60157635,7.97060099 C5.73903448,8.09607882 5.81091626,8.2795665 5.79263054,8.46431527 L5.79263054,15.1373399 C5.83613793,15.3775764 5.75795074,15.6247488 5.58896552,15.7994089 L4,17.7250837 L4,17.9747783 L8.50522167,17.9747783 L8.50522167,17.721931 L6.91625616,15.7994089 C6.74411823,15.6241182 6.66277833,15.3813596 6.69745813,15.1373399 L6.69745813,9.36535961 L10.6522167,17.977931 L11.1118818,17.977931 L14.5123941,9.36535961 L14.5123941,16.2262857 C14.5123941,16.4072512 14.5123941,16.4444532 14.3938522,16.5629951 L13.170601,17.7465222 L13.170601,18 L19.1052611,18 L19.1052611,17.7471527 L17.9261478,16.5926305 C17.8227389,16.5144433 17.7691429,16.3832906 17.7912118,16.2559212 L17.7912118,7.76441379 C17.7691429,7.63641379 17.8221084,7.50526108 17.9255172,7.42770443 L17.9255172,7.42770443 Z"/>
</svg>
