<svg xmlns="http://www.w3.org/2000/svg" width="24" height="24" viewBox="0 0 24 24">
  <path fill="#0D0D0D" d="M17.6607046,10.365832 C17.2005637,10.365832 16.795664,10.5594797 16.4976043,10.8611816 C15.4018862,10.0914472 13.924336,9.59609756 12.2871328,9.54328455 L13.1376043,5.65454743 L15.8456369,6.27130623 C15.8456369,6.94391328 16.3859079,7.49328997 17.0488022,7.49328997 C17.7244444,7.49328997 18.2677507,6.92934417 18.2677507,6.25613008 C18.2677507,5.58291599 17.7280867,5.01897019 17.0494092,5.01897019 C16.5765203,5.01897019 16.1685854,5.30853117 15.9652249,5.7043252 L12.9743089,5.03171816 C12.8237615,4.99104607 12.6762493,5.10031436 12.6361843,5.25328997 L11.7025474,9.54024932 C10.0780921,9.60884553 8.6163252,10.1035881 7.51696477,10.8739295 C7.21890515,10.5594797 6.79822222,10.365832 6.3380813,10.365832 C4.63106775,10.365832 4.07197832,12.6902114 5.63512195,13.4848347 C5.57988076,13.7306883 5.55499187,13.9929322 5.55499187,14.2545691 C5.55499187,16.8654743 8.45363686,18.9810298 12.012748,18.9810298 C15.5870352,18.9810298 18.4856802,16.8654743 18.4856802,14.2545691 C18.4856802,13.9929322 18.4583631,13.7185474 18.390981,13.4720867 C19.9225583,12.6744282 19.3586125,10.3670461 17.6607046,10.365832 Z M8.1155122,13.6499512 C8.1155122,12.9645962 8.6557832,12.4127913 9.3344607,12.4127913 C9.99735501,12.4127913 10.5382331,12.9609539 10.5382331,13.6499512 C10.5382331,14.3231653 9.99796206,14.8719474 9.3344607,14.8719474 C8.65881843,14.8749702 8.1155122,14.3231653 8.1155122,13.6499512 L8.1155122,13.6499512 Z M14.6952846,16.5625583 C13.5777127,17.6965203 10.4241084,17.6965203 9.30592954,16.5625583 C9.18269919,16.45329 9.18269919,16.2602493 9.30592954,16.1358049 C9.41337669,16.0265366 9.60398916,16.0265366 9.71143631,16.1358049 C10.5649431,17.0239133 13.396206,17.0390894 14.2867425,16.1358049 C14.3941897,16.0265366 14.5848022,16.0265366 14.6922493,16.1358049 C14.8179079,16.2608564 14.8179079,16.453897 14.6952846,16.5625583 Z M14.6703957,14.8743631 C14.0075014,14.8743631 13.4672304,14.3262005 13.4672304,13.6535935 C13.4672304,12.9682385 14.0075014,12.4164336 14.6703957,12.4164336 C15.3460379,12.4164336 15.8893442,12.9645962 15.8893442,13.6535935 C15.8863089,14.3231653 15.3460379,14.8743631 14.6703957,14.8743631 Z"/>
</svg>
