<svg xmlns="http://www.w3.org/2000/svg" width="24" height="24" viewBox="0 0 24 24">
  <path fill="#0D0D0D" d="M19.04125,8.0121875 C18.128125,8.0121875 17.285625,7.7096875 16.6090625,7.199375 C15.833125,6.614375 15.275625,5.75625 15.07875,4.7671875 C15.03,4.5228125 15.00375,4.270625 15.00125,4.0121875 L12.3928125,4.0121875 L12.3928125,11.1396875 L12.3896875,15.04375 C12.3896875,16.0875 11.71,16.9725 10.7678125,17.28375 C10.494375,17.3740625 10.1990625,17.416875 9.8915625,17.4 C9.4990625,17.3784375 9.13125,17.26 8.8115625,17.06875 C8.13125,16.661875 7.67,15.92375 7.6575,15.079375 C7.6378125,13.7596875 8.7046875,12.68375 10.0234375,12.68375 C10.28375,12.68375 10.53375,12.72625 10.7678125,12.8034375 L10.7678125,10.8553125 L10.7678125,10.155 C10.5209375,10.1184375 10.2696875,10.099375 10.015625,10.099375 C8.5721875,10.099375 7.2221875,10.699375 6.2571875,11.7803125 C5.5278125,12.5971875 5.0903125,13.639375 5.0228125,14.7321875 C4.934375,16.1678125 5.4596875,17.5325 6.4784375,18.539375 C6.628125,18.6871875 6.7853125,18.824375 6.9496875,18.9509375 C7.823125,19.623125 8.8909375,19.9875 10.015625,19.9875 C10.2696875,19.9875 10.5209375,19.96875 10.7678125,19.9321875 C11.8184375,19.7765625 12.7878125,19.295625 13.5528125,18.539375 C14.4928125,17.6103125 15.0121875,16.376875 15.0178125,15.0640625 L15.004375,9.2340625 C15.4528125,9.58 15.943125,9.86625 16.469375,10.0884375 C17.2878125,10.43375 18.155625,10.60875 19.048787,10.6084375 L19.048787,8.714375 L19.048787,8.0115625 C19.049375,8.0121875 19.041875,8.0121875 19.04125,8.0121875 L19.04125,8.0121875 Z"/>
</svg>
