<svg xmlns="http://www.w3.org/2000/svg" width="24" height="24" viewBox="0 0 24 24">
  <path fill="#0D0D0D" d="M18.2199137,8.99503118 C18.8190887,8.56959233 19.3231079,8.03856115 19.7338129,7.42710791 L19.7338129,7.426494 C19.1855923,7.66653237 18.6023789,7.82614868 17.9933813,7.9035012 C18.6195683,7.5296307 19.0978034,6.9421199 19.322494,6.23428297 C18.7386667,6.5823693 18.0940624,6.82793285 17.4070983,6.96544844 C16.8527386,6.37486811 16.0626379,6.00959233 15.2007098,6.00959233 C13.5284221,6.00959233 12.1821199,7.36694484 12.1821199,9.03063789 C12.1821199,9.27006235 12.2023789,9.50027818 12.2521055,9.71944365 C9.74121823,9.59666187 7.51886811,8.39340048 6.02584173,6.55965468 C5.76554436,7.01210552 5.61206715,7.5296307 5.61206715,8.08644604 C5.61206715,9.13254676 6.15046523,10.0595492 6.95407194,10.5967194 C6.46847002,10.5875108 5.99269065,10.4463118 5.58935252,10.2246906 L5.58935252,10.2578417 C5.58935252,11.7256978 6.63606715,12.9449209 8.00938129,13.2260911 C7.76320384,13.2936211 7.49553957,13.3255444 7.21743885,13.3255444 C7.02405755,13.3255444 6.82883453,13.314494 6.64588969,13.273976 C7.03694964,14.4698705 8.1481247,15.3496019 9.46802878,15.3784556 C8.44034532,16.1820624 7.13517506,16.6664365 5.72257074,16.6664365 C5.47516547,16.6664365 5.23758273,16.6553861 5,16.6253046 C6.33832134,17.4878465 7.92343405,17.9808153 9.63378417,17.9808153 C14.9643549,17.9808153 18.4384652,13.5336595 18.2199137,8.99503118 Z"/>
</svg>
