<svg xmlns="http://www.w3.org/2000/svg" width="24" height="24" viewBox="0 0 24 24">
  <path fill="#0D0D0D" d="M20.0386374,7.73028571 L20.0597363,7.86813187 C19.8557802,7.14443956 19.3050989,6.58602198 18.6053187,6.38276923 L18.5905495,6.37925275 C17.2746813,6.0219683 11.9795604,6.0219683 11.9795604,6.0219683 C11.9795604,6.0219683 6.6978022,6.01494505 5.36857143,6.37925275 C4.65542857,6.58602198 4.10404396,7.14443956 3.9036044,7.85336264 L3.90008791,7.86813187 C3.40848352,10.4358681 3.40496703,13.5212308 3.92189011,16.2704176 L3.90008791,16.1311648 C4.10404396,16.8548571 4.65472527,17.4132747 5.35450549,17.6165275 L5.36927473,17.620044 C6.68373626,17.978022 11.9802637,17.978022 11.9802637,17.978022 C11.9802637,17.978022 17.2613187,17.978022 18.5912527,17.620044 C19.3050989,17.4132747 19.8564835,16.8548571 20.0569231,16.1459341 L20.0604396,16.1311648 C20.2840879,14.936967 20.4120879,13.5627253 20.4120879,12.1589451 C20.4120879,12.1076044 20.4120879,12.0555604 20.4113846,12.0035165 C20.4120879,11.9556923 20.4120879,11.8987253 20.4120879,11.8417582 C20.4120879,10.4372747 20.2840879,9.06303297 20.0386374,7.73028571 L20.0386374,7.73028571 Z M10.2902418,14.5677363 L10.2902418,9.43859341 L14.6970989,12.007033 L10.2902418,14.5677363 Z"/>
</svg>
