<svg xmlns="http://www.w3.org/2000/svg" xmlns:xlink="http://www.w3.org/1999/xlink" width="1920" height="1678" viewBox="0 0 1920 1678">
  <defs>
    <rect id="bg-a" width="1920" height="1678" x="0" y="0"/>
  </defs>
  <g fill="none" fill-rule="evenodd">
    <mask id="bg-b" fill="#fff">
      <use xlink:href="#bg-a"/>
    </mask>
    <g fill-rule="nonzero" mask="url(#bg-b)">
      <g transform="translate(-57 -489)">
        <path fill="#FFF" d="M1017-1C1573.61216-1 2025.87404 445.591806 2034.86362 999.931269L2035 1016.76207 2033 1016.76207C2033 455.764102 1578.13004 1 1017 1 455.871152 1 1 455.764732 1 1016.76207 1 1253.27076 82.0912931 1477.32393 228.118806 1656.93475L232.563742 1662.36387 231.020581 1663.63613C81.9019099 1482.76622-1 1256.12826-1 1016.76207-1 454.660057 454.766687-1 1017-1zM370.636106 1801.2284C549.499899 1948.68304 773.266387 2031.33684 1009.8276 2032.97517L1017 2033 1017 2035C779.719815 2035 554.929388 1953.65992 374.8084 1807.22882L369.363894 1802.7716 370.636106 1801.2284zM1571.37374 1707.22039L1572.62626 1708.77961C1416.25428 1834.39241 1222.06308 1904 1017.20158 1904 854.428542 1904 698.118777 1860.13106 561.611792 1778.32015L557.481291 1775.82943 558.518709 1774.11953C695.688463 1857.34198 853.152778 1902 1017.20158 1902 1219.55937 1902 1411.47767 1833.93248 1566.68185 1710.96351L1571.37374 1707.22039z" opacity=".1"/>
        <path fill="#FFF" d="M1841.10145 688.629185C1882.48118 792.264781 1904 903.169421 1904 1017.07641 1904 1219.08862 1836.15859 1410.74045 1713.51368 1565.93364L1709.78041 1570.62527 1708.21959 1569.37473C1832.93857 1413.71226 1902 1220.67032 1902 1017.07641 1902 904.561128 1880.95725 794.984925 1840.47667 692.475009L1839.24404 689.370815 1841.10145 688.629185zM132 1017C132 1179.33453 175.769651 1335.24297 257.370559 1471.36243L259.854888 1475.48119 258.145112 1476.51881C175.593898 1340.49295 130.899063 1184.49627 130.013422 1021.9283L130 1017 132 1017zM1665.17012 628.990331C1734.72403 745.207698 1772 878.216515 1772 1016.69468 1772 1135.46788 1744.57127 1250.37266 1692.64221 1354.30502L1691.06111 1357.45112 1689.27619 1356.54888C1742.08884 1252.06946 1770 1136.35231 1770 1016.69468 1770 879.961897 1733.56321 748.580118 1665.5254 633.49969L1663.45398 630.017405 1665.17012 628.990331zM1358.54594 1689.18936C1353.80342 1691.60628 1349.03509 1693.97291 1344.2417 1696.28879L1345.11175 1698.08963C1349.91791 1695.76758 1354.69893 1693.39465 1359.45406 1690.9713L1358.54594 1689.18936zM1329.77751 1703.08809C1324.93285 1705.3028 1320.06425 1707.46608 1315.17244 1709.57752L1315.96502 1711.41377C1320.86987 1709.2967 1325.75146 1707.12765 1330.60903 1704.90704L1329.77751 1703.08809zM1300.43548 1715.75291C1295.50369 1717.75799 1290.54987 1719.71078 1285.57476 1721.61088L1286.28833 1723.47925C1291.27673 1721.57408 1296.24378 1719.61608 1301.18874 1717.60564L1300.43548 1715.75291zM1270.56674 1727.15971C1265.55156 1728.95326 1260.51623 1730.69363 1255.46145 1732.38048L1256.09455 1734.27763C1261.16284 1732.58627 1266.21164 1730.84125 1271.24022 1729.04291L1270.56674 1727.15971zM1240.26951 1737.27078C1235.18542 1738.84771 1230.08307 1740.37082 1224.96314 1741.83981L1225.51471 1743.76224C1230.64833 1742.28933 1235.76433 1740.76215 1240.862 1739.181L1240.26951 1737.27078zM1209.5416 1746.08662C1204.39225 1747.44562 1199.22645 1748.75017 1194.04488 1749.99999L1194.51384 1751.94423C1199.70926 1750.69107 1204.88886 1749.38303 1210.05196 1748.0204L1209.5416 1746.08662zM1178.46172 1753.58317C1173.26046 1754.72085 1168.04454 1755.80366 1162.81463 1756.83135L1163.20026 1758.79382C1168.44411 1757.76339 1173.67394 1756.67769 1178.88908 1755.53698L1178.46172 1753.58317zM1147.13183 1759.74035C1141.88885 1760.65539 1136.63299 1761.51528 1131.36486 1762.31979L1131.66678 1764.29687C1136.94891 1763.49022 1142.21876 1762.62804 1147.47568 1761.71057L1147.13183 1759.74035zM1115.52584 1764.56676C1110.24778 1765.25847 1104.95853 1765.89481 1099.65869 1766.47559L1099.87655 1768.46369C1105.19042 1767.88137 1110.49368 1767.24334 1115.78572 1766.5498L1115.52584 1764.56676zM1083.74523 1768.04951C1078.44366 1768.51742 1073.13254 1768.92992 1067.81246 1769.28684L1067.94634 1771.28235C1073.28042 1770.92449 1078.60552 1770.51091 1083.92106 1770.04177L1083.74523 1768.04951zM1051.87126 1770.18859C1046.55573 1770.43348 1041.23221 1770.62305 1035.90128 1770.75715L1035.95158 1772.75651C1041.29643 1772.62207 1046.63386 1772.432 1051.96331 1772.18647L1051.87126 1770.18859zM1019.89565 1770.99283C1018.78804 1770.99761 1017.68014 1771 1016.57196 1771 1012.34633 1771 1008.12476 1770.96523 1003.90752 1770.89575L1003.87458 1772.89548C1008.10279 1772.96514 1012.33535 1773 1016.57196 1773 1017.68301 1773 1018.79379 1772.9976 1019.90428 1772.99281L1019.89565 1770.99283zM987.931099 1770.46588C982.612964 1770.26719 977.302643 1770.01317 972.000704 1769.70398L971.884268 1771.70059C977.200121 1772.01059 982.524366 1772.26528 987.856432 1772.46448L987.931099 1770.46588zM956.010885 1768.60232C950.702051 1768.18024 945.402622 1767.70267 940.113193 1767.16978L939.912717 1769.15971C945.216119 1769.694 950.529537 1770.17284 955.852374 1770.59603L956.010885 1768.60232zM924.239006 1765.40092C918.956825 1764.75571 913.685672 1764.05513 908.426169 1763.2994L908.141714 1765.27907C913.415181 1766.03681 918.700321 1766.73924 923.99651 1767.38617L924.239006 1765.40092zM892.651223 1760.86167C887.391188 1759.99157 882.143927 1759.06607 876.910089 1758.08542L876.541761 1760.05121C881.789546 1761.03448 887.050784 1761.96244 892.324823 1762.83486L892.651223 1760.86167zM861.21279 1754.97052C855.994422 1753.877 850.790589 1752.72838 845.601962 1751.52494L845.15008 1753.47322C850.352565 1754.67987 855.570294 1755.83156 860.802593 1756.928L861.21279 1754.97052zM830.035954 1747.73858C824.87805 1746.42531 819.73643 1745.05758 814.611782 1743.63568L814.077057 1745.56287C819.215409 1746.98857 824.370778 1748.35996 829.542473 1749.67675L830.035954 1747.73858zM799.299289 1739.21072C794.200271 1737.67815 789.119383 1736.09163 784.057332 1734.45151L783.440874 1736.35413C788.516467 1737.99864 793.610947 1739.5894 798.723605 1741.12607L799.299289 1739.21072zM768.899923 1729.36073C763.8618 1727.60846 758.843748 1725.80274 753.846494 1723.94393L753.149238 1725.81846C758.159854 1727.68223 763.191324 1729.49278 768.242921 1731.24973L768.899923 1729.36073zM738.946555 1718.22002C733.990106 1716.25505 729.055607 1714.2375 724.143794 1712.16775L723.367165 1714.0108C728.292098 1716.08608 733.23978 1718.10902 738.209471 1720.07924L738.946555 1718.22002zM709.478147 1705.80279C704.607495 1703.62686 699.760729 1701.39921 694.938596 1699.12029L694.08403 1700.92853C698.919024 1703.21353 703.778719 1705.44711 708.662367 1707.62885L709.478147 1705.80279zM680.534545 1692.12398C675.771019 1689.74711 671.033197 1687.31977 666.321826 1684.84244L665.391021 1686.61264C670.114936 1689.09657 674.865374 1691.53036 679.641588 1693.91357L680.534545 1692.12398zM652.281023 1677.26823C647.615439 1674.68715 642.977553 1672.05658 638.368121 1669.37705L637.362983 1671.10612C641.984664 1673.79278 646.634876 1676.43033 651.312864 1679.01828L652.281023 1677.26823zM624.628051 1661.19331C620.083577 1658.42079 615.568618 1655.60021 611.083925 1652.73208L610.006371 1654.41698C614.502959 1657.29271 619.029895 1660.12078 623.586427 1662.90065L624.628051 1661.19331zM597.735476 1643.99503C593.308079 1641.02982 588.912146 1638.01778 584.548421 1634.95948L583.400565 1636.59729C587.775843 1639.66369 592.183418 1642.68371 596.622542 1645.65677L597.735476 1643.99503zM571.578356 1625.66371C567.280177 1622.51397 563.01533 1619.31881 558.784553 1616.07884L557.568547 1617.66671C561.810509 1620.91525 566.086633 1624.11885 570.396179 1627.27692L571.578356 1625.66371zM546.19446 1606.22451C542.038738 1602.90044 537.918095 1599.53258 533.833253 1596.12154L532.551332 1597.65669C536.646961 1601.07673 540.778487 1604.45349 544.945185 1607.78634L546.19446 1606.22451zM521.675268 1585.74946C517.65596 1582.24665 513.673664 1578.70146 509.729091 1575.11454L508.383552 1576.59425C512.338534 1580.19063 516.331338 1583.74517 520.361253 1587.25723L521.675268 1585.74946zM498.002124 1564.22251C494.137185 1560.556 490.31096 1556.84882 486.524141 1553.10165L485.117388 1554.52328C488.914196 1558.28034 492.750513 1561.9973 496.625648 1565.67348L498.002124 1564.22251zM475.312192 1541.77136C471.602011 1537.94234 467.932316 1534.07429 464.303775 1530.1679L462.838409 1531.52904C466.476522 1535.44574 470.155898 1539.32399 473.875865 1543.16311L475.312192 1541.77136zM453.537814 1518.3294C449.996073 1514.35125 446.496387 1510.3359 443.039395 1506.28406L441.517915 1507.58217C444.984031 1511.64471 448.492954 1515.67065 452.044041 1519.6593L453.537814 1518.3294zM432.807767 1494.03276C429.434999 1489.90662 426.105916 1485.74503 422.821132 1481.54873L421.246253 1482.78151C424.539716 1486.9889 427.877594 1491.16148 431.25927 1495.29852L432.807767 1494.03276zM413.105487 1468.86331C409.914038 1464.60389 406.76767 1460.31095 403.666969 1455.98522L402.041441 1457.15041C405.150345 1461.48758 408.305036 1465.79188 411.504925 1470.06256L413.105487 1468.86331zM394.463551 1442.85364C391.452716 1438.45921 388.488476 1434.03308 385.571385 1429.57597L383.897933 1430.67122C386.822754 1435.14013 389.794848 1439.578 392.813658 1443.98406L394.463551 1442.85364zM376.952127 1416.09651C374.131883 1411.58116 371.359525 1407.03601 368.635575 1402.46183L366.917191 1403.48514C369.648372 1408.07146 372.428089 1412.62867 375.255818 1417.15601L376.952127 1416.09651zM360.596225 1388.62954C357.968821 1383.99625 355.39061 1379.33504 352.86208 1374.64666L351.101769 1375.59603C353.637024 1380.29688 356.222092 1384.97048 358.856481 1389.6161L360.596225 1388.62954zM345.420437 1360.48989C342.992287 1355.74878 340.614496 1350.98167 338.287518 1346.18931L336.488392 1347.06289C338.821572 1351.86803 341.205699 1356.64784 343.640316 1361.40158L345.420437 1360.48989zM331.478803 1331.77925C329.254 1326.93812 327.080632 1322.07289 324.95912 1317.1843L323.124437 1317.9805C325.251612 1322.88214 327.430781 1327.76036 329.66152 1332.61441L331.478803 1331.77925zM318.78698 1302.53824C316.771407 1297.6099 314.808146 1292.6594 312.897586 1287.68746L311.030678 1288.40486C312.946345 1293.39008 314.914853 1298.35382 316.935812 1303.29533L318.78698 1302.53824zM307.311045 1272.67099C305.507279 1267.65887 303.756701 1262.62648 302.059665 1257.57451L300.163773 1258.21137C301.865348 1263.27685 303.620608 1268.32271 305.429199 1273.34823L307.311045 1272.67099zM297.146781 1242.41583C295.558709 1237.33171 294.024526 1232.22918 292.544554 1227.10893L290.623205 1227.66429C292.107136 1232.79823 293.645424 1237.91441 295.237745 1243.01214L297.146781 1242.41583zM288.261861 1211.67423C286.893116 1206.52799 285.578824 1201.36519 284.319273 1196.18653L282.375927 1196.65918C283.638845 1201.8517 284.956651 1207.0283 286.329056 1212.1883L288.261861 1211.67423zM280.709417 1180.62299C279.562005 1175.42463 278.46947 1170.21153 277.43207 1164.98435L275.470331 1165.37368C276.510499 1170.61481 277.605951 1175.84182 278.756426 1181.05406L280.709417 1180.62299zM274.49273 1149.30201C273.567652 1144.05918 272.697787 1138.80336 271.883366 1133.5352L269.906845 1133.84075C270.723433 1139.12293 271.595613 1144.39274 272.523155 1149.64953L274.49273 1149.30201zM269.604281 1117.67639C268.903333 1112.40093 268.257756 1107.1142 267.667754 1101.81683L265.680044 1102.03822C266.271609 1107.34962 266.918898 1112.65036 267.621705 1117.93982L269.604281 1117.67639zM266.067939 1085.92963C265.590657 1080.62961 265.168809 1075.31997 264.802572 1070.00132L262.807297 1070.13871C263.174498 1075.47137 263.597459 1080.79501 264.076 1086.10901L266.067939 1085.92963zM263.871185 1054.02531C263.617307 1048.71014 263.418798 1043.38695 263.275815 1038.0563L261.276534 1038.10993C261.419891 1043.45452 261.618919 1048.79164 261.873463 1054.12073L263.871185 1054.02531zM263.013788 1022.07443C263.004597 1020.5392 263 1019.00342 263 1017.46711 263 1013.67994 263.027959 1009.89598 263.083826 1006.11544L261.084044 1006.08589C261.028032 1009.87628 261 1013.67008 261 1017.46711 261 1019.00741 261.004609 1020.54718 261.013824 1022.0864L263.013788 1022.07443zM263.486736 990.136909C263.676866 984.807201 263.922606 979.485199 264.223795 974.171476L262.227 974.058295C261.92502 979.38597 261.678636 984.721932 261.488007 990.065607L263.486736 990.136909zM265.294669 958.241316C265.708023 952.927686 266.176994 947.623331 266.701398 942.328851L264.711137 942.131721C264.185347 947.440191 263.715138 952.758552 263.300693 958.086203L265.294669 958.241316zM268.446746 926.425646C269.084479 921.13251 269.777815 915.850304 270.526544 910.579654L268.546424 910.298366C267.795707 915.58301 267.10053 920.879234 266.461106 926.18641L268.446746 926.425646zM272.939349 894.79903C273.800697 889.53982 274.717423 884.293237 275.68929 879.059931L273.722911 878.694758C272.748454 883.942009 271.829286 889.202566 270.965645 894.475779L272.939349 894.79903zM278.775351 863.375106C279.860202 858.155761 281.000153 852.950812 282.194938 847.760931L280.245919 847.312238C279.047944 852.515979 277.904948 857.734825 276.817202 862.968101L278.775351 863.375106zM285.94888 832.215985C287.254472 827.051981 288.614633 821.904153 290.029065 816.773193L288.100983 816.241686C286.68277 821.386363 285.318973 826.547952 284.009891 831.725759L285.94888 832.215985zM294.435767 801.428636C295.961104 796.32328 297.54048 791.235954 299.173564 786.167368L297.269934 785.554023C295.632483 790.636162 294.048883 795.737091 292.519468 800.856099L294.435767 801.428636zM304.238001 771.005862C305.979894 765.970787 307.775122 760.955615 309.623322 755.961071L307.747625 755.266981C305.894486 760.274873 304.09446 765.303449 302.347911 770.351982L304.238001 771.005862zM315.329873 741.031439C317.285011 736.075617 319.292664 731.141595 321.352435 726.230108L319.508061 725.456618C317.442793 730.381215 315.429779 735.328411 313.469421 740.297465L315.329873 741.031439zM327.696506 711.544202C329.860864 706.677221 332.076787 701.833945 334.343842 697.015122L332.534114 696.163721C330.261017 700.995387 328.039187 705.851573 325.869058 710.731531L327.696506 711.544202zM341.301697 682.625266C343.671322 677.85475 346.091471 673.109863 348.56168 668.391359L346.789803 667.463754C344.313022 672.194812 341.886433 676.952324 339.510501 681.735538L341.301697 682.625266zM356.124009 654.312129C357.562398 651.701102 359.01626 649.098691 360.485507 646.505028L358.745321 645.519254C357.27217 648.119806 355.814447 650.729131 354.372236 653.347095L356.124009 654.312129zM669.559965 501.301421C673.970711 498.320356 678.419403 495.395929 682.904948 492.528945 683.370298 492.231511 683.506422 491.613151 683.208988 491.1478 682.911554 490.68245 682.293195 490.546326 681.827844 490.84376 677.3279 493.719947 672.864932 496.653759 668.440035 499.644388 667.982458 499.953648 667.862224 500.575293 668.171484 501.03287 668.480743 501.490447 669.102388 501.610681 669.559965 501.301421zM696.475971 484.098152C701.033536 481.347273 705.626273 478.654973 710.253084 476.021999 710.733089 475.748843 710.900773 475.138286 710.627617 474.658282 710.354462 474.178277 709.743904 474.010593 709.2639 474.283749 704.622201 476.925195 700.01469 479.626155 695.442469 482.385881 694.969638 482.671275 694.817691 483.285937 695.103084 483.758768 695.388478 484.231598 696.00314 484.383546 696.475971 484.098152zM724.241534 468.29811C728.933451 465.785651 733.657734 463.333525 738.413285 460.94242 738.906709 460.694325 739.105588 460.093205 738.857493 459.59978 738.609398 459.106356 738.008278 458.907478 737.514854 459.155573 732.743962 461.554392 728.004445 464.014425 723.297403 466.534983 722.810529 466.795698 722.62719 467.401738 722.887905 467.888612 723.148619 468.375486 723.75466 468.558825 724.241534 468.29811zM752.813409 453.933658C757.631791 451.665054 762.479773 449.458465 767.356267 447.314518 767.861847 447.09224 768.091509 446.502195 767.869231 445.996615 767.646953 445.491035 767.056908 445.261374 766.551328 445.483651 761.659069 447.634529 756.795418 449.84825 751.961467 452.124185 751.461795 452.359442 751.247444 452.95522 751.482701 453.454892 751.717959 453.954565 752.313737 454.168916 752.813409 453.933658zM782.037043 441.084798C786.962249 439.069386 791.914221 437.117297 796.891889 435.229099 797.40827 435.033218 797.668086 434.455816 797.472206 433.939435 797.276325 433.423054 796.698923 433.163238 796.182542 433.359118 791.188754 435.253431 786.220749 437.21184 781.279598 439.233777 780.768453 439.44294 780.523648 440.026865 780.73281 440.53801 780.941973 441.049155 781.525898 441.293961 782.037043 441.084798zM811.916854 429.751161C816.941203 427.992739 821.989564 426.29888 827.06089 424.670093 827.58672 424.501209 827.876081 423.938033 827.707198 423.412203 827.538314 422.886374 826.975138 422.597012 826.449308 422.765896 821.361543 424.399962 816.296819 426.099311 811.256186 427.863433 810.734905 428.045871 810.460218 428.616349 810.642656 429.137631 810.825094 429.658913 811.395572 429.9336 811.916854 429.751161zM842.356829 419.975322C847.464053 418.479949 852.592548 417.05009 857.741297 415.686196 858.275168 415.544774 858.593311 414.997342 858.45189 414.46347 858.310468 413.929599 857.763036 413.611456 857.229164 413.752877 852.063728 415.121192 846.918611 416.555685 841.794832 418.055905 841.2648 418.211096 840.960931 418.76658 841.116122 419.296612 841.271314 419.826644 841.826797 420.130513 842.356829 419.975322zM873.214395 411.800667C878.392923 410.571158 883.590064 409.407948 888.804833 408.311432 889.345299 408.197788 889.691306 407.667526 889.577662 407.12706 889.464018 406.586595 888.933756 406.240587 888.39329 406.354232 883.161646 407.454296 877.947684 408.621271 872.752389 409.85476 872.215042 409.98234 871.88286 410.521369 872.010439 411.058716 872.138018 411.596063 872.677048 411.928246 873.214395 411.800667zM904.476222 405.226918C909.709063 404.266939 914.957907 403.373736 920.221813 402.547653 920.76742 402.462029 921.14031 401.950315 921.054686 401.404708 920.969062 400.859101 920.457348 400.486211 919.911741 400.571835 914.630857 401.400583 909.365074 402.296668 904.115339 403.259747 903.57212 403.359402 903.21254 403.880554 903.312195 404.423774 903.41185 404.966993 903.933003 405.326573 904.476222 405.226918zM936.043007 400.273037C941.318695 399.583682 946.607887 398.961417 951.909681 398.406536 952.458966 398.349049 952.857646 397.857163 952.800159 397.307878 952.742671 396.758593 952.250785 396.359913 951.7015 396.417401 946.382694 396.974061 941.076519 397.598325 935.783877 398.289895 935.236247 398.361452 934.850314 398.863401 934.921871 399.411031 934.993428 399.95866 935.495377 400.344594 936.043007 400.273037zM967.837528 396.945486C973.140368 396.527382 978.454304 396.17641 983.778483 395.892819 984.329986 395.863444 984.753254 395.392549 984.723878 394.841046 984.694503 394.289543 984.223608 393.866275 983.672105 393.89565 978.330968 394.180144 973.000089 394.532236 967.680326 394.951674 967.12975 394.995084 966.718611 395.476605 966.762021 396.027181 966.805431 396.577757 967.286952 396.988896 967.837528 396.945486zM999.759944 395.245031C1005.07557 395.097065 1010.40001 395.016035 1015.73245 395.002156 1016.28473 395.000715 1016.73128 394.551835 1016.72985 393.999552 1016.72841 393.447269 1016.27953 393.000721 1015.72724 393.002156 1010.37799 393.016085 1005.03673 393.097371 999.704294 393.245805 999.152223 393.261173 998.717139 393.721173 998.732506 394.273244 998.747874 394.825314 999.207874 395.260399 999.759944 395.245031zM1031.72937 395.162215C1037.05439 395.282775 1042.37057 395.470469 1047.67708 395.725072 1048.22873 395.75154 1048.69739 395.325796 1048.72386 394.774146 1048.75033 394.222495 1048.32458 393.753838 1047.77293 393.72737 1042.44957 393.471959 1037.11653 393.283669 1031.77464 393.162727 1031.22249 393.150226 1030.76476 393.587693 1030.75226 394.139836 1030.73976 394.69198 1031.17723 395.149714 1031.72937 395.162215zM1063.61945 396.693254C1068.93647 397.084154 1074.24234 397.542479 1079.53619 398.06796 1080.08577 398.122513 1080.57552 397.721211 1080.63007 397.171627 1080.68463 396.622043 1080.28333 396.132294 1079.73374 396.07774 1074.42295 395.550577 1069.1001 395.090787 1063.76609 394.698637 1063.21529 394.658143 1062.73595 395.071826 1062.69546 395.622624 1062.65497 396.173423 1063.06865 396.65276 1063.61945 396.693254zM1095.43172 399.851985C1100.71684 400.513985 1105.98841 401.243219 1111.24553 402.039375 1111.79159 402.122072 1112.3013 401.746444 1112.38399 401.200385 1112.46669 400.654327 1112.09106 400.14462 1111.545 400.061923 1106.27095 399.263203 1100.98241 398.531621 1095.68029 397.867493 1095.13229 397.798851 1094.6324 398.18745 1094.56376 398.735453 1094.49511 399.283456 1094.88371 399.783344 1095.43172 399.851985zM1127.02043 404.636809C1132.26124 405.569328 1137.48601 406.568704 1142.69379 407.634574 1143.23486 407.745314 1143.76326 407.396463 1143.874 406.855395 1143.98474 406.314326 1143.63589 405.785931 1143.09482 405.675192 1137.8702 404.605875 1132.62853 403.603269 1127.37079 402.667737 1126.82705 402.570986 1126.30782 402.933346 1126.21107 403.47709 1126.11432 404.020834 1126.47668 404.540058 1127.02043 404.636809zM1158.28694 411.036343C1163.47902 412.239498 1168.65243 413.509146 1173.80617 414.844869 1174.34079 414.983429 1174.88651 414.662359 1175.02507 414.127739 1175.16363 413.593118 1174.84256 413.047396 1174.30794 412.908836 1169.13751 411.568785 1163.94734 410.295024 1158.73843 409.087971 1158.2004 408.963294 1157.66318 409.298382 1157.5385 409.83641 1157.41382 410.374438 1157.74891 410.911666 1158.28694 411.036343zM1189.26227 419.065616C1194.38268 420.535607 1199.48175 422.071269 1204.55845 423.67213 1205.08517 423.838223 1205.64681 423.545878 1205.8129 423.01916 1205.97899 422.492443 1205.68665 421.930809 1205.15993 421.764716 1200.06677 420.158664 1194.95116 418.618023 1189.81415 417.143266 1189.2833 416.990869 1188.72943 417.29766 1188.57703 417.828503 1188.42464 418.359345 1188.73143 418.91322 1189.26227 419.065616zM1219.67483 428.654165C1224.70988 430.385932 1229.72088 432.182324 1234.70678 434.042811 1235.22422 434.235892 1235.8002 433.972951 1235.99328 433.455517 1236.18636 432.938082 1235.92342 432.362096 1235.40599 432.169015 1230.40393 430.302499 1225.37669 428.500285 1220.32532 426.762903 1219.80306 426.583277 1219.23407 426.861034 1219.05445 427.383291 1218.87482 427.905549 1219.15258 428.474538 1219.67483 428.654165zM1249.63828 439.836244C1254.57564 441.825993 1259.4862 443.879136 1264.36887 445.995083 1264.87562 446.214686 1265.46444 445.98191 1265.68405 445.475163 1265.90365 444.968415 1265.67087 444.379592 1265.16413 444.159989 1260.26565 442.037194 1255.3392 439.977405 1250.38586 437.981214 1249.8736 437.774778 1249.29099 438.02269 1249.08456 438.534942 1248.87812 439.047194 1249.12603 439.629807 1249.63828 439.836244zM1278.9299 452.529704C1283.7606 454.772912 1288.56167 457.07818 1293.33201 459.444856 1293.82675 459.690309 1294.4268 459.48822 1294.67225 458.993477 1294.9177 458.498733 1294.71561 457.898685 1294.22087 457.653232 1289.43513 455.278913 1284.61855 452.966198 1279.77224 450.715741 1279.27133 450.483135 1278.6767 450.70064 1278.44409 451.201552 1278.21148 451.702464 1278.42899 452.297098 1278.9299 452.529704zM1307.5748 466.741701C1312.27956 469.229212 1316.95192 471.777086 1321.5908 474.384613 1322.07224 474.655232 1322.68191 474.484327 1322.95252 474.002888 1323.22314 473.521448 1323.05224 472.911785 1322.5708 472.641166 1317.91697 470.025238 1313.22955 467.469152 1308.50962 464.973622 1308.02138 464.715477 1307.41632 464.902008 1307.15817 465.390249 1306.90003 465.878491 1307.08656 466.483556 1307.5748 466.741701zM1335.43782 482.404489C1340.01107 485.13244 1344.54909 487.919045 1349.05079 490.763535 1349.51768 491.058548 1350.13533 490.919215 1350.43034 490.452326 1350.72535 489.985436 1350.58602 489.367792 1350.11913 489.072779 1345.60296 486.219147 1341.05034 483.423582 1336.46239 480.686858 1335.98807 480.403931 1335.37421 480.559078 1335.09129 481.033389 1334.80836 481.507699 1334.9635 482.121562 1335.43782 482.404489zM1362.46474 499.482524C1366.89332 502.442662 1371.28387 505.459544 1375.63532 508.532341 1376.08646 508.850917 1376.71044 508.743452 1377.02901 508.292311 1377.34759 507.84117 1377.24012 507.217192 1376.78898 506.898616 1372.42358 503.815964 1368.01894 500.789405 1363.57615 497.819768 1363.11699 497.512859 1362.49598 497.636281 1362.18907 498.095438 1361.88216 498.554595 1362.00558 499.175615 1362.46474 499.482524zM1388.53088 517.887591C1392.79977 521.06844 1397.02795 524.303868 1401.21436 527.592996 1401.64864 527.934197 1402.27729 527.85874 1402.6185 527.424459 1402.9597 526.990178 1402.88424 526.361525 1402.44996 526.020324 1398.25015 522.720667 1394.00843 519.47488 1389.72587 516.283846 1389.28301 515.953859 1388.65649 516.045362 1388.32651 516.488224 1387.99652 516.931086 1388.08802 517.557604 1388.53088 517.887591zM1413.62233 537.600021C1417.72274 540.994177 1421.7798 544.440665 1425.79245 547.938556 1426.20876 548.301463 1426.84045 548.258169 1427.20335 547.841856 1427.56626 547.425542 1427.52297 546.793859 1427.10665 546.430952 1423.08118 542.921879 1419.01115 539.464373 1414.89762 536.059364 1414.47218 535.707201 1413.84181 535.766605 1413.48965 536.192046 1413.13749 536.617487 1413.19689 537.247859 1413.62233 537.600021zM1437.71925 558.606734C1441.64175 562.206601 1445.51826 565.856458 1449.34778 569.555332 1449.74503 569.939022 1450.3781 569.928035 1450.76178 569.530794 1451.14547 569.133552 1451.13449 568.500483 1450.73725 568.116793 1446.89549 564.406104 1443.00659 560.744588 1439.07157 557.133221 1438.66467 556.759789 1438.03208 556.78692 1437.65865 557.19382 1437.28522 557.600719 1437.31235 558.233303 1437.71925 558.606734zM1460.70402 580.807882C1464.43983 584.605307 1468.12709 588.450304 1471.76482 592.341861 1472.14196 592.745321 1472.77477 592.766655 1473.17823 592.38951 1473.58169 592.012366 1473.60302 591.37956 1473.22588 590.9761 1469.57653 587.072113 1465.8775 583.214836 1462.12976 579.405283 1461.74244 579.011578 1461.1093 579.006399 1460.71559 579.393716 1460.32189 579.781033 1460.31671 580.414177 1460.70402 580.807882zM1482.52871 604.155522C1486.06334 608.135758 1489.54708 612.160936 1492.97899 616.230011 1493.33506 616.652188 1493.96595 616.705779 1494.38813 616.34971 1494.8103 615.993641 1494.8639 615.362748 1494.50783 614.940571 1491.06495 610.858492 1487.57008 606.820452 1484.02415 602.827498 1483.65743 602.414543 1483.02537 602.377065 1482.61242 602.743788 1482.19946 603.110512 1482.16198 603.742566 1482.52871 604.155522zM1503.11823 628.567814C1506.44622 632.72449 1509.72098 636.923493 1512.94164 641.163753 1513.27569 641.603558 1513.90302 641.689289 1514.34283 641.355239 1514.78263 641.021189 1514.86836 640.393855 1514.53431 639.954049 1511.30336 635.700222 1508.01811 631.487787 1504.67948 627.317817 1504.3343 626.886689 1503.70498 626.817012 1503.27386 627.16219 1502.84273 627.507367 1502.77305 628.136686 1503.11823 628.567814zM1522.45526 654.027919C1525.56687 658.35011 1528.62308 662.711933 1531.62303 667.1123 1531.93413 667.568627 1532.55625 667.686356 1533.01258 667.375255 1533.46891 667.064154 1533.58663 666.44203 1533.27553 665.985703 1530.26597 661.571233 1527.19997 657.195435 1524.07839 652.859398 1523.75571 652.411183 1523.13078 652.309414 1522.68256 652.632093 1522.23435 652.954771 1522.13258 653.579703 1522.45526 654.027919zM1540.46846 680.451478C1543.35413 684.926833 1546.18237 689.439052 1548.95241 693.987037 1549.23969 694.45872 1549.85496 694.608202 1550.32664 694.320915 1550.79833 694.033628 1550.94781 693.418361 1550.66052 692.946678 1547.88159 688.384088 1545.04427 683.857382 1542.14933 679.367663 1541.85005 678.903502 1541.23115 678.769845 1540.76699 679.069132 1540.30283 679.36842 1540.16917 679.987317 1540.46846 680.451478zM1557.09394 707.7491C1559.74581 712.366061 1562.33839 717.017089 1564.87097 721.701083 1565.13365 722.186901 1565.74042 722.367794 1566.22624 722.105118 1566.71206 721.842441 1566.89295 721.235666 1566.63028 720.749848 1564.08955 716.050779 1561.48862 711.384786 1558.82823 706.752973 1558.55315 706.274064 1557.94193 706.108823 1557.46302 706.383896 1556.98411 706.658969 1556.81887 707.270191 1557.09394 707.7491zM1572.29572 735.866087C1574.70665 740.613418 1577.0566 745.392011 1579.34491 750.20077 1579.58222 750.69947 1580.17888 750.911366 1580.67758 750.674053 1581.17628 750.436741 1581.38817 749.840085 1581.15086 749.341386 1578.85517 744.517116 1576.49764 739.723114 1574.07894 734.960479 1573.82886 734.468057 1573.22695 734.271597 1572.73452 734.521673 1572.2421 734.77175 1572.04564 735.373665 1572.29572 735.866087zM1586.02066 764.708369C1586.7128 766.265029 1587.39854 767.824613 1588.07787 769.387086 1588.29808 769.89357 1588.88718 770.125642 1589.39366 769.905433 1589.90015 769.685225 1590.13222 769.096123 1589.91201 768.589639 1589.23049 767.02212 1588.54253 765.457499 1587.84816 763.895811 1587.62378 763.391161 1587.03278 763.163959 1586.52813 763.388341 1586.02348 763.612722 1585.79628 764.203719 1586.02066 764.708369zM526.213598 631.382284L527.786402 632.617716C442.252976 741.508642 395 875.619625 395 1016.93347 395 1083.97228 405.587866 1149.51847 426.138744 1211.79734L426.764546 1213.68357 424.867313 1214.31643C403.837713 1151.2718 393 1084.86508 393 1016.93347 393 876.585066 439.462535 743.313989 523.650897 634.66706L526.213598 631.382284zM1596.07033 1245.6316L1597.92967 1246.3684C1505.25705 1480.22755 1279.97879 1637.82401 1024.74347 1640.95256L1017 1641 1017 1639C1272.01125 1639 1498.19487 1484.23901 1593.23071 1252.6722L1596.07033 1245.6316zM1498.01976 1114.69014C1496.96696 1119.90701 1495.82986 1125.10204 1494.60907 1130.27365 1494.48219 1130.81116 1494.81507 1131.34976 1495.35258 1131.47664 1495.89009 1131.60353 1496.42869 1131.27064 1496.55557 1130.73313 1497.78136 1125.54032 1498.92313 1120.32401 1499.98024 1115.08577 1500.08949 1114.5444 1499.73919 1114.01697 1499.19782 1113.90772 1498.65645 1113.79846 1498.12901 1114.14877 1498.01976 1114.69014zM1490.68229 1145.76826C1489.288 1150.91418 1487.81016 1156.03392 1486.24952 1161.12583 1486.08768 1161.65387 1486.38454 1162.21313 1486.91258 1162.37497 1487.44062 1162.53681 1487.99988 1162.23995 1488.16172 1161.71191 1489.72877 1156.59909 1491.21267 1151.45834 1492.61269 1146.2913 1492.75712 1145.75824 1492.44208 1145.20902 1491.90901 1145.06458 1491.37595 1144.92015 1490.82673 1145.2352 1490.68229 1145.76826zM1481.32429 1176.30364C1479.59673 1181.34465 1477.78723 1186.35512 1475.89665 1191.33336 1475.70057 1191.84967 1475.96016 1192.42717 1476.47647 1192.62325 1476.99278 1192.81933 1477.57028 1192.55973 1477.76636 1192.04342 1479.6647 1187.04476 1481.48162 1182.01372 1483.21627 1176.95203 1483.39532 1176.42957 1483.11693 1175.86089 1482.59447 1175.68184 1482.07201 1175.5028 1481.50333 1175.78119 1481.32429 1176.30364zM1469.99189 1206.14715C1467.94007 1211.05971 1465.80842 1215.93734 1463.5979 1220.77831 1463.36849 1221.2807 1463.58979 1221.87393 1464.09218 1222.10334 1464.59456 1222.33274 1465.1878 1222.11145 1465.4172 1221.60906 1467.63677 1216.74826 1469.77716 1211.85065 1471.83739 1206.91795 1472.05024 1206.40833 1471.80967 1205.82266 1471.30005 1205.6098 1470.79043 1205.39695 1470.20475 1205.63753 1469.99189 1206.14715zM1456.72137 1235.20834C1454.35329 1239.97537 1451.90776 1244.703 1449.38589 1249.38946 1449.12418 1249.87581 1449.30628 1250.48222 1449.79263 1250.74393 1450.27897 1251.00564 1450.88538 1250.82354 1451.14709 1250.33719 1453.67926 1245.63159 1456.13478 1240.88464 1458.51254 1236.09812 1458.75825 1235.6035 1458.55647 1235.00335 1458.06185 1234.75764 1457.56723 1234.51194 1456.96708 1234.71372 1456.72137 1235.20834zM1441.57198 1263.35867C1438.89968 1267.95817 1436.15278 1272.51382 1433.33251 1277.02385 1433.03969 1277.49212 1433.18191 1278.1091 1433.65018 1278.40193 1434.11845 1278.69475 1434.73543 1278.55252 1435.02825 1278.08426 1437.86001 1273.55585 1440.6181 1268.98164 1443.30129 1264.3634 1443.57874 1263.88586 1443.41653 1263.27383 1442.939 1262.99638 1442.46146 1262.71893 1441.84942 1262.88114 1441.57198 1263.35867zM1424.65946 1290.4054C1421.69502 1294.82065 1418.65911 1299.18762 1415.55305 1303.50458 1415.23049 1303.95289 1415.33243 1304.57779 1415.78074 1304.90035 1416.22904 1305.2229 1416.85395 1305.12096 1417.1765 1304.67266 1420.29518 1300.33816 1423.34343 1295.95344 1426.31992 1291.52025 1426.62777 1291.06173 1426.50564 1290.44046 1426.04711 1290.1326 1425.58859 1289.82474 1424.96732 1289.94688 1424.65946 1290.4054zM1406.00353 1316.33261C1402.75892 1320.54665 1399.44622 1324.70805 1396.06688 1328.81511 1395.71598 1329.24159 1395.77723 1329.87178 1396.20371 1330.22269 1396.63018 1330.5736 1397.26038 1330.51234 1397.61129 1330.08587 1401.00433 1325.96216 1404.33045 1321.78388 1407.58822 1317.55275 1407.92515 1317.11515 1407.84354 1316.48727 1407.40594 1316.15034 1406.96834 1315.8134 1406.34046 1315.89501 1406.00353 1316.33261zM1385.71509 1340.98895C1382.20408 1344.98504 1378.62863 1348.92424 1374.99028 1352.80489 1374.61253 1353.20779 1374.63292 1353.84062 1375.03582 1354.21837 1375.43872 1354.59611 1376.07156 1354.57572 1376.4493 1354.17282 1380.10239 1350.27646 1383.69232 1346.32131 1387.21756 1342.30903 1387.58209 1341.89414 1387.54126 1341.26229 1387.12637 1340.89776 1386.71147 1340.53323 1386.07962 1340.57406 1385.71509 1340.98895zM1363.8649 1364.29268C1360.09941 1368.05695 1356.27329 1371.76012 1352.38814 1375.40062 1351.98514 1375.77825 1351.96456 1376.41108 1352.34219 1376.81409 1352.71982 1377.21709 1353.35265 1377.23766 1353.75566 1376.86003 1357.65654 1373.2048 1361.49815 1369.48663 1365.27888 1365.70712 1365.66947 1365.31666 1365.66957 1364.6835 1365.27911 1364.29291 1364.88865 1363.90232 1364.25548 1363.90222 1363.8649 1364.29268zM1340.55457 1386.13487C1336.55308 1389.64833 1332.49504 1393.09678 1328.38215 1396.47874 1327.95556 1396.82952 1327.89411 1397.45969 1328.24488 1397.88628 1328.59565 1398.31286 1329.22583 1398.37432 1329.65242 1398.02355 1333.78198 1394.62788 1337.85646 1391.16545 1341.87417 1387.63776 1342.28918 1387.27337 1342.33021 1386.64154 1341.96582 1386.22652 1341.60142 1385.81151 1340.96959 1385.77048 1340.55457 1386.13487zM1315.89315 1406.41398C1311.67373 1409.66052 1307.40206 1412.83843 1303.07988 1415.94634 1302.63148 1416.26876 1302.52936 1416.89364 1302.85178 1417.34204 1303.1742 1417.79043 1303.79908 1417.89256 1304.24748 1417.57013 1308.58722 1414.44961 1312.87623 1411.25879 1317.11277 1407.99908 1317.55048 1407.66229 1317.63229 1407.03443 1317.29551 1406.59672 1316.95872 1406.15901 1316.33086 1406.07719 1315.89315 1406.41398zM1289.99604 1425.03679C1285.57735 1428.00192 1281.11083 1430.89512 1276.59825 1433.71512 1276.12989 1434.0078 1275.98749 1434.62474 1276.28017 1435.0931 1276.57285 1435.56145 1277.18979 1435.70386 1277.65815 1435.41118 1282.1891 1432.5797 1286.6738 1429.67472 1291.11046 1426.69753 1291.56906 1426.38979 1291.69136 1425.76855 1291.38362 1425.30995 1291.07588 1424.85135 1290.45464 1424.72905 1289.99604 1425.03679zM1262.91382 1441.96017C1258.31125 1444.63212 1253.6653 1447.22907 1248.97774 1449.74986 1248.49132 1450.01143 1248.30906 1450.6178 1248.57063 1451.10421 1248.8322 1451.59062 1249.43857 1451.77289 1249.92498 1451.51132 1254.63168 1448.98024 1259.29659 1446.37269 1263.91795 1443.68984 1264.39558 1443.41255 1264.558 1442.80057 1264.28072 1442.32294 1264.00344 1441.84531 1263.39146 1441.68289 1262.91382 1441.96017zM1234.79983 1457.0787C1230.03155 1459.44575 1225.22436 1461.73505 1220.38004 1463.94555 1219.87759 1464.17482 1219.65614 1464.76799 1219.88541 1465.27044 1220.11468 1465.77289 1220.70785 1465.99434 1221.2103 1465.76507 1226.07446 1463.54552 1230.90132 1461.24685 1235.68912 1458.87011 1236.18381 1458.62454 1236.38575 1458.02445 1236.14018 1457.52976 1235.89461 1457.03507 1235.29452 1456.83313 1234.79983 1457.0787zM1205.70375 1470.35365C1200.79267 1472.40268 1195.84722 1474.37167 1190.86913 1476.25972 1190.35274 1476.45557 1190.09289 1477.03296 1190.28874 1477.54935 1190.4846 1478.06575 1191.06198 1478.32559 1191.57838 1478.12974 1196.5769 1476.23395 1201.54264 1474.25687 1206.47386 1472.19944 1206.98356 1471.98678 1207.22436 1471.40119 1207.0117 1470.89149 1206.79904 1470.38179 1206.21346 1470.14099 1205.70375 1470.35365zM1175.86368 1481.67154C1170.83036 1483.39423 1165.76713 1485.03502 1160.67568 1486.5931 1160.14757 1486.75471 1159.85046 1487.31384 1160.01208 1487.84195 1160.17369 1488.37006 1160.73282 1488.66716 1161.26093 1488.50555 1166.37329 1486.94107 1171.45732 1485.29355 1176.51131 1483.56378 1177.03384 1483.38494 1177.31245 1482.81637 1177.13361 1482.29384 1176.95477 1481.77132 1176.3862 1481.4927 1175.86368 1481.67154zM1145.29349 1491.02516C1140.15756 1492.41396 1134.99609 1493.71936 1129.81069 1494.94068 1129.27311 1495.0673 1128.93996 1495.60573 1129.06658 1496.14331 1129.19319 1496.68088 1129.73163 1497.01403 1130.2692 1496.88741 1135.47588 1495.66108 1140.65854 1494.35032 1145.81556 1492.95582 1146.34869 1492.81165 1146.66402 1492.26259 1146.51985 1491.72945 1146.37569 1491.19632 1145.82662 1490.88099 1145.29349 1491.02516zM1114.20098 1498.34835C1108.98782 1499.39729 1103.75336 1500.36189 1098.49914 1501.24158 1097.95443 1501.33278 1097.58679 1501.84828 1097.67799 1502.39298 1097.76919 1502.93769 1098.28469 1503.30532 1098.82939 1503.21413 1104.1051 1502.33084 1109.36099 1501.36229 1114.5955 1500.30905 1115.13693 1500.20011 1115.48754 1499.67288 1115.37859 1499.13145 1115.26965 1498.59001 1114.74242 1498.23941 1114.20098 1498.34835zM1082.67648 1503.62564C1077.4074 1504.33181 1072.1211 1504.95313 1066.81902 1505.48912 1066.26953 1505.54467 1065.86912 1506.03514 1065.92467 1506.58463 1065.98021 1507.13411 1066.47069 1507.53453 1067.02017 1507.47898 1072.34381 1506.94081 1077.65162 1506.31696 1082.94214 1505.60792 1083.48953 1505.53456 1083.87381 1505.03134 1083.80045 1504.48395 1083.72709 1503.93656 1083.22387 1503.55228 1082.67648 1503.62564zM1050.89181 1506.83895C1045.58966 1507.20204 1040.27413 1507.48024 1034.94658 1507.67317 1034.39466 1507.69316 1033.96344 1508.15678 1033.98342 1508.7087 1034.00341 1509.26063 1034.46704 1509.69185 1035.01896 1509.67186 1040.36795 1509.47815 1045.7049 1509.19883 1051.02845 1508.83428 1051.57944 1508.79655 1051.99553 1508.31929 1051.95779 1507.7683 1051.92006 1507.2173 1051.44281 1506.80122 1050.89181 1506.83895zM1018.97707 1507.99556L1016.87224 1508C1012.23431 1508 1007.60793 1507.93579 1002.98938 1507.80754 1002.43731 1507.79221 1001.97734 1508.22732 1001.96201 1508.77939 1001.94668 1509.33147 1002.38179 1509.79144 1002.93386 1509.80677 1007.57092 1509.93553 1012.21581 1510 1016.87225 1510L1018.98549 1509.99554C1019.53777 1509.99322 1019.9836 1509.54363 1019.9813 1508.99135 1019.97895 1508.43907 1019.52935 1507.99324 1018.97707 1507.99556zM987.029112 1507.10774C981.708963 1506.78865 976.402201 1506.38423 971.110214 1505.8949 970.560275 1505.84405 970.073239 1506.24864 970.022388 1506.79858 969.971537 1507.34852 970.376128 1507.83555 970.926067 1507.88641 976.239491 1508.37772 981.567724 1508.78377 986.909372 1509.10415 987.460666 1509.13722 987.934383 1508.71711 987.967448 1508.16582 988.000514 1507.61452 987.580406 1507.14081 987.029112 1507.10774zM955.236478 1504.16714C949.950112 1503.50475 944.680969 1502.75715 939.430527 1501.92485 938.885053 1501.83839 938.372763 1502.21048 938.286295 1502.75596 938.199827 1503.30143 938.571925 1503.81372 939.117398 1503.90019 944.389272 1504.73588 949.679908 1505.48653 954.987818 1506.15162 955.535818 1506.22029 956.035724 1505.83171 956.104389 1505.28371 956.173054 1504.73571 955.784477 1504.23581 955.236478 1504.16714zM923.733648 1499.17377C918.50806 1498.16985 913.303694 1497.08146 908.122107 1495.9092 907.583436 1495.78734 907.047964 1496.12522 906.926098 1496.66389 906.804232 1497.20257 907.142119 1497.73804 907.680791 1497.8599 912.883623 1499.03697 918.109319 1500.12982 923.356316 1501.13785 923.898682 1501.24205 924.422826 1500.88684 924.527023 1500.34448 924.63122 1499.80211 924.276014 1499.27797 923.733648 1499.17377zM892.562581 1492.11936C887.414659 1490.77548 882.292175 1489.34816 877.19676 1487.8381 876.66724 1487.68117 876.110764 1487.98322 875.953837 1488.51274 875.79691 1489.04226 876.098957 1489.59873 876.628478 1489.75566 881.744822 1491.27192 886.888344 1492.70511 892.057407 1494.05451 892.591783 1494.19401 893.138068 1493.87389 893.277568 1493.33952 893.417068 1492.80514 893.096957 1492.25886 892.562581 1492.11936zM861.908688 1483.03229C856.858886 1481.35308 851.838892 1479.59184 846.850398 1477.7494 846.33232 1477.55805 845.757218 1477.82292 845.565872 1478.341 845.374527 1478.85908 845.639396 1479.43418 846.157474 1479.62553 851.166452 1481.47553 856.207061 1483.24401 861.277605 1484.93011 861.801674 1485.10438 862.367789 1484.82081 862.542058 1484.29675 862.716327 1483.77268 862.432758 1483.20656 861.908688 1483.03229zM831.995271 1471.98511C827.066313 1469.9792 822.1716 1467.89317 817.312864 1465.72796 816.808403 1465.50316 816.217216 1465.72987 815.992412 1466.23433 815.767608 1466.73879 815.994316 1467.32998 816.498778 1467.55478 821.377428 1469.72886 826.29221 1471.82345 831.241382 1473.83758 831.752928 1474.04576 832.336381 1473.79983 832.544562 1473.28829 832.752743 1472.77674 832.506817 1472.19329 831.995271 1471.98511zM802.822907 1458.98443C798.032212 1456.65879 793.280309 1454.25523 788.56896 1451.77482 788.080265 1451.51754 787.475528 1451.70513 787.218243 1452.19382 786.960958 1452.68252 787.148552 1453.28726 787.637247 1453.54454 792.367855 1456.03509 797.139191 1458.44848 801.949483 1460.78364 802.44632 1461.02483 803.044607 1460.81758 803.285797 1460.32075 803.526986 1459.82391 803.319743 1459.22562 802.822907 1458.98443zM774.567891 1444.1096C769.9372 1441.47548 765.349835 1438.76607 760.807569 1435.9826 760.336667 1435.69403 759.720997 1435.84184 759.432432 1436.31275 759.143866 1436.78365 759.291678 1437.39932 759.76258 1437.68788 764.32336 1440.4827 768.929428 1443.20315 773.579006 1445.84802 774.059058 1446.12109 774.669586 1445.9533 774.942659 1445.47325 775.215732 1444.9932 775.047942 1444.38267 774.567891 1444.1096zM747.319252 1427.4121C742.874973 1424.48568 738.47838 1421.48721 734.131223 1418.41801 733.680054 1418.09947 733.056085 1418.20699 732.737549 1418.65816 732.419013 1419.10933 732.526533 1419.7333 732.977701 1420.05183 737.342527 1423.13351 741.756995 1426.14417 746.219349 1429.0825 746.680615 1429.38623 747.300767 1429.25852 747.604497 1428.79725 747.908227 1428.33598 747.780518 1427.71583 747.319252 1427.4121zM721.204847 1408.97312C716.961831 1405.76585 712.770837 1402.48996 708.633578 1399.14689 708.204007 1398.79978 707.57438 1398.86662 707.227269 1399.2962 706.880157 1399.72577 706.947004 1400.35539 707.376576 1400.70251 711.530613 1404.05914 715.738606 1407.34831 719.998837 1410.56859 720.439415 1410.90162 721.066549 1410.81444 721.39958 1410.37386 721.73261 1409.93328 721.645426 1409.30615 721.204847 1408.97312zM696.381751 1388.91497C692.354533 1385.43962 688.383606 1381.89929 684.470629 1378.29549 684.064385 1377.92135 683.431755 1377.94737 683.05761 1378.35361 682.683465 1378.75986 682.709487 1379.39249 683.11573 1379.76663 687.044554 1383.38503 691.031564 1386.9397 695.075096 1390.42912 695.493217 1390.78994 696.124675 1390.74349 696.485499 1390.32537 696.846322 1389.90725 696.799872 1389.27579 696.381751 1388.91497zM672.926501 1367.31417C669.126761 1363.58112 665.387573 1359.78679 661.710533 1355.93279 661.32929 1355.5332 660.6963 1355.51833 660.296709 1355.89957 659.897119 1356.28082 659.882246 1356.91381 660.263489 1357.3134 663.955415 1361.183 667.709741 1364.99269 671.524863 1368.74085 671.918829 1369.1279 672.551969 1369.1223 672.939021 1368.72833 673.326073 1368.33437 673.320467 1367.70123 672.926501 1367.31417zM650.884951 1344.21298C647.335984 1340.24412 643.851425 1336.21813 640.432783 1332.13668 640.078152 1331.7133 639.447445 1331.65756 639.024059 1332.01219 638.600673 1332.36682 638.544936 1332.99753 638.899566 1333.42091 642.332059 1337.5189 645.830732 1341.5612 649.394074 1345.54613 649.762212 1345.95782 650.394392 1345.99313 650.806087 1345.62499 651.217781 1345.25685 651.25309 1344.62467 650.884951 1344.21298zM630.368814 1319.71834C627.08493 1315.52927 623.869103 1311.28733 620.72274 1306.99428 620.396266 1306.54882 619.770491 1306.45236 619.325032 1306.77884 618.879574 1307.10531 618.783119 1307.73109 619.109593 1308.17654 622.268725 1312.48702 625.497599 1316.74617 628.794803 1320.95223 629.135533 1321.38689 629.764103 1321.46302 630.198754 1321.12229 630.633405 1320.78156 630.709544 1320.15299 630.368814 1319.71834zM611.480999 1293.94525C608.475211 1289.5516 605.54091 1285.10946 602.679391 1280.62059 602.382516 1280.15488 601.764321 1280.01802 601.298613 1280.31489 600.832905 1280.61177 600.696039 1281.22996 600.992913 1281.69567 603.866074 1286.2028 606.812308 1290.66301 609.830315 1295.07452 610.142154 1295.53035 610.764467 1295.64707 611.22029 1295.33523 611.676114 1295.02339 611.792837 1294.40108 611.480999 1293.94525zM594.314521 1267.01561C591.601054 1262.43705 588.962144 1257.81447 586.398968 1253.14965 586.133009 1252.66562 585.525024 1252.48884 585.040995 1252.7548 584.556966 1253.02076 584.380185 1253.62874 584.646144 1254.11277 587.219777 1258.79663 589.869449 1263.43806 592.593978 1268.03528 592.875553 1268.5104 593.488971 1268.66729 593.964085 1268.38572 594.4392 1268.10414 594.596095 1267.49073 594.314521 1267.01561zM578.930415 1239.01563C576.521987 1234.27184 574.190817 1229.48856 571.93796 1224.66756 571.704146 1224.16721 571.108989 1223.95114 570.60864 1224.18495 570.10829 1224.41877 569.89222 1225.01392 570.126034 1225.51427 572.388109 1230.355 574.728813 1235.15784 577.147087 1239.92103 577.397106 1240.41348 577.998997 1240.61001 578.491449 1240.35999 578.983902 1240.10998 579.180433 1239.50808 578.930415 1239.01563zM565.406801 1210.0731C563.313569 1205.18235 561.299968 1200.25661 559.36693 1195.29763 559.166347 1194.78306 558.586599 1194.52852 558.072026 1194.7291 557.557454 1194.92968 557.302915 1195.50943 557.503498 1196.02401 559.444462 1201.00332 561.466318 1205.94925 563.56813 1210.86004 563.785439 1211.36778 564.373204 1211.60322 564.880939 1211.38591 565.388675 1211.1686 565.624111 1210.58083 565.406801 1210.0731zM553.809485 1180.31994C552.041062 1175.30334 550.354223 1170.25622 548.749779 1165.18027 548.583326 1164.65366 548.021492 1164.3617 547.494888 1164.52816 546.968284 1164.69461 546.676324 1165.25644 546.842777 1165.78305 548.453807 1170.87984 550.14757 1175.94768 551.923251 1180.98487 552.106865 1181.50574 552.677961 1181.77914 553.19883 1181.59552 553.719699 1181.41191 553.993098 1180.84081 553.809485 1180.31994zM544.178271 1149.84556C542.74225 1144.72276 541.389389 1139.5738 540.120382 1134.40031 539.988812 1133.86393 539.447328 1133.53576 538.910944 1133.66733 538.37456 1133.7989 538.046394 1134.34038 538.177963 1134.87677 539.452176 1140.07148 540.810589 1145.24157 542.252502 1150.38539 542.401572 1150.91718 542.953515 1151.22743 543.485302 1151.07836 544.017088 1150.92929 544.327341 1150.37735 544.178271 1149.84556zM536.560462 1118.78338C535.46362 1113.57895 534.450977 1108.35264 533.52312 1103.10598 533.426942 1102.56213 532.9081 1102.19923 532.364255 1102.2954 531.820409 1102.39158 531.457502 1102.91042 531.55368 1103.45427 532.485332 1108.72239 533.502119 1113.97009 534.603451 1119.19582 534.717344 1119.73623 535.247765 1120.082 535.788178 1119.9681 536.328592 1119.85421 536.674355 1119.32379 536.560462 1118.78338zM531.009564 1087.41159C530.253986 1082.1487 529.583165 1076.868 528.997587 1071.57095 528.936903 1071.02201 528.442704 1070.6262 527.893764 1070.68688 527.344823 1070.74757 526.949013 1071.24176 527.009697 1071.79071 527.597655 1077.10929 528.271206 1082.41149 529.029862 1087.69581 529.108347 1088.24249 529.615143 1088.62204 530.161823 1088.54355 530.708502 1088.46507 531.088049 1087.95827 531.009564 1087.41159zM527.508326 1055.77654C527.094449 1050.47763 526.765425 1045.16478 526.521651 1039.83935 526.496396 1039.28764 526.028677 1038.86087 525.47697 1038.88612 524.925263 1038.91138 524.498489 1039.3791 524.523743 1039.93081 524.768499 1045.27769 525.09885 1050.61197 525.514399 1055.93228 525.557405 1056.48289 526.038624 1056.89438 526.589231 1056.85138 527.139839 1056.80837 527.551332 1056.32715 527.508326 1055.77654zM526.047015 1023.86603C526.015742 1021.58379 526.000062 1019.29963 526 1017.01364 525.999985 1016.46136 525.552258 1016.01367 524.999973 1016.01367 524.447688 1016.01367 524 1016.46141 524 1017.0137 524.000063 1019.3088 524.015805 1021.60208 524.047202 1023.89344 524.054769 1024.44567 524.508577 1024.88721 525.06081 1024.87964 525.613042 1024.87207 526.054582 1024.41827 526.047015 1023.86603zM1249.81616 582.360815C1376.95493 650.638007 1468.74761 771.782992 1499.07939 913.498817L1499.97969 917.799499 1498.02031 918.200501C1469.05131 776.651353 1378.6063 655.260661 1252.6962 586.19952L1248.86992 584.122809 1249.81616 582.360815zM703.066827 896.752219L704.934286 897.468177C690.49483 935.131124 683 975.297759 683 1016.5 683 1200.42141 832.30176 1349.5 1016.5 1349.5 1198.85626 1349.5 1347.01048 1203.38808 1349.95532 1022.00708L1350 1016.5 1352 1016.5C1352 1201.52665 1201.80214 1351.5 1016.5 1351.5 831.197859 1351.5 681 1201.52665 681 1016.5 681 975.539659 688.363726 935.593755 702.55702 898.090578L703.066827 896.752219zM296 1690C268.947856 1690 247 1711.94757 247 1739 247 1766.05184 268.94816 1788 296 1788 323.052425 1788 345 1766.05214 345 1739 345 1711.94727 323.052729 1690 296 1690zM296 1692C321.94816 1692 343 1713.05184 343 1739 343 1764.94758 321.94785 1786 296 1786 270.052729 1786 249 1764.94727 249 1739 249 1713.05215 270.052419 1692 296 1692zM1510 953C1491.78114 953 1477 967.780954 1477 986 1477 1004.21866 1491.78134 1019 1510 1019 1528.21905 1019 1543 1004.21886 1543 986 1543 967.780752 1528.21925 953 1510 953zM1510 955C1527.11468 955 1541 968.885322 1541 986 1541 1003.11429 1527.11447 1017 1510 1017 1492.88591 1017 1479 1003.11409 1479 986 1479 968.885529 1492.88571 955 1510 955zM1641 1592C1613.94786 1592 1592 1613.94757 1592 1641 1592 1668.05184 1613.94816 1690 1641 1690 1668.05243 1690 1690 1668.05214 1690 1641 1690 1613.94727 1668.05273 1592 1641 1592zM1641 1594C1666.94816 1594 1688 1615.05184 1688 1641 1688 1666.94758 1666.94785 1688 1641 1688 1615.05273 1688 1594 1666.94727 1594 1641 1594 1615.05215 1615.05242 1594 1641 1594zM589 523.5C570.781143 523.5 556 538.280954 556 556.5 556 574.718655 570.781345 589.5 589 589.5 607.219046 589.5 622 574.718857 622 556.5 622 538.280752 607.219248 523.5 589 523.5zM589 525.5C606.114678 525.5 620 539.385322 620 556.5 620 573.614293 606.114471 587.5 589 587.5 571.885914 587.5 558 573.614086 558 556.5 558 539.385529 571.885707 525.5 589 525.5z" opacity=".1"/>
        <path fill="#1C1C1C" d="M1017,240 C1446.12525,240 1794,587.874749 1794,1017 C1794,1446.12525 1446.12525,1794 1017,1794 C990.490332,1794 969,1772.50967 969,1746 C969,1719.75543 990.062674,1698.43031 1016.20623,1698.00643 L1017,1698 C1393.10591,1698 1698,1393.10591 1698,1017 C1698,640.894085 1393.10591,336 1017,336 C644.655145,336 342.105003,634.826693 336.091235,1005.73842 L336,1017 C336,1043.50967 314.509668,1065 288,1065 C261.490332,1065 240,1043.50967 240,1017 C240,587.874749 587.874749,240 1017,240 Z" opacity=".5" transform="rotate(-90 1017 1017)"/>
      </g>
    </g>
  </g>
</svg>
