<svg xmlns="http://www.w3.org/2000/svg" xmlns:xlink="http://www.w3.org/1999/xlink" width="375" height="784" viewBox="0 0 375 784">
  <defs>
    <rect id="bg_mobile-a" width="375" height="784" x="0" y="0"/>
  </defs>
  <g fill="none" fill-rule="evenodd">
    <mask id="bg_mobile-b" fill="#fff">
      <use xlink:href="#bg_mobile-a"/>
    </mask>
    <g fill-rule="nonzero" mask="url(#bg_mobile-b)">
      <g transform="translate(-179 -78)">
        <path fill="#0D0D0D" d="M367.12-5.68434189e-14C567.850273-5.68434189e-14 730.948917 161.053853 734.190817 360.964672L734.24 367.034344 732.24 367.034344C732.24 165.428572 568.773386 2 367.12 2 165.467043 2 2 165.428799 2 367.034344 2 452.029047 31.1413875 532.545971 83.6193793 597.092804L85.2167586 599.043868 83.6735975 600.316132C29.8972108 535.089353 8.52651283e-13 453.356101 8.52651283e-13 367.034344 8.52651283e-13 164.324125 164.362579-5.68434189e-14 367.12-5.68434189e-14zM134.836106 648.948398C199.114592 701.939342 279.528675 731.642316 364.54243 732.231076L367.12 732.24 367.12 734.24C281.550726 734.24 200.48396 704.906105 135.527334 652.098996L133.563894 650.491602 134.836106 648.948398zM566.29374 615.100386L567.54626 616.659614C511.13971 661.9707 441.089806 687.08 367.19257 687.08 308.477563 687.08 252.092478 671.255303 202.851258 641.744225L201.361291 640.845763 202.398709 639.135861C251.680422 669.035639 308.252891 685.08 367.19257 685.08 439.895747 685.08 508.846614 660.625252 564.608046 616.445208L566.29374 615.100386z" opacity=".1"/>
        <path fill="#0D0D0D" d="M367.12 47.16C440.795442 47.16 510.639332 72.1667569 566.929145 117.290466L568.630738 118.664004 567.369262 120.215996C511.704072 74.9707125 442.475834 49.6691087 369.3375 49.1676011L367.12 49.16 367.12 47.16zM489.785936 608.537949C488.082669 609.405984 486.370132 610.255955 484.648593 611.087699L485.518648 612.888533C487.252948 612.050624 488.978177 611.194354 490.694064 610.319887L489.785936 608.537949zM479.453818 613.529651C477.713874 614.325055 475.965331 615.10199 474.208453 615.860307L475.00103 617.696559C476.770954 616.932611 478.532479 616.149907 480.285339 615.348599L479.453818 613.529651zM468.90867 618.081044C467.137545 618.80106 465.358514 619.502294 463.571836 620.184608L464.285357 622.053C466.08532 621.365612 467.877578 620.659165 469.661869 619.933797L468.90867 618.081044zM458.188516 622.174874C456.38734 622.819016 454.578925 623.444061 452.763528 624.049883L453.396632 625.947033C455.225539 625.336703 457.047412 624.707007 458.86199 624.058071L458.188516 622.174874zM447.292732 625.810766C445.465567 626.377382 443.631833 626.924646 441.791778 627.452443L442.343217 629.374919C444.196967 628.843194 446.044351 628.291856 447.885115 627.721023L447.292732 625.810766zM436.249232 628.978288C434.400435 629.466047 432.545731 629.934264 430.685365 630.382837L431.154172 632.327116C433.028373 631.875207 434.896873 631.403507 436.759425 630.912119L436.249232 628.978288zM425.109463 631.664723C423.24145 632.073316 421.368172 632.462205 419.489867 632.831295L419.875496 634.793765C421.767745 634.421935 423.654934 634.030159 425.536823 633.61853L425.109463 631.664723zM413.842003 633.878747C411.958664 634.207328 410.070692 634.516095 408.178314 634.804966L408.480118 636.782064C410.386502 636.491054 412.288454 636.180001 414.185745 635.848986L413.842003 633.878747zM402.482688 635.612532C400.587578 635.860725 398.688446 636.089045 396.785512 636.29742L397.003215 638.285536C398.920171 638.075625 400.833307 637.845622 402.742399 637.595598L402.482688 635.612532zM391.06827 636.862397C389.164572 637.030246 387.257441 637.178205 385.347088 637.30621L385.4808 639.301736C387.405148 639.172792 389.326262 639.023749 391.243928 638.854668L391.06827 636.862397zM379.596165 637.630779C377.687049 637.718398 375.775067 637.786149 373.860418 637.833977L373.910363 639.833354C375.838934 639.785177 377.764833 639.716933 379.687858 639.628676L379.596165 637.630779zM368.111137 637.917631L366.965907 637.92C365.439086 637.92 363.913746 637.90736 362.389985 637.882107L362.356843 639.881832C363.89165 639.907269 365.428038 639.92 366.965907 639.92L368.119414 639.917613 368.111137 637.917631zM356.651965 637.727147C354.742062 637.655605 352.83497 637.564192 350.930893 637.452965L350.814262 639.449562C352.732252 639.561601 354.653267 639.653681 356.577101 639.725745L356.651965 637.727147zM345.18782 637.056716C343.281295 636.904948 341.378152 636.733252 339.478605 636.541695L339.277935 638.531602C341.191454 638.724568 343.108585 638.897526 345.029112 639.050409L345.18782 637.056716zM333.750651 635.902576C331.853911 635.670511 329.961136 635.418571 328.072549 635.146829L327.78771 637.126442C329.690258 637.400192 331.597018 637.653995 333.507763 637.887773L333.750651 635.902576zM322.406602 634.270129C320.517849 633.957314 318.633687 633.624612 316.754348 633.272108L316.385641 635.237828C318.278923 635.592948 320.177059 635.928117 322.079815 636.243251L322.406602 634.270129zM311.116339 632.15219C309.242577 631.759155 307.374038 631.346341 305.510961 630.913844L305.058705 632.862039C306.935637 633.297752 308.818069 633.713636 310.70576 634.109593L311.116339 632.15219zM299.945499 629.559219C298.093269 629.087426 296.246889 628.596075 294.406606 628.085274L293.871696 630.012415C295.725683 630.527019 297.58581 631.022028 299.451829 631.497334L299.945499 629.559219zM288.882109 626.487955C287.051248 625.93728 285.226899 625.367241 283.409316 624.777955L282.792497 626.680462C284.623618 627.274137 286.461555 627.848423 288.306054 628.403199L288.882109 626.487955zM277.940809 622.939838C276.13205 622.31016 274.3305 621.661299 272.53642 620.993384L271.838631 622.867709C273.646069 623.540596 275.461033 624.194288 277.283261 624.828655L277.940809 622.939838zM267.184679 618.935721C265.405271 618.229687 263.633745 617.504778 261.870366 616.761137L261.093217 618.603972C262.869711 619.353144 264.654414 620.083444 266.447061 620.794731L267.184679 618.935721zM256.602774 614.473197C254.854195 613.69143 253.114193 612.891103 251.383037 612.072371L250.527964 613.880367C252.271975 614.705179 254.024901 615.511451 255.786471 616.299025L256.602774 614.473197zM246.209396 609.557629C244.499303 608.703729 242.79844 607.831718 241.107075 606.941764L240.175777 608.711703C241.879679 609.608254 243.593153 610.48673 245.315928 611.346963L246.209396 609.557629zM236.086252 604.2318C234.411103 603.304662 232.745901 602.359764 231.090915 601.397285L230.085457 603.126173C231.752687 604.095773 233.430213 605.047664 235.117761 605.981664L236.086252 604.2318zM226.155878 598.456672C224.524232 597.460808 222.903184 596.447687 221.293004 595.417499L220.21514 597.102197C221.837211 598.139993 223.470232 599.160597 225.113933 600.163819L226.155878 598.456672zM216.49861 592.278118C214.90902 591.213073 213.330728 590.131216 211.764001 589.03275L210.615844 590.67035C212.194121 591.776914 213.784051 592.866748 215.385364 593.939648L216.49861 592.278118zM207.084997 585.67762C205.542091 584.546299 204.011152 583.398681 202.492445 582.234981L201.276004 583.822517C202.80589 584.994784 204.3481 586.15085 205.902368 587.290502L207.084997 585.67762zM197.970289 578.693445C196.478561 577.499558 194.999427 576.289957 193.533147 575.064865L192.250808 576.599663C193.727868 577.833762 195.217878 579.052258 196.720576 580.254925L197.970289 578.693445zM189.147071 571.320616C187.704636 570.062592 186.275488 568.789367 184.85988 567.501175L183.513804 568.980391C184.939812 570.278047 186.379461 571.560627 187.832495 572.827894L189.147071 571.320616zM180.647638 563.585948C179.260669 562.269205 177.887598 560.937874 176.52867 559.592198L175.121403 561.013323C176.49031 562.368883 177.873466 563.709991 179.270621 565.036405L180.647638 563.585948zM172.483779 555.501227C171.152713 554.126247 169.836177 552.737272 168.53441 551.334551L167.068427 552.695027C168.379757 554.108051 169.705963 555.507228 171.046804 556.892307L172.483779 555.501227zM164.667284 547.07824C163.396747 545.64981 162.1413 544.208043 160.901174 542.753194L159.379106 544.050618C160.628346 545.516159 161.893019 546.968522 163.172892 548.407448L164.667284 547.07824zM157.20994 538.328779C156.000432 536.847411 154.806594 535.353343 153.628647 533.846834L152.053099 535.078763C153.239712 536.596355 154.442331 538.101413 155.660735 539.593676L157.20994 538.328779zM150.138759 529.28498C148.992345 527.753147 147.86216 526.20926 146.748414 524.653585L145.122209 525.817826C146.24416 527.384961 147.382669 528.940219 148.537525 530.483333L150.138759 529.28498zM143.477328 519.981594C142.397253 518.403916 141.333896 516.814869 140.287457 515.21472L138.613608 516.309356C139.667769 517.921313 140.73897 519.522083 141.827012 521.111397L143.477328 519.981594zM137.232082 510.434085C136.219513 508.812571 135.224139 507.180364 134.246145 505.537733L132.527669 506.560884C133.512891 508.215657 134.515623 509.859927 135.535673 511.493423L137.232082 510.434085zM131.35876 500.568718C130.41546 498.904888 129.489822 497.231039 128.582023 495.547441L126.821625 496.496651C127.736148 498.192719 128.66864 499.878962 129.618923 501.555109L131.35876 500.568718zM125.897653 490.439033C125.02626 488.736789 124.172941 487.025218 123.337859 485.304589L121.538575 486.177845C122.379853 487.911242 123.239503 489.635511 124.117359 491.350381L125.897653 490.439033zM120.892453 480.126603C120.094106 478.388539 119.314216 476.641831 118.552937 474.886746L116.718109 475.682614C117.485047 477.450745 118.270732 479.210433 119.075011 480.961411L120.892453 480.126603zM116.316678 469.576066C115.59339 467.805596 114.888897 466.027169 114.203339 464.24105L112.336154 464.957723C113.026815 466.757136 113.73655 468.548796 114.465219 470.33244L116.316678 469.576066zM112.207889 458.871785C111.5605 457.071259 110.932222 455.263449 110.323181 453.448615L108.427102 454.084922C109.04068 455.913273 109.673637 457.734547 110.325847 459.548483L112.207889 458.871785zM108.552748 447.979617C107.983337 446.154196 107.433266 444.322174 106.902652 442.483803L104.981092 443.038428C105.515659 444.890494 106.069828 446.736164 106.643481 448.575183L108.552748 447.979617zM105.36592 436.937201C104.87506 435.088756 104.403757 433.23437 103.952117 431.374289L102.008587 431.846192C102.463589 433.720118 102.9384 435.588309 103.432915 437.450516L105.36592 436.937201zM102.657707 425.783664C102.246311 423.916364 101.854628 422.043773 101.482752 420.16613L99.5208604 420.554692C99.8954997 422.446286 100.290093 424.332795 100.704548 426.213976L102.657707 425.783664zM100.424696 414.507256C100.093465 412.624627 99.7820551 410.737342 99.4905476 408.845633L97.5138789 409.150232C97.8075458 411.055955 98.1212641 412.957226 98.4549504 414.853813L100.424696 414.507256zM98.6744523 403.147148C98.4236052 401.252085 98.1926503 399.35298 97.9816606 397.450055L95.993842 397.670457C96.2063878 399.587418 96.4390473 401.500539 96.6917468 403.409596L98.6744523 403.147148zM97.4098701 391.743544C97.2393869 389.839884 97.0888137 387.932774 96.9582145 386.022427L94.9628719 386.158837C95.0944288 388.083192 95.246107 390.004299 95.4178423 391.921941L97.4098701 391.743544zM96.6264707 380.283317C96.5362362 378.374379 96.4658856 376.462562 96.4154745 374.548068L94.4161675 374.600712C94.4669455 376.529142 94.5378087 378.45489 94.6287013 380.377751L96.6264707 380.283317zM96.324019 368.778955L96.32 367.28816C96.32 365.871858 96.3308868 364.456812 96.35264 363.043102L94.3528768 363.012331C94.3309658 364.436297 94.32 365.8616 94.32 367.28816L94.3240481 368.789741 96.324019 368.778955zM96.5008282 357.305056C96.5702852 355.390782 96.6597176 353.479287 96.7690674 351.570778L94.7723422 351.456374C94.6621929 353.378836 94.5721073 355.304293 94.5021434 357.232537L96.5008282 357.305056zM97.1577367 345.842614C97.3073769 343.934799 97.4769816 342.030326 97.6664841 340.12941L95.6763488 339.931014C95.4854519 341.845916 95.3146002 343.764392 95.1638606 345.686223L97.1577367 345.842614zM98.2959463 334.426589C98.5260379 332.526552 98.7760807 330.630448 99.0459987 328.738502L97.066047 328.456029C96.7941333 330.361963 96.5422428 332.272079 96.3104518 334.186149L98.2959463 334.426589zM99.9189626 323.053105C100.229605 321.164301 100.560139 319.280043 100.910478 317.400567L98.9443444 317.034074C98.5914058 318.927495 98.2584205 320.825727 97.9454748 322.728535L99.9189626 323.053105zM102.023998 311.76151C102.414726 309.888226 102.825222 308.020117 103.255388 306.157426L101.306678 305.707395C100.873313 307.583936 100.459766 309.465932 100.066133 311.35314L102.023998 311.76151zM104.603705 300.590182C105.074098 298.734563 105.564115 296.884773 106.073647 295.041059L104.145909 294.508306C103.632584 296.365744 103.13892 298.229303 102.665025 300.098732L104.603705 300.590182zM107.663286 289.519702C108.212443 287.686274 108.781009 285.859335 109.368866 284.039138L107.465661 283.424473C106.873428 285.258221 106.300628 287.098763 105.747383 288.945841L107.663286 289.519702zM111.190965 278.596796C111.817717 276.789142 112.463616 274.988645 113.128529 273.195565L111.253308 272.500192C110.583447 274.306614 109.932741 276.12051 109.301324 277.941617L111.190965 278.596796zM115.187817 267.819537C115.891208 266.040492 116.613449 264.269285 117.354396 262.50618L115.510597 261.731321C114.764143 263.50753 114.036534 265.291903 113.327912 267.084175L115.187817 267.819537zM119.640232 257.225686C120.418937 255.478257 121.216157 253.739354 122.031736 252.009245L120.222667 251.156444C119.401036 252.899391 118.597899 254.651201 117.813413 256.411603L119.640232 257.225686zM124.541633 246.829023C125.394073 245.116468 126.264651 243.41313 127.153199 241.719278L125.382092 240.790204C124.486962 242.496602 123.609934 244.212561 122.751176 245.937807L124.541633 246.829023zM129.849188 236.708854C130.339169 235.820771 130.834137 234.935467 131.334064 234.052984L129.593895 233.067178C129.090271 233.956188 128.591642 234.84804 128.098036 235.742693L129.849188 236.708854zM242.399965 181.998762C243.983305 180.928639 245.580266 179.878848 247.190454 178.849679 247.655805 178.552245 247.791929 177.933886 247.494495 177.468535 247.197061 177.003184 246.578701 176.867061 246.11335 177.164495 244.488763 178.202867 242.877526 179.262042 241.280035 180.341729 240.822458 180.650989 240.702224 181.272633 241.011484 181.73021 241.320743 182.187787 241.942388 182.308022 242.399965 181.998762zM252.06207 175.823262C253.698104 174.835776 255.346761 173.869319 257.007649 172.92416 257.487654 172.651004 257.655338 172.040447 257.382182 171.560443 257.109027 171.080438 256.49847 170.912754 256.018465 171.185909 254.342689 172.139541 252.679258 173.114658 251.028568 174.11099 250.555738 174.396384 250.40379 175.011046 250.689184 175.483877 250.974577 175.956708 251.58924 176.108655 252.06207 175.823262zM262.036052 170.147784C263.720213 169.246015 265.415988 168.365902 267.122984 167.507692 267.616417 167.259613 267.815315 166.6585 267.567237 166.165067 267.319158 165.671635 266.718045 165.472736 266.224613 165.720815 264.502278 166.586737 262.791269 167.474756 261.091984 168.384623 260.605101 168.64532 260.421741 169.251354 260.682438 169.738238 260.943135 170.225121 261.549169 170.408481 262.036052 170.147784zM272.285449 164.995149C274.015084 164.180797 275.755344 163.388707 277.505837 162.619104 278.011417 162.396826 278.241078 161.806781 278.018801 161.301201 277.796523 160.795621 277.206478 160.565959 276.700898 160.788237 274.93464 161.564771 273.178711 162.363993 271.433507 163.185675 270.933835 163.420932 270.719484 164.01671 270.954741 164.516383 271.189998 165.016055 271.785776 165.230406 272.285449 164.995149zM282.790481 160.376813C284.559776 159.65296 286.33869 158.951871 288.126839 158.273751 288.643237 158.077917 288.903106 157.500538 288.707272 156.98414 288.511438 156.467741 287.93406 156.207872 287.417661 156.403706 285.613381 157.087944 283.818421 157.795357 282.03317 158.525738 281.52201 158.734864 281.277162 159.318771 281.486288 159.829931 281.695414 160.341092 282.279321 160.585939 282.790481 160.376813zM293.531743 156.303903C295.336039 155.672728 297.148958 155.064747 298.970123 154.480142 299.495978 154.31134 299.785427 153.748208 299.616624 153.222352 299.447822 152.696497 298.88469 152.407048 298.358834 152.575851 296.521224 153.165734 294.691935 153.779205 292.871349 154.416079 292.35004 154.598441 292.075271 155.16888 292.257634 155.690188 292.439997 156.211496 293.010435 156.486265 293.531743 156.303903zM304.428297 152.805329C306.2616 152.268546 308.102539 151.75528 309.950749 151.265692 310.48462 151.124271 310.802764 150.576838 310.661342 150.042967 310.519921 149.509096 309.972488 149.190952 309.438617 149.332374 307.57372 149.826382 305.716158 150.344282 303.866301 150.885913 303.336268 151.041104 303.0324 151.596587 303.187591 152.126619 303.342782 152.656651 303.898265 152.96052 304.428297 152.805329zM315.520815 149.867181C317.379182 149.426103 319.244225 149.00881 321.115593 148.615443 321.656066 148.501834 322.002108 147.971595 321.888499 147.431122 321.77489 146.890648 321.244651 146.544607 320.704178 146.658216 318.815941 147.055129 316.93408 147.476185 315.058952 147.921241 314.521596 148.048781 314.189374 148.587786 314.316914 149.125143 314.444454 149.662499 314.983459 149.994721 315.520815 149.867181zM326.759094 147.505286C328.637678 147.16094 330.522007 146.840568 332.411743 146.544293 332.957363 146.45875 333.330329 145.947091 333.244786 145.401471 333.159243 144.855852 332.647585 144.482886 332.101965 144.568429 330.195249 144.867366 328.29398 145.190619 326.398501 145.538061 325.855267 145.637636 325.49561 146.158736 325.595185 146.70197 325.694761 147.245204 326.21586 147.604861 326.759094 147.505286zM338.099295 145.727559C339.992858 145.48049 341.891266 145.257496 343.794199 145.058684 344.343494 145.001295 344.742263 144.509481 344.684874 143.960186 344.627485 143.410891 344.135671 143.012122 343.586376 143.069511 341.666435 143.2701 339.751045 143.495089 337.840532 143.74437 337.292889 143.815825 336.906863 144.317704 336.978319 144.865346 337.049774 145.412989 337.551653 145.799015 338.099295 145.727559zM349.529929 144.53382C351.433466 144.384232 353.340987 144.25874 355.252187 144.157433 355.803697 144.128199 356.227086 143.657413 356.197852 143.105902 356.168618 142.554392 355.697832 142.131003 355.146321 142.160237 353.218166 142.262442 351.293703 142.38905 349.373243 142.539968 348.822656 142.583235 348.411392 143.064649 348.45466 143.615237 348.497927 144.165824 348.979342 144.577088 349.529929 144.53382zM360.931388 143.927963C362.839636 143.874845 364.751052 143.845756 366.665349 143.840776 367.217631 143.839335 367.66418 143.390456 367.662745 142.838173 367.661304 142.28589 367.212425 141.839342 366.660142 141.840776 364.729027 141.845807 362.800795 141.875152 360.875738 141.928738 360.323667 141.944105 359.888583 142.404105 359.90395 142.956176 359.919318 143.508247 360.379317 143.943331 360.931388 143.927963zM372.408086 143.898233C374.319696 143.941513 376.228126 144.008892 378.133079 144.100291 378.684729 144.126758 379.153386 143.701014 379.179854 143.149364 379.206322 142.597714 378.780577 142.129057 378.228927 142.102589 376.307124 142.010382 374.381834 141.942407 372.453356 141.898746 371.901212 141.886245 371.443478 142.323712 371.430977 142.875855 371.418477 143.427998 371.855943 143.885733 372.408086 143.898233zM383.856076 144.447849C385.764767 144.588173 387.66945 144.752701 389.56981 144.941336 390.119394 144.995889 390.609144 144.594587 390.663697 144.045003 390.71825 143.495419 390.316948 143.00567 389.767364 142.951116 387.850055 142.760799 385.9284 142.594806 384.002717 142.453232 383.451919 142.412738 382.972582 142.826421 382.932088 143.377219 382.891594 143.928018 383.305277 144.407355 383.856076 144.447849zM395.292112 145.583787C397.189145 145.821545 399.081311 146.083434 400.968284 146.369342 401.514336 146.452077 402.02407 146.076485 402.106806 145.530433 402.189542 144.984381 401.813949 144.474647 401.267897 144.391911 399.363994 144.103438 397.454861 143.839201 395.54083 143.599312 394.992832 143.530631 394.492915 143.919193 394.424234 144.467191 394.355552 145.015188 394.744115 145.515106 395.292112 145.583787zM406.615237 147.299354C408.49651 147.634097 410.372025 147.992839 412.241438 148.375449 412.782506 148.486189 413.310901 148.137338 413.421641 147.59627 413.532381 147.055201 413.18353 146.526806 412.642462 146.416067 410.75621 146.03001 408.863807 145.668038 406.965602 145.330282 406.421858 145.233532 405.902634 145.595891 405.805884 146.139636 405.709133 146.68338 406.071493 147.202603 406.615237 147.299354zM417.870187 149.603834C419.733576 150.03592 421.590259 150.491865 423.439878 150.971519 423.974479 151.110155 424.520246 150.789162 424.658882 150.254561 424.797518 149.71996 424.476525 149.174193 423.941924 149.035557 422.075608 148.551572 420.202167 148.091512 418.321964 147.655527 417.783954 147.530772 417.246677 147.865782 417.121922 148.403792 416.997167 148.941802 417.332177 149.479079 417.870187 149.603834zM428.957816 152.478774C430.795852 153.006446 432.626227 153.55769 434.448572 154.132339 434.97529 154.298432 435.536923 154.006087 435.703016 153.47937 435.869109 152.952652 435.576764 152.391018 435.050046 152.224925 433.211241 151.645086 431.364331 151.088861 429.509693 150.556424 428.978851 150.404027 428.424976 150.710818 428.27258 151.24166 428.120183 151.772503 428.426974 152.326378 428.957816 152.478774zM439.889819 155.925874C441.697003 156.547587 443.495556 157.192493 445.285099 157.860402 445.80252 158.053519 446.378525 157.790618 446.571641 157.273197 446.764757 156.755776 446.501857 156.179771 445.984436 155.986655 444.178736 155.312716 442.363943 154.661987 440.54044 154.03466 440.018196 153.854996 439.449187 154.132712 439.269523 154.654957 439.089858 155.177201 439.367575 155.74621 439.889819 155.925874zM450.645231 159.940571C452.417346 160.654877 454.179839 161.391935 455.932324 162.151533 456.439056 162.371171 457.027896 162.138435 457.247534 161.631703 457.467172 161.124971 457.234436 160.536131 456.727704 160.316493 454.95942 159.550047 453.181034 158.806344 451.392938 158.085595 450.8807 157.879122 450.29807 158.126993 450.091597 158.63923 449.885123 159.151467 450.132994 159.734098 450.645231 159.940571zM461.188079 164.511071C462.921437 165.316431 464.644162 166.144053 466.355862 166.993703 466.850555 167.239258 467.450644 167.037292 467.696199 166.542599 467.941754 166.047906 467.739788 165.447816 467.245094 165.202261 465.517995 164.344967 463.779767 163.509897 462.030806 162.697288 461.529943 162.464575 460.935263 162.681954 460.70255 163.182816 460.469838 163.683679 460.687216 164.278359 461.188079 164.511071zM471.469419 169.614816C473.160266 170.509264 474.839455 171.425434 476.506588 172.36307 476.987962 172.633806 477.597667 172.463051 477.868403 171.981678 478.139139 171.500304 477.968384 170.890599 477.487011 170.619863 475.804914 169.67381 474.110649 168.749415 472.404617 167.846935 471.91643 167.588687 471.311325 167.77509 471.053077 168.263277 470.794829 168.751464 470.981232 169.356568 471.469419 169.614816zM481.443196 175.223278C483.084601 176.202536 484.713366 177.202843 486.329094 178.223925 486.795964 178.518969 487.413617 178.379678 487.708662 177.912808 488.003706 177.445939 487.864415 176.828285 487.397545 176.533241 485.76735 175.503016 484.123997 174.49375 482.467886 173.505719 481.993595 173.222759 481.379722 173.377863 481.096762 173.852154 480.813801 174.326445 480.968905 174.940318 481.443196 175.223278zM491.131653 181.34579C492.721394 182.408401 494.297487 183.491381 495.859542 184.594435 496.310683 184.913011 496.934661 184.805545 497.253237 184.354404 497.571812 183.903264 497.464347 183.279285 497.013206 182.96071 495.437197 181.847802 493.847018 180.755143 492.243067 179.683035 491.78391 179.376126 491.162891 179.499548 490.855982 179.958705 490.549073 180.417862 490.672495 181.038882 491.131653 181.34579zM500.501227 187.96205C502.033363 189.103847 503.550892 190.265232 505.05343 191.445888 505.487688 191.787118 506.116346 191.711703 506.457576 191.277444 506.798806 190.843185 506.723391 190.214528 506.289132 189.873298 504.773196 188.682114 503.242132 187.510371 501.696328 186.358388 501.253489 186.028369 500.626964 186.119829 500.296946 186.562668 499.966928 187.005507 500.058388 187.632032 500.501227 187.96205zM509.531942 195.058822C511.004622 196.278363 512.461713 197.516712 513.902838 198.773535 514.31907 199.136536 514.950763 199.093384 515.313764 198.677152 515.676765 198.26092 515.633612 197.629227 515.217381 197.266227 513.763422 195.998211 512.293354 194.748833 510.807557 193.518429 510.382189 193.166178 509.751805 193.225451 509.399553 193.650818 509.047302 194.076186 509.106575 194.70657 509.531942 195.058822zM518.180597 202.601533C519.589107 203.894731 520.981092 205.205888 522.356186 206.534656 522.753343 206.918433 523.386415 206.907586 523.770192 206.510429 524.153969 206.113272 524.143122 205.4802 523.745965 205.096423 522.358635 203.755832 520.954263 202.433007 519.533218 201.1283 519.126396 200.754784 518.493807 200.781783 518.120291 201.188605 517.746775 201.595427 517.773775 202.228016 518.180597 202.601533zM526.440875 210.584063C527.780551 211.946589 529.10282 213.326163 530.407331 214.722419 530.784371 215.125977 531.417171 215.147474 531.820729 214.770433 532.224287 214.393392 532.245783 213.760592 531.868743 213.357035 530.552625 211.948355 529.218592 210.556507 527.866997 209.181859 527.479789 208.788046 526.846646 208.782692 526.452834 209.1699 526.059021 209.557108 526.053667 210.19025 526.440875 210.584063zM534.273146 218.967536C535.542384 220.397581 536.793324 221.843774 538.02563 223.305738 538.381576 223.728019 539.012453 223.781795 539.434734 223.42585 539.857015 223.069904 539.910791 222.439027 539.554845 222.016746 538.311569 220.541766 537.049493 219.0827 535.768959 217.639927 535.40235 217.226869 534.770305 217.189216 534.357248 217.555825 533.944191 217.922434 533.906537 218.554478 534.273146 218.967536zM541.671655 227.745252C542.865733 229.237723 544.040702 230.745379 545.196241 232.267837 545.53014 232.707758 546.157444 232.793706 546.597365 232.459808 547.037286 232.12591 547.123234 231.498605 546.789336 231.058685 545.623497 229.522657 544.438058 228.001566 543.23334 226.495797 542.888313 226.064549 542.259018 225.994654 541.82777 226.339682 541.396523 226.684709 541.326627 227.314004 541.671655 227.745252zM548.619183 236.899983C549.735597 238.452103 550.832108 240.018443 551.908417 241.598612 552.219326 242.05507 552.841401 242.17306 553.297858 241.86215 553.754316 241.551241 553.872306 240.929167 553.561397 240.472709 552.475479 238.878432 551.36918 237.298112 550.242804 235.732141 549.920313 235.28379 549.295423 235.181761 548.847072 235.504252 548.398722 235.826742 548.296693 236.451633 548.619183 236.899983zM555.090055 246.401356C556.125204 248.008483 557.139729 249.628833 558.133348 251.262014 558.420403 251.733838 559.035596 251.883622 559.50742 251.596566 559.979244 251.309511 560.129028 250.694318 559.841973 250.222494 558.839464 248.574703 557.815866 246.93986 556.771461 245.318363 556.472401 244.854056 555.853569 244.720096 555.389262 245.019156 554.924954 245.318216 554.790995 245.937048 555.090055 246.401356zM561.03007 256.162809C561.981643 257.820598 562.911926 259.49061 563.820661 261.172452 564.0832 261.658345 564.689923 261.83941 565.175816 261.576871 565.661709 261.314333 565.842774 260.707609 565.580235 260.221716 564.663352 258.524795 563.72473 256.839813 562.764631 255.16717 562.489693 254.688184 561.878517 254.522771 561.399531 254.797709 560.920545 255.072648 560.755132 255.683824 561.03007 256.162809zM566.455828 266.201586C567.321276 267.905728 568.164833 269.62109 568.986263 271.34728 569.223575 271.84598 569.820231 272.057876 570.318931 271.820563 570.81763 271.583251 571.029526 270.986595 570.792213 270.487896 569.963403 268.746195 569.112268 267.015424 568.239048 265.295978 567.988971 264.803555 567.387057 264.607095 566.894634 264.857172 566.402211 265.107249 566.205751 265.709163 566.455828 266.201586zM571.382638 276.555031C571.631092 277.11382 571.87725 277.673659 572.121107 278.234534 572.341316 278.741018 572.930418 278.97309 573.436902 278.752882 573.943386 278.532673 574.175459 277.943571 573.95525 277.437087 573.709199 276.871165 573.460825 276.30629 573.210136 275.742473 572.985755 275.237824 572.394758 275.010622 571.890108 275.235003 571.385459 275.459385 571.158257 276.050382 571.382638 276.555031zM189.933598 227.902284L191.506402 229.137716C160.802132 268.226719 143.84 316.367775 143.84 367.096048 143.84 390.954629 147.57557 414.285687 154.828078 436.469136L155.242351 437.723573 153.345118 438.356427C145.752735 415.595226 141.84 391.620436 141.84 367.096048 141.84 316.427361 158.614478 268.312206 189.008405 229.088164L189.933598 227.902284zM574.990334 449.191596L576.849666 449.928404C543.392589 534.357263 462.0617 591.253392 369.915579 592.382872L367.12 592.4 367.12 590.4C458.662036 590.4 539.855754 534.84505 573.970987 451.718979L574.990334 449.191596zM539.659761 402.161846C539.282134 404.033083 538.874267 405.896481 538.436383 407.751479 538.309501 408.288991 538.642381 408.827589 539.179893 408.954472 539.717405 409.081355 540.256004 408.748475 540.382887 408.210962 540.825773 406.334768 541.238299 404.450085 541.620239 402.557482 541.729491 402.016112 541.379189 401.488677 540.837818 401.379425 540.296448 401.270173 539.769013 401.620475 539.659761 402.161846zM537.027899 413.3092C536.527785 415.154972 535.997704 416.991353 535.437922 418.817754 535.276081 419.345793 535.572943 419.905052 536.100982 420.066894 536.629022 420.228735 537.188281 419.931873 537.350122 419.403833 537.916311 417.556531 538.452457 415.699135 538.958294 413.832243 539.102728 413.299179 538.787682 412.749958 538.254618 412.605524 537.721554 412.46109 537.172333 412.776136 537.027899 413.3092zM533.666515 424.275817C533.046757 426.083768 532.397613 427.880769 531.719389 429.666209 531.523269 430.182499 531.782818 430.760022 532.299108 430.956142 532.815399 431.152261 533.392921 430.892712 533.589041 430.376422 534.275023 428.570558 534.931594 426.752998 535.558442 424.924361 535.737533 424.401919 535.459192 423.833215 534.93675 423.654125 534.414309 423.475034 533.845605 423.753375 533.666515 424.275817zM529.600859 434.979875C528.864803 436.741756 528.100116 438.491111 527.307146 440.227317 527.077702 440.729685 527.298951 441.322936 527.801319 441.552381 528.303687 441.781825 528.896938 441.560577 529.126382 441.058208 529.928406 439.302179 530.701827 437.532844 531.446291 435.750836 531.659186 435.241234 531.418658 434.655534 530.909056 434.442639 530.399454 434.229745 529.813754 434.470273 529.600859 434.979875zM524.833509 445.416457C523.983947 447.125938 523.106619 448.821287 522.201917 450.501871 521.94013 450.988169 522.122133 451.594612 522.608431 451.856399 523.09473 452.118186 523.701173 451.936183 523.962959 451.449885 524.877963 449.750163 525.765286 448.035503 526.624528 446.306541 526.870318 445.811965 526.668637 445.211779 526.174061 444.965989 525.679484 444.7202 525.079299 444.921881 524.833509 445.416457zM519.412531 455.487609C518.453989 457.13743 517.468688 458.771524 516.457066 460.389258 516.164243 460.857525 516.306469 461.474509 516.774736 461.767332 517.243002 462.060154 517.859986 461.917928 518.152809 461.449662 519.175918 459.813558 520.17241 458.160904 521.141844 456.492337 521.419292 456.0148 521.257088 455.402764 520.779552 455.125317 520.302015 454.847869 519.689979 455.010073 519.412531 455.487609zM513.337965 465.20125C512.272658 466.787637 511.181626 468.35665 510.065349 469.90766 509.742732 470.35592 509.844585 470.980839 510.292845 471.303456 510.741105 471.626073 511.366024 471.524219 511.688641 471.075959 512.817559 469.507384 513.920951 467.920598 514.998329 466.316235 515.306224 465.857738 515.184137 465.236455 514.72564 464.92856 514.267143 464.620666 513.64586 464.742753 513.337965 465.20125zM506.636483 474.51226C505.47064 476.025922 504.280304 477.520643 503.065994 478.995808 502.714995 479.422209 502.77612 480.052417 503.20252 480.403416 503.628921 480.754416 504.259129 480.693291 504.610129 480.26689 505.838162 478.775053 507.041953 477.263436 508.220978 475.73266 508.557982 475.295114 508.476476 474.667217 508.03893 474.330213 507.601384 473.993209 506.973487 474.074714 506.636483 474.51226zM499.347981 483.366214C498.086621 484.801133 496.802094 486.215585 495.494953 487.608976 495.117094 488.011768 495.137305 488.64461 495.540097 489.022469 495.942889 489.400328 496.575731 489.380116 496.95359 488.977325 498.275487 487.568203 499.574517 486.137782 500.850118 484.686662 501.21475 484.271859 501.174078 483.640001 500.759274 483.27537 500.34447 482.910738 499.712613 482.95141 499.347981 483.366214zM491.497951 491.733655C490.147391 493.082895 488.775106 494.410233 487.381675 495.715101 486.97855 496.092605 486.95778 496.725429 487.335283 497.128554 487.712787 497.531679 488.345611 497.552449 488.748736 497.174946 490.157895 495.855348 491.54567 494.513028 492.911473 493.148559 493.302188 492.758225 493.302498 492.12506 492.912164 491.734345 492.521831 491.34363 491.888666 491.343321 491.497951 491.733655zM483.177378 499.52763C481.742028 500.787918 480.286397 502.02489 478.811089 503.23801 478.384503 503.588784 478.323045 504.218959 478.673819 504.645545 479.024593 505.072132 479.654769 505.133589 480.081355 504.782815 481.573332 503.555989 483.045407 502.305043 484.496969 501.03052 484.911981 500.666125 484.953013 500.034291 484.588618 499.619279 484.224223 499.204268 483.592389 499.163235 483.177378 499.52763zM474.319771 506.810637C472.806357 507.974903 471.274208 509.114558 469.723947 510.229104 469.275523 510.551493 469.173353 511.17636 469.495742 511.624784 469.818132 512.073207 470.442999 512.175378 470.891422 511.852988 472.459234 510.725825 474.008722 509.573272 475.539259 508.395834 475.976999 508.059082 476.058866 507.431232 475.722113 506.993492 475.385361 506.555752 474.757511 506.473885 474.319771 506.810637zM465.005784 513.506077C463.419501 514.56997 461.816049 515.608025 460.196059 516.619782 459.727627 516.912339 459.585052 517.529243 459.877609 517.997675 460.170166 518.466107 460.78707 518.608682 461.255502 518.316125 462.89388 517.292884 464.515525 516.243051 466.119799 515.167091 466.578476 514.859465 466.700926 514.238253 466.393299 513.779576 466.085672 513.3209 465.46446 513.19845 465.005784 513.506077zM455.277278 519.581406C453.625496 520.539589 451.958156 521.470846 450.275893 522.374759 449.78939 522.636167 449.606915 523.242467 449.868322 523.72897 450.12973 524.215472 450.73603 524.397948 451.222533 524.13654 452.923947 523.222337 454.61026 522.280483 456.280831 521.3114 456.758556 521.034277 456.921175 520.422351 456.644052 519.944626 456.366928 519.466902 455.755002 519.304282 455.277278 519.581406zM445.177892 525.007564C443.467297 525.855843 441.742763 526.676228 440.00492 527.468346 439.502377 527.697407 439.280677 528.29049 439.509738 528.793032 439.7388 529.295575 440.331882 529.517276 440.834425 529.288214 442.592108 528.487053 444.336323 527.657306 446.066434 526.799349 446.561222 526.553985 446.76342 525.953974 446.518056 525.459186 446.272692 524.964398 445.67268 524.7622 445.177892 525.007564zM434.739118 529.764934C432.977838 530.498916 431.204251 531.204204 429.418975 531.880472 428.902504 532.076112 428.642419 532.653394 428.83806 533.169866 429.033701 533.686337 429.610982 533.946422 430.127454 533.750781 431.933156 533.066776 433.72703 532.35342 435.508452 531.611044 436.018241 531.398599 436.259286 530.813112 436.04684 530.303322 435.834394 529.793533 435.248907 529.552488 434.739118 529.764934zM424.005765 533.829718C422.199925 534.446585 420.383373 535.034064 418.556709 535.591872 418.028503 535.753169 417.731065 536.312123 417.892363 536.840329 418.053661 537.368534 418.612614 537.665972 419.14082 537.504674 420.988403 536.940479 422.825758 536.346272 424.652277 535.722341 425.17491 535.543812 425.453862 534.975407 425.275332 534.452774 425.096803 533.93014 424.528398 533.651189 424.005765 533.829718zM413.023549 537.182313C411.181198 537.679154 409.329701 538.146081 407.469635 538.582851 406.931974 538.709101 406.59846 539.247308 406.72471 539.784969 406.85096 540.32263 407.389167 540.656144 407.926828 540.529894 409.808176 540.088127 411.680862 539.615856 413.544301 539.113327 414.077536 538.969525 414.393234 538.420679 414.249433 537.887444 414.105631 537.354209 413.556784 537.038511 413.023549 537.182313zM401.882956 539.798704C400.012845 540.173821 398.135107 540.518683 396.250291 540.833088 395.705533 540.923959 395.337585 541.439238 395.428456 541.983995 395.519327 542.528753 396.034605 542.896701 396.579363 542.805831 398.485671 542.487841 400.384833 542.139043 402.276291 541.759645 402.81779 541.651028 403.16871 541.124006 403.060093 540.582507 402.951477 540.041008 402.424454 539.690088 401.882956 539.798704zM390.678518 541.670903C388.788518 541.924203 386.892331 542.147068 384.990476 542.339329 384.440991 542.394877 384.040577 542.885352 384.096125 543.434836 384.151673 543.984321 384.642148 544.384735 385.191633 544.329187 387.115036 544.134748 389.032729 543.909355 390.944185 543.653179 391.491576 543.579818 391.875852 543.076598 391.80249 542.529208 391.729128 541.981817 391.225909 541.597541 390.678518 541.670903zM379.277328 542.823518C377.375401 542.95376 375.468666 543.053554 373.557607 543.12276 373.005684 543.142747 372.574465 543.606372 372.594452 544.158295 372.614439 544.710218 373.078064 545.141437 373.629987 545.12145 375.562485 545.051467 377.490642 544.950553 379.413966 544.818845 379.96496 544.781113 380.381042 544.303857 380.34331 543.752862 380.305579 543.201868 379.828322 542.785786 379.277328 542.823518zM367.829054 543.238408L367.077929 543.24C365.410768 543.24 363.751188 543.216979 362.093942 543.17096 361.54187 543.155629 361.0819 543.590744 361.066569 544.142816 361.051239 544.694888 361.486354 545.154859 362.038426 545.170189 363.155595 545.201211 364.273802 545.221898 365.394607 545.232242L367.07796 545.24C367.331211 545.24 367.584372 545.239455 367.83747 545.23839 368.38975 545.236066 368.835577 544.786471 368.833271 544.234191 368.830929 543.681911 368.381334 543.236084 367.829054 543.238408zM356.368797 542.919935C354.460423 542.805474 352.556859 542.660407 350.658604 542.484883 350.108665 542.434032 349.621629 542.838623 349.570778 543.388562 349.519928 543.938501 349.924518 544.425537 350.474457 544.476387 352.39415 544.653894 354.319184 544.800597 356.249057 544.916347 356.800351 544.949413 357.274068 544.529305 357.307133 543.978011 357.340199 543.426717 356.920092 542.953 356.368797 542.919935zM344.947483 541.862978C343.051467 541.625214 341.161636 541.356893 339.278519 541.058197 338.733053 540.971676 338.220727 541.343724 338.134207 541.88919 338.047686 542.434655 338.419735 542.946981 338.9652 543.033502 340.869747 543.335597 342.781069 543.60697 344.698628 543.847435 345.24662 543.916155 345.746564 543.527627 345.815284 542.979634 345.884003 542.431641 345.495475 541.931697 344.947483 541.862978zM333.648 540.070811C331.773831 539.710562 329.907278 539.32002 328.0489 538.899404 327.51024 538.777486 326.974736 539.115323 326.852819 539.653983 326.730901 540.192643 327.068737 540.728147 327.607397 540.850064 329.487019 541.275489 331.3749 541.670493 333.270475 542.034856 333.812831 542.139107 334.337009 541.783952 334.44126 541.241596 334.545511 540.69924 334.190356 540.175061 333.648 540.070811zM322.451268 537.535125C320.605188 537.052818 318.768235 536.54059 316.940993 535.998699 316.411502 535.841672 315.854968 536.143613 315.697941 536.673105 315.540914 537.202596 315.842856 537.759129 316.372347 537.916156 318.220514 538.464253 320.078501 538.982346 321.945717 539.470175 322.480066 539.609779 323.026414 539.289774 323.166018 538.755425 323.305622 538.221076 322.985617 537.674729 322.451268 537.535125zM311.489075 534.284321C309.677783 533.682012 307.877182 533.050279 306.087879 532.389423 305.569801 532.198077 304.994699 532.462947 304.803353 532.981025 304.612007 533.499103 304.876877 534.074205 305.394955 534.265551 307.204742 534.933972 309.025958 535.572938 310.857991 536.182145 311.38206 536.356414 311.948175 536.072844 312.122444 535.548775 312.296713 535.024706 312.013144 534.45859 311.489075 534.284321zM300.744008 530.315525C298.976277 529.595925 297.220828 528.84759 295.478282 528.070863 294.973841 527.846013 294.382633 528.072665 294.157782 528.577106 293.932932 529.081547 294.159584 529.672755 294.664025 529.897605 296.426484 530.683208 298.201999 531.440097 299.989941 532.167925 300.501467 532.376155 301.084944 532.130284 301.293174 531.618758 301.501404 531.107232 301.255534 530.523755 300.744008 530.315525zM290.265723 525.644075C288.547817 524.809714 286.843823 523.947414 285.154372 523.057563 284.665725 522.800188 284.060954 522.987671 283.803578 523.476319 283.546203 523.964966 283.733686 524.569737 284.222333 524.827112 285.931038 525.727104 287.654459 526.599235 289.391957 527.443112 289.888747 527.684396 290.487075 527.477267 290.728358 526.980477 290.969642 526.483686 290.762513 525.885359 290.265723 525.644075zM280.117553 520.298505C278.45729 519.353457 276.812564 518.381425 275.18401 517.382844 274.713188 517.094149 274.097477 517.241793 273.808783 517.712615 273.520088 518.183438 273.667732 518.799148 274.138554 519.087843 275.785613 520.097771 277.449034 521.080851 279.128175 522.036645 279.608149 522.309854 280.218725 522.142238 280.491934 521.662264 280.765143 521.18229 280.597527 520.571714 280.117553 520.298505zM270.34539 514.30649C268.752007 513.256651 267.175723 512.180988 265.617166 511.079974 265.166084 510.761315 264.542086 510.868665 264.223427 511.319747 263.904768 511.770829 264.012119 512.394828 264.463201 512.713486 266.039417 513.826976 267.633567 514.914831 269.245016 515.976573 269.706197 516.280433 270.326385 516.152899 270.630245 515.691719 270.934105 515.230538 270.806571 514.61035 270.34539 514.30649zM261.019668 507.719771C259.497691 506.569317 257.994373 505.39425 256.510329 504.195082 256.080757 503.847971 255.451131 503.914818 255.104019 504.34439 254.756908 504.773962 254.823755 505.403588 255.253327 505.7507 256.754149 506.963425 258.274466 508.151779 259.813658 509.315245 260.254236 509.648276 260.88137 509.561091 261.214401 509.120513 261.547431 508.679935 261.460246 508.052801 261.019668 507.719771zM252.10306 500.514071C250.65876 499.267458 249.234649 497.99754 247.831321 496.704862 247.425111 496.330681 246.792479 496.356645 246.418297 496.762855 246.044116 497.169066 246.07008 497.801698 246.476291 498.175879 247.895461 499.483151 249.335653 500.767409 250.796263 502.028099 251.21435 502.388961 251.845813 502.342571 252.206675 501.924483 252.567537 501.506396 252.521147 500.874933 252.10306 500.514071zM243.666749 492.74186C242.304632 491.402902 240.964225 490.041983 239.646101 488.659683 239.264965 488.259991 238.631979 488.244948 238.232287 488.626084 237.832595 489.00722 237.817552 489.640206 238.198687 490.039898 239.531688 491.437799 240.887222 492.814077 242.264712 494.168146 242.65857 494.555308 243.291712 494.54988 243.678874 494.156022 244.066036 493.762164 244.060607 493.129022 243.666749 492.74186zM235.762653 484.45314C234.490521 483.029697 233.241481 481.585782 232.016072 480.121998 231.661555 479.698517 231.030863 479.642611 230.607382 479.997128 230.183901 480.351645 230.127995 480.982337 230.482513 481.405818 231.721762 482.886135 232.984907 484.346356 234.271404 485.785871 234.639427 486.197668 235.271597 486.233154 235.683394 485.86513 236.095192 485.497107 236.130677 484.864937 235.762653 484.45314zM228.39568 475.651721C227.218977 474.149508 226.066667 472.628367 224.939253 471.088918 224.612937 470.643344 223.987196 470.546666 223.541622 470.872982 223.096048 471.199298 222.99937 471.825038 223.325686 472.270612 224.465855 473.827478 225.631199 475.365824 226.821208 476.885025 227.161775 477.319803 227.790317 477.396176 228.225096 477.055609 228.659874 476.715041 228.736247 476.086499 228.39568 475.651721zM221.614645 466.390581C220.536879 464.813591 219.484781 463.219211 218.458816 461.608072 218.162165 461.142221 217.544035 461.005058 217.078185 461.301709 216.612334 461.598361 216.475171 462.21649 216.771823 462.682341 217.809424 464.311753 218.873451 465.92421 219.963432 467.519073 220.275057 467.975043 220.897315 468.092058 221.353285 467.780434 221.809255 467.468809 221.92627 466.846551 221.614645 466.390581zM215.453029 456.713599C214.48073 455.070873 213.535181 453.412379 212.616802 451.73875 212.351116 451.254571 211.74323 451.077447 211.259051 451.343133 210.774872 451.608819 210.597748 452.216705 210.863434 452.700884 211.792259 454.393549 212.748559 456.070901 213.731909 457.732298 214.013215 458.207572 214.626545 458.364814 215.101819 458.083509 215.577093 457.802203 215.734335 457.188873 215.453029 456.713599zM209.932829 446.651846C209.069809 444.949183 208.234529 443.232369 207.427366 441.502032 207.19389 441.001525 206.59888 440.785053 206.098372 441.018528 205.597865 441.252004 205.381393 441.847014 205.614868 442.347522 206.431238 444.097595 207.276043 445.833986 208.1489 447.556057 208.398591 448.048675 209.000352 448.245607 209.49297 447.995916 209.985588 447.746225 210.18252 447.144464 209.932829 446.651846zM205.095307 436.28209C204.345436 434.527265 203.624141 432.759906 202.931754 430.980632 202.731468 430.465944 202.151867 430.211071 201.637178 430.411357 201.12249 430.611643 200.867617 431.191244 201.067903 431.705932 201.768205 433.505546 202.497745 435.293105 203.256184 437.067983 203.473203 437.575843 204.060832 437.811616 204.568692 437.594598 205.076552 437.37758 205.312325 436.78995 205.095307 436.28209zM200.969408 425.686511C200.335054 423.886444 199.729984 422.075426 199.154489 420.254061 198.988093 419.727438 198.426291 419.435418 197.899669 419.601814 197.373047 419.76821 197.081026 420.330012 197.247422 420.856634 197.829503 422.698845 198.441497 424.530588 199.08311 426.351253 199.266674 426.87214 199.837743 427.145594 200.35863 426.962031 200.879517 426.778467 201.152971 426.207398 200.969408 425.686511zM197.520423 414.771657C197.005342 412.934175 196.520088 411.087312 196.064911 409.231646 195.933342 408.695262 195.391858 408.367095 194.855474 408.498665 194.31909 408.630235 193.990923 409.171719 194.122493 409.708103 194.582875 411.584991 195.07368 413.452982 195.594655 415.311487 195.743725 415.843273 196.295668 416.153526 196.827454 416.004456 197.35924 415.855386 197.669493 415.303443 197.520423 414.771657zM194.78801 403.630034C194.394584 401.76326 194.031358 399.88863 193.698544 398.0067 193.602366 397.462854 193.083525 397.099947 192.539679 397.196125 191.995833 397.292303 191.632926 397.811144 191.729104 398.35499 192.065713 400.258379 192.433083 402.154396 192.830999 404.042477 192.944892 404.582891 193.475313 404.928654 194.015726 404.814761 194.55614 404.700868 194.901903 404.170447 194.78801 403.630034zM192.792032 392.342963C192.521385 390.45516 192.281138 388.560967 192.071466 386.660907 192.01089 386.111954 191.516768 385.716048 190.967816 385.776625 190.418863 385.837202 190.022957 386.331323 190.083534 386.880275 190.295582 388.801872 190.538554 390.717555 190.812275 392.626793 190.890652 393.173488 191.397374 393.553135 191.944069 393.474757 192.490764 393.396379 192.87041 392.889658 192.792032 392.342963zM191.534256 380.94241C191.386724 379.041452 191.269632 377.135494 191.183124 375.225024 191.158142 374.673305 190.690632 374.2463 190.138913 374.271283 189.587193 374.296265 189.160189 374.763774 189.185171 375.315494 189.272651 377.247415 189.391059 379.174804 189.540252 381.097163 189.582987 381.647792 190.064002 382.059523 190.614631 382.016789 191.16526 381.974054 191.57699 381.493039 191.534256 380.94241zM191.015671 369.494227C191.005242 368.704635 191.000016 367.9144 191 367.123556 190.999989 366.571271 190.552265 366.123576 189.99998 366.123576 189.447696 366.123576 189 366.571311 189 367.123595 189 367.923231 189.0053 368.722257 189.015845 369.52064 189.023139 370.072877 189.476728 370.51464 190.028964 370.507346 190.581201 370.500053 191.022964 370.046464 191.015671 369.494227zM451.236615 210.086055C497.171329 234.754323 530.33545 278.523246 541.29441 329.725648L541.619694 331.279499 539.660306 331.680501C529.269385 280.908073 496.826667 237.36512 451.662858 212.592964L450.290373 211.84805 451.236615 210.086055zM253.506471 323.601692L255.37393 324.317651C250.203653 337.803467 247.52 352.185824 247.52 366.94 247.52 432.798032 300.981882 486.18 366.94 486.18 432.238537 486.18 485.289513 433.860333 486.344002 368.911957L486.36 366.94 488.36 366.94C488.36 433.903271 434.002019 488.18 366.94 488.18 299.877981 488.18 245.52 433.903271 245.52 366.94 245.52 352.281008 248.126288 337.980113 253.151922 324.538107L253.506471 323.601692zM544.6 343.44C537.687751 343.44 532.08 349.047679 532.08 355.96 532.08 362.872178 537.687822 368.48 544.6 368.48 551.512321 368.48 557.12 362.872249 557.12 355.96 557.12 349.047609 551.512391 343.44 544.6 343.44zM544.6 345.44C550.407822 345.44 555.12 350.152178 555.12 355.96 555.12 361.767685 550.407745 366.48 544.6 366.48 538.792391 366.48 534.08 361.767609 534.08 355.96 534.08 350.152255 538.792315 345.44 544.6 345.44zM213.04 188.82C206.127751 188.82 200.52 194.427679 200.52 201.34 200.52 208.252178 206.127822 213.86 213.04 213.86 219.952321 213.86 225.56 208.252249 225.56 201.34 225.56 194.427609 219.952391 188.82 213.04 188.82zM213.04 190.82C218.847822 190.82 223.56 195.532178 223.56 201.34 223.56 207.147685 218.847745 211.86 213.04 211.86 207.232391 211.86 202.52 207.147609 202.52 201.34 202.52 195.532255 207.232315 190.82 213.04 190.82z" opacity=".1"/>
        <path fill="#1C1C1C" d="M366,85 C521.744299,85 648,211.255701 648,367 C648,522.744299 521.744299,649 366,649 C354.954305,649 346,640.045695 346,629 C346,618.069364 354.768729,609.186775 365.655511,609.002907 L366,609 C499.652909,609 608,500.652909 608,367 C608,233.347091 499.652909,125 366,125 C233.68362,125 126.169472,231.190983 124.032421,362.998088 L124,367 C124,378.045695 115.045695,387 104,387 C92.954305,387 84,378.045695 84,367 C84,211.255701 210.255701,85 366,85 Z" opacity=".5" transform="rotate(-90 366 367)"/>
      </g>
    </g>
  </g>
</svg>
