<svg xmlns="http://www.w3.org/2000/svg" width="390" height="320" viewBox="0 0 390 320">
    <g fill="none" fill-rule="evenodd" opacity=".1">
        <g fill="#FFF">
            <g>
                <path d="M297 453.093l347.575 183.351c9.116 4.763 10.778 17.093 3.248 24.095h-.177c-10.92 9.88-23.13 18.238-36.296 24.844-112.319 56.373-243.615-29.831-236.337-155.169l46.477 32.058c13.911 73.166 91.304 115.387 160.456 87.532L297 453.094zm140.524 51.139l233.45 92.162c6.767 2.654 10.42 9.998 8.444 16.987v.295c-2.498 8.727-12.46 12.882-20.433 8.523l-221.46-117.967zm85.957-120.71c44.026-3.775 99.037 12.77 131.813 54.973 27.609 35.626 33.308 79.156 31.359 124.101v-.118c-.777 9.535-10.554 15.607-19.46 12.092L508.51 511.93l147.315 39.46c2.528-25.92-3.57-51.95-17.35-74.06-48.234-77.381-162.251-73.595-205.232 6.818-2.463 4.633-4.622 9.42-6.467 14.333l-39.509-21.028c1.122-1.651 2.304-3.214 3.485-4.807 1.89-3.922 3.927-7.904 6.171-11.797 26.192-45.3 70.04-71.96 116.282-76.236 3.425-.295 6.85-.796 10.275-1.091z" transform="translate(-297 -2676) translate(0 2293)"/>
            </g>
        </g>
    </g>
</svg>
