<svg xmlns="http://www.w3.org/2000/svg" xmlns:xlink="http://www.w3.org/1999/xlink" width="1920" height="1678" viewBox="0 0 1920 1678">
    <defs>
        <filter id="fw58gw6x8b">
            <feColorMatrix in="SourceGraphic" values="0 0 0 0 1.000000 0 0 0 0 1.000000 0 0 0 0 1.000000 0 0 0 1.000000 0"/>
        </filter>
        <path id="1iloj263ba" d="M0 0H1920V1678H0z"/>
    </defs>
    <g fill="none" fill-rule="evenodd">
        <g>
            <mask id="uuzfvsiz4c" fill="#fff">
                <use xlink:href="#1iloj263ba"/>
            </mask>
            <g filter="url(#fw58gw6x8b)" opacity=".1">
                <g mask="url(#uuzfvsiz4c)">
                    <g stroke="#0D0D0D" stroke-width="2">
                        <path d="M231.792 1663C86.95 1487.317 0 1262.175 0 1016.762 0 455.212 455.319 0 1017 0c561.683 0 1017 455.212 1017 1016.762M1017 2034c-245.75 0-471.181-87.056-647-232M1572 1708c-151.85 121.98-344.773 195-554.798 195-168.125 0-325.293-46.781-459.202-128.026" transform="translate(-57 -489)"/>
                        <path d="M1840.173 689C1880.699 790.498 1903 901.16 1903 1017.076c0 209.15-72.582 401.382-194 552.924M259 1476c-81.21-133.817-128-290.937-128-459M1664.312 629.504C1732.06 742.703 1771 875.146 1771 1016.694c0 122.409-29.145 238.054-80.831 340.306" transform="translate(-57 -489)"/>
                        <path stroke-dasharray="16" d="M1359 1690.08c-102.78 52.38-219.143 81.92-342.428 81.92C599.817 1772 262 1434.203 262 1017.467c0-135.036 35.5-261.806 97.622-371.467" transform="translate(-57 -489)"/>
                        <path stroke-dasharray="16" stroke-linecap="round" d="M669 500.473C768.441 433.264 888.32 394 1017.386 394c255.83 0 475.662 154.296 571.614 375" transform="translate(-57 -489)"/>
                        <path d="M425.816 1214C405.159 1152.072 394 1085.816 394 1016.933c0-145.27 49.713-278.901 133-384.933M1597 1246c-91.445 230.761-316.67 394-580 394" transform="translate(-57 -489)"/>
                        <path stroke-dasharray="16" stroke-linecap="round" d="M1499 1114.888C1453.622 1339.745 1254.988 1509 1016.868 1509 745.22 1509 525 1288.72 525 1017" transform="translate(-57 -489)"/>
                        <path d="M1249.343 583.242C1375.916 651.215 1469.323 772.994 1499 918M1351 1016.5c0 184.474-149.75 334-334.5 334S682 1200.974 682 1016.5c0-42.067 7.787-82.316 22-119.39M344 1739c0 26.5-21.5 48-48 48s-48-21.5-48-48 21.5-48 48-48 48 21.5 48 48zM1542 986c0 17.666-14.333 32-32 32-17.666 0-32-14.334-32-32 0-17.667 14.334-32 32-32 17.667 0 32 14.333 32 32zM1689 1641c0 26.5-21.5 48-48 48s-48-21.5-48-48 21.5-48 48-48 48 21.5 48 48zM621 556.5c0 17.666-14.333 32-32 32-17.666 0-32-14.334-32-32 0-17.667 14.334-32 32-32 17.667 0 32 14.333 32 32z" transform="translate(-57 -489)"/>
                    </g>
                </g>
            </g>
            <path stroke="#1C1C1C" stroke-linecap="round" stroke-width="96" d="M960 1257c402.616 0 729-326.384 729-729s-326.384-729-729-729-729 326.384-729 729" mask="url(#uuzfvsiz4c)" opacity=".5" transform="rotate(-90 960 528)"/>
        </g>
    </g>
</svg>
