<svg xmlns="http://www.w3.org/2000/svg" width="40" height="40" viewBox="0 0 40 40">
  <path fill-rule="evenodd" d="M20,4 C28.836,4 36,11.164 36,20 C36,28.836 28.836,36 20,36 C11.164,36 4,28.836 4,20 C4,11.164 11.164,4 20,4 Z M20,6 C12.2685695,6 6,12.2685695 6,20 C6,27.7314305 12.2685695,34 20,34 C27.7314305,34 34,27.7314305 34,20 C34,12.2685695 27.7314305,6 20,6 Z M19.4363719,13.4966307 C19.8299265,13.1934645 20.3968364,13.2236414 20.7557217,13.5855059 L20.7557217,13.5855059 L25.7100234,18.5809324 L24.2899766,19.9892886 L21,16.673 L21,26 L19,26 L19,16.733 L15.7038828,20.0000001 L14.2961172,18.5793679 L19.3418155,13.5793679 Z"/>
</svg>
