<svg xmlns="http://www.w3.org/2000/svg" width="40" height="40" viewBox="0 0 40 40">
  <path fill="#0D0D0D" d="M20,4 C28.836,4 36,11.164 36,20 C36,28.836 28.836,36 20,36 C11.164,36 4,28.836 4,20 C4,11.164 11.164,4 20,4 Z M20,6 C12.2685695,6 6,12.2685695 6,20 C6,27.7314305 12.2685695,34 20,34 C27.7314305,34 34,27.7314305 34,20 C34,12.2685695 27.7314305,6 20,6 Z M26.0574126,15.2928932 L27.4716262,16.7071068 L18.0464454,26.1322875 L13.2928932,21.3787353 L14.7071068,19.9645218 L18.046,23.303 L26.0574126,15.2928932 Z"/>
</svg>
