<svg xmlns="http://www.w3.org/2000/svg" width="80" height="80" viewBox="0 0 80 80">
  <defs>
    <filter id="6-a">
      <feColorMatrix in="SourceGraphic" values="0 0 0 0 0.050980 0 0 0 0 0.050980 0 0 0 0 0.050980 0 0 0 1.000000 0"/>
    </filter>
  </defs>
  <g fill="none" fill-rule="evenodd">
    <polygon fill="#00C65E" points="69 17 63 17 63 11 58 9 54 14 50 9 45 11 45 17 39 17 37 22 42 26 37 30 39 35 45 35 45 41 50 43 54 38 58 43 63 41 63 35 69 35 71 30 66 26 71 22"/>
    <g filter="url(#6-a)">
      <g transform="translate(9 9)">
        <path stroke="#222829" stroke-linejoin="round" stroke-width="2" d="M48 17C48 18.656 46.656 20 45 20 43.344 20 42 18.656 42 17 42 15.344 43.344 14 45 14 46.656 14 48 15.344 48 17zM4 33L4 6C4 4.896 4.896 4 6 4L33 4M58 29L58 56C58 57.104 57.104 58 56 58L29 58"/>
        <line x1="7" x2="21" y1="8" y2="8" stroke="#222829" stroke-linejoin="round" stroke-width="2"/>
        <line x1="7" x2="9" y1="12" y2="12" stroke="#222829" stroke-linejoin="round" stroke-width="2"/>
        <line x1="11" x2="13" y1="12" y2="12" stroke="#222829" stroke-linejoin="round" stroke-width="2"/>
        <line x1="15" x2="17" y1="12" y2="12" stroke="#222829" stroke-linejoin="round" stroke-width="2"/>
        <line x1="30" x2="32" y1="31" y2="31" stroke="#222829" stroke-linejoin="round" stroke-width="2"/>
        <line x1="55" x2="41" y1="54" y2="54" stroke="#222829" stroke-linejoin="round" stroke-width="2"/>
        <line x1="55" x2="53" y1="50" y2="50" stroke="#222829" stroke-linejoin="round" stroke-width="2"/>
        <line x1="51" x2="49" y1="50" y2="50" stroke="#222829" stroke-linejoin="round" stroke-width="2"/>
        <line x1="47" x2="45" y1="50" y2="50" stroke="#222829" stroke-linejoin="round" stroke-width="2"/>
        <path stroke="#222829" stroke-width="2" d="M14,48 C14,49.656 15.344,51 17,51 C18.656,51 20,49.656 20,48 C20,46.344 17,45 17,45 C17,45 14,43.656 14,42 C14,40.344 15.344,39 17,39 C18.656,39 20,40.344 20,42"/>
        <line x1="17" x2="17" y1="39" y2="36" stroke="#222829" stroke-width="2"/>
        <line x1="17" x2="17" y1="51" y2="54" stroke="#222829" stroke-width="2"/>
        <line x1="23" x2="25" y1="45" y2="45" stroke="#222829" stroke-width="2"/>
        <line x1="9" x2="11" y1="45" y2="45" stroke="#222829" stroke-width="2"/>
        <polygon stroke="#222829" stroke-linejoin="round" stroke-width="2" points="60 8 54 8 54 2 49 0 45 5 41 0 36 2 36 8 30 8 28 13 33 17 28 21 30 26 36 26 36 32 41 34 45 29 49 34 54 32 54 26 60 26 62 21 57 17 62 13"/>
        <polygon stroke="#222829" stroke-linejoin="round" stroke-width="2" points="32 36 26 36 26 30 21 28 17 33 13 28 8 30 8 36 2 36 0 41 5 45 0 49 2 54 8 54 8 60 13 62 17 57 21 62 26 60 26 54 32 54 34 49 29 45 34 41"/>
      </g>
    </g>
  </g>
</svg>
