<svg xmlns="http://www.w3.org/2000/svg" xmlns:xlink="http://www.w3.org/1999/xlink" width="80" height="80" viewBox="0 0 80 80">
  <defs>
    <filter id="5-a">
      <feColorMatrix in="SourceGraphic" values="0 0 0 0 0.050980 0 0 0 0 0.050980 0 0 0 0 0.050980 0 0 0 1.000000 0"/>
    </filter>
    <polygon id="5-b" points="0 58 64 58 64 0 0 0"/>
  </defs>
  <g fill="none" fill-rule="evenodd">
    <polygon fill="#00C65E" points="13 50 46 50 46 16 13 16"/>
    <g filter="url(#5-a)">
      <g transform="translate(8 11)">
        <polygon stroke="#222829" stroke-linejoin="round" stroke-width="2" points="20 32 11 27 11 17 20 22"/>
        <polyline stroke="#222829" stroke-linejoin="round" stroke-width="2" points="20 22 29 17 29 27 20 32"/>
        <polyline stroke="#222829" stroke-linejoin="round" stroke-width="2" points="29 17 20 12 11 17"/>
        <line x1="34" x2="54" y1="16" y2="16" stroke="#222829" stroke-linejoin="round" stroke-width="2"/>
        <line x1="34" x2="54" y1="22" y2="22" stroke="#222829" stroke-linejoin="round" stroke-width="2"/>
        <line x1="34" x2="54" y1="28" y2="28" stroke="#222829" stroke-linejoin="round" stroke-width="2"/>
        <line x1="39" x2="39" y1="14" y2="18" stroke="#222829" stroke-linejoin="round" stroke-width="2"/>
        <line x1="49" x2="49" y1="20" y2="24" stroke="#222829" stroke-linejoin="round" stroke-width="2"/>
        <line x1="43" x2="43" y1="26" y2="30" stroke="#222829" stroke-linejoin="round" stroke-width="2"/>
        <path stroke="#222829" stroke-width="2" d="M4.0002,1 C2.3442,1 1.0002,2.343 1.0002,4 L1.0002,44 C1.0002,45.657 2.3442,47 4.0002,47 L60.0002,47 C61.6562,47 63.0002,45.657 63.0002,44 L63.0002,4 C63.0002,2.343 61.6562,1 60.0002,1 L4.0002,1 Z"/>
        <line x1="38" x2="40" y1="47" y2="57" stroke="#222829" stroke-width="2"/>
        <line x1="24" x2="26" y1="57" y2="47" stroke="#222829" stroke-width="2"/>
        <line x1="19" x2="45" y1="57" y2="57" stroke="#222829" stroke-width="2"/>
        <line x1="31" x2="33" y1="43" y2="43" stroke="#222829" stroke-width="2"/>
        <mask id="5-c" fill="#fff">
          <use xlink:href="#5-b"/>
        </mask>
        <polygon stroke="#222829" stroke-width="2" points="5 39 59 39 59 5 5 5" mask="url(#5-c)"/>
      </g>
    </g>
  </g>
</svg>
