<svg xmlns="http://www.w3.org/2000/svg" width="24" height="24" viewBox="0 0 24 24">
    <g fill-rule="evenodd">
        <path d="M17.558 4c.952 0 1.72.758 1.765 1.65V20l-1.813-1.515-.996-.892-1.086-.932.454 1.47H6.376c-.95 0-1.72-.71-1.72-1.651V5.653c0-.892.772-1.651 1.724-1.651zm-6.882 3.788h-.056c-.241.005-1.236.073-2.3.847 0 0-1.221 2.096-1.221 4.68 0 0 .677 1.16 2.535 1.204 0 0 .27-.356.545-.668-1.043-.312-1.45-.936-1.45-.936l.35.177c1.02.414 2.099.936 4.021.624.406-.09.813-.178 1.219-.357.264-.133.59-.266.946-.491 0 0-.407.624-1.493.936.224.31.538.667.538.667 1.858-.04 2.58-1.2 2.62-1.151 0-2.58-1.228-4.68-1.228-4.68-1.1-.803-2.126-.84-2.32-.84l-.124.122c1.404.4 2.083 1.025 2.083 1.025-2.036-1.003-4.235-1.06-6.25-.268-.316.135-.497.224-.497.224s.678-.668 2.173-1.025l-.091-.09zm2.852 2.943c.476 0 .86.4.86.89 0 .493-.386.893-.86.893s-.86-.4-.86-.89c.002-.493.388-.891.86-.891zm-3.076 0c.474 0 .858.4.858.89 0 .493-.386.893-.86.893s-.86-.4-.86-.89c0-.493.386-.891.86-.891z"/>
    </g>
</svg>
