<svg xmlns="http://www.w3.org/2000/svg" width="24" height="24" viewBox="0 0 24 24">
    <defs>
        <filter id="qxevq17k4a">
            <feColorMatrix in="SourceGraphic" values="0 0 0 0 1.000000 0 0 0 0 1.000000 0 0 0 0 1.000000 0 0 0 1.000000 0"/>
        </filter>
    </defs>
    <g fill="none" fill-rule="evenodd">
        <g>
            <g>
                <g filter="url(#qxevq17k4a)" transform="translate(-28 -286) translate(28 284) translate(0 2)">
                    <g fill="#000" fill-rule="nonzero">
                        <path d="M1.72 14.13h9.506l-.454-1.47 1.086.933.995.892L14.667 16V1.65C14.62.758 13.853 0 12.9 0L1.723.002C.772.002 0 .762 0 1.653V12.48c0 .94.77 1.65 1.72 1.65zm1.945-9.495c1.222-.89 2.354-.847 2.354-.847l.092.09c-1.496.357-2.174 1.025-2.174 1.025s.182-.089.498-.224c2.014-.792 4.214-.735 6.25.268 0 0-.68-.625-2.083-1.025l.124-.122c.194 0 1.22.037 2.32.84 0 0 1.229 2.1 1.229 4.68-.041-.05-.763 1.11-2.621 1.15 0 0-.315-.355-.539-.666 1.087-.312 1.494-.936 1.494-.936-.357.225-.682.358-.946.491-.406.179-.813.267-1.219.357-1.923.312-3.002-.21-4.022-.624l-.349-.177s.406.624 1.45.936c-.274.312-.546.668-.546.668-1.857-.044-2.534-1.204-2.534-1.204 0-2.584 1.222-4.68 1.222-4.68z" transform="translate(4.656 4)"/>
                        <path d="M8.872 8.514c.474 0 .86-.4.86-.893 0-.49-.384-.89-.86-.89v.002c-.472 0-.859.398-.86.892 0 .489.386.889.86.889zM5.793 8.514c.474 0 .86-.4.86-.893 0-.49-.383-.89-.857-.89l-.003.002c-.474 0-.86.398-.86.892 0 .489.386.889.86.889z" transform="translate(4.656 4)"/>
                    </g>
                </g>
            </g>
        </g>
    </g>
</svg>
