<svg xmlns="http://www.w3.org/2000/svg" width="32" height="32" viewBox="0 0 32 32">
    <defs>
        <filter id="v1n7nxxhfa">
            <feColorMatrix in="SourceGraphic" values="0 0 0 0 0.109804 0 0 0 0 0.109804 0 0 0 0 0.109804 0 0 0 1.000000 0"/>
        </filter>
    </defs>
    <g fill="none" fill-rule="evenodd">
        <g>
            <g>
                <g filter="url(#v1n7nxxhfa)" transform="translate(-794 -2522) translate(0 2342) translate(794 180)">
                    <g fill="#000" fill-rule="nonzero">
                        <path d="M2.293 18.84h12.675l-.605-1.96 1.448 1.244 1.327 1.189 2.418 2.02V2.2C19.496 1.01 18.47 0 17.202 0L2.298.003C1.029.003 0 1.015 0 2.204V16.64c0 1.254 1.028 2.2 2.293 2.2zM4.886 6.18c1.63-1.186 3.14-1.13 3.14-1.13l.122.12C6.154 5.647 5.25 6.538 5.25 6.538s.242-.118.664-.299c2.685-1.056 5.618-.98 8.332.358 0 0-.906-.833-2.777-1.367l.166-.162c.258 0 1.627.049 3.092 1.12 0 0 1.64 2.8 1.64 6.24-.055-.066-1.018 1.48-3.495 1.534 0 0-.42-.475-.718-.889 1.449-.416 1.99-1.248 1.99-1.248-.475.3-.908.477-1.26.655-.542.238-1.084.356-1.625.476-2.564.416-4.003-.28-5.363-.832l-.465-.237s.541.832 1.933 1.248c-.366.417-.728.89-.728.89-2.476-.058-3.38-1.604-3.38-1.604 0-3.446 1.63-6.24 1.63-6.24z" transform="translate(6.208 5.333)"/>
                        <path d="M11.83 11.352c.631 0 1.146-.533 1.146-1.191 0-.653-.512-1.187-1.147-1.187v.003c-.629 0-1.145.531-1.146 1.19 0 .652.514 1.185 1.146 1.185zM7.724 11.352c.632 0 1.147-.533 1.147-1.191 0-.653-.511-1.187-1.143-1.187l-.004.003c-.632 0-1.146.531-1.146 1.19 0 .652.514 1.185 1.146 1.185z" transform="translate(6.208 5.333)"/>
                    </g>
                </g>
            </g>
        </g>
    </g>
</svg>
