<svg xmlns="http://www.w3.org/2000/svg" width="80" height="80" viewBox="0 0 80 80">
  <g fill="none" fill-rule="evenodd">
    <polygon fill="#00C65E" points="21 11 21 37 42 37 42 11"/>
    <g stroke="#222829" stroke-linejoin="round" stroke-width="2" transform="translate(13 10)">
      <polyline points="29 27 8 27 8 1 46 1 46 16"/>
      <line x1="12" x2="12" y1="12" y2="14"/>
      <line x1="12" x2="12" y1="8" y2="10"/>
      <line x1="16" x2="16" y1="6" y2="14"/>
      <line x1="20" x2="20" y1="12" y2="14"/>
      <line x1="24" x2="24" y1="6" y2="14"/>
      <line x1="30" x2="30" y1="6" y2="14"/>
      <line x1="34" x2="34" y1="6" y2="8"/>
      <line x1="38" x2="38" y1="6" y2="8"/>
      <line x1="34" x2="34" y1="10" y2="12"/>
      <line x1="38" x2="38" y1="12" y2="16"/>
      <line x1="42" x2="42" y1="6" y2="14"/>
      <line x1="34" x2="34" y1="14" y2="20"/>
      <line x1="12" x2="12" y1="16" y2="24"/>
      <line x1="16" x2="16" y1="22" y2="24"/>
      <line x1="26" x2="26" y1="22" y2="24"/>
      <line x1="30" x2="30" y1="20" y2="22"/>
      <line x1="30" x2="30" y1="16" y2="18"/>
      <line x1="16" x2="16" y1="16" y2="18"/>
      <line x1="22" x2="22" y1="16" y2="24"/>
      <g transform="translate(0 .5)">
        <line x1="50" x2="50" y1="3.5" y2=".5"/>
        <line x1="4" x2="4" y1="3.5" y2=".5"/>
        <path d="M50.4997,29.5 C50.4997,33.918 46.9187,37.5 42.4997,37.5 C38.0817,37.5 34.4997,33.918 34.4997,29.5 C34.4997,25.082 38.0817,21.5 42.4997,21.5 C46.9187,21.5 50.4997,25.082 50.4997,29.5 Z"/>
        <line x1="7" x2="21" y1="40.5" y2="40.5"/>
        <line x1="7" x2="31" y1="44.5" y2="44.5"/>
        <line x1="7" x2="31" y1="48.5" y2="48.5"/>
        <polyline points="35 56.5 0 56.5 0 16.5"/>
        <line x1="45" x2="51" y1="56.5" y2="56.5"/>
        <line x1="45" x2="47.667" y1="52.5" y2="52.5"/>
        <line x1="45" x2="49" y1="48.5" y2="48.5"/>
        <polyline points="54 17.5 54 .5 0 .5 0 12.5"/>
        <polyline points="44.5 38 44.5 60 40.5 60 40.5 38"/>
      </g>
    </g>
  </g>
</svg>
