<svg xmlns="http://www.w3.org/2000/svg" width="40" height="40" viewBox="0 0 40 40">
  <path fill-rule="evenodd" d="M20,4 C28.836,4 36,11.164 36,20 C36,28.836 28.836,36 20,36 C11.164,36 4,28.836 4,20 C4,11.164 11.164,4 20,4 Z M20,6 C12.2685695,6 6,12.2685695 6,20 C6,27.7314305 12.2685695,34 20,34 C27.7314305,34 34,27.7314305 34,20 C34,12.2685695 27.7314305,6 20,6 Z M24.9497475,13.636039 L26.363961,15.0502525 L21.4142136,20 L26.363961,24.9497475 L24.9497475,26.363961 L20,21.4142136 L15.0502525,26.363961 L13.636039,24.9497475 L18.5857864,20 L13.636039,15.0502525 L15.0502525,13.636039 L20,18.5857864 L24.9497475,13.636039 Z"/>
</svg>
