<svg xmlns="http://www.w3.org/2000/svg" width="32" height="32" viewBox="0 0 32 32">
  <path fill-rule="evenodd" d="M15,9 L15,11 L9,11 C8.48716416,11 8.06449284,11.3860402 8.00672773,11.8833789 L8,12 L8,23 C8,23.5128358 8.38604019,23.9355072 8.88337887,23.9932723 L9,24 L20,24 C20.5128358,24 20.9355072,23.6139598 20.9932723,23.1166211 L21,23 L21,17 L23,17 L23,23 C23,24.5976809 21.75108,25.9036609 20.1762728,25.9949073 L20,26 L9,26 C7.40231912,26 6.09633912,24.75108 6.00509269,23.1762728 L6,23 L6,12 C6,10.4023191 7.24891996,9.09633912 8.82372721,9.00509269 L9,9 L15,9 Z M25.1090164,5.97448598 C25.6186634,5.97237947 26.0408675,6.35190694 26.1047818,6.84456297 L26.1131393,6.96992843 L26.1454529,14.0733099 L24.1454736,14.0824079 L24.123,9.28947725 L17.4644661,15.9497475 L16.0502525,14.5355339 L22.599,7.98547725 L18.0817626,8.00354859 L18.0734961,6.00356568 L25.1090164,5.97448598 Z"/>
</svg>
