<svg xmlns="http://www.w3.org/2000/svg" width="24" height="24" viewBox="0 0 24 24">
  <path fill-rule="evenodd" d="M12,5.0203252 C7.58,5.0203252 4,8.45447154 4,12.6899187 C4,16.079187 6.292,18.9533333 9.47,19.9666667 C9.87,20.0388618 10.0166667,19.8014634 10.0166667,19.5978862 C10.0166667,19.4157724 10.01,18.9331707 10.0066667,18.2938211 C7.78133333,18.7562602 7.312,17.264878 7.312,17.264878 C6.948,16.3796748 6.422,16.1429268 6.422,16.1429268 C5.69733333,15.6674797 6.478,15.6772358 6.478,15.6772358 C7.28133333,15.7305691 7.70333333,16.4674797 7.70333333,16.4674797 C8.41666667,17.6401626 9.576,17.3013008 10.0333333,17.1055285 C10.1053333,16.6092683 10.3113333,16.2717073 10.54,16.0798374 C8.76333333,15.8879675 6.896,15.2284553 6.896,12.2899187 C6.896,11.4528455 7.206,10.7686179 7.71933333,10.2320325 C7.62933333,10.0382114 7.35933333,9.25837398 7.78933333,8.20211382 C7.78933333,8.20211382 8.45933333,7.99658537 9.98933333,8.98845528 C10.6293333,8.81804878 11.3093333,8.73349593 11.9893333,8.7295935 C12.6693333,8.73349593 13.3493333,8.81804878 13.9893333,8.98845528 C15.5093333,7.99658537 16.1793333,8.20211382 16.1793333,8.20211382 C16.6093333,9.25837398 16.3393333,10.0382114 16.2593333,10.2320325 C16.7693333,10.7686179 17.0793333,11.4528455 17.0793333,12.2899187 C17.0793333,15.2362602 15.2093333,15.8847154 13.4293333,16.0733333 C13.7093333,16.3035772 13.9693333,16.7738211 13.9693333,17.4925203 C13.9693333,18.5188618 13.9593333,19.3435772 13.9593333,19.5926829 C13.9593333,19.7936585 14.0993333,20.0336585 14.5093333,19.9569106 C17.71,18.9500813 20,16.0739837 20,12.6899187 C20,8.45447154 16.418,5.0203252 12,5.0203252 L12,5.0203252 Z"/>
</svg>
