<svg xmlns="http://www.w3.org/2000/svg" width="24" height="24" viewBox="0 0 24 24">
  <path fill-rule="evenodd" d="M5.098,10.7753333 C5.098,8.35 7.672,7.196 9.56866667,8.30333333 C10.232,8.30333333 10.884,8.12533333 11.49,7.882 L11.49,7.882 L11.49,9.68533333 C11.2613333,9.764 11.032,9.82866667 10.796,9.882 C11.2993333,11.256 10.5046667,13.2013333 8.55733333,13.5673333 C8.11733333,13.66 7.86333333,13.846 7.86333333,14.328 C7.86333333,15.696 11.424,14.7673333 11.424,17.2853333 C11.424,19.332 10.06,20 8.226,20 C6.72,20 5,19.4893333 5,17.65 C5,16.5826667 5.634,15.9646667 6.59666667,15.644 L6.59666667,15.644 L6.59666667,15.608 C5.71533333,15.0653333 5.89866667,13.5546667 6.56133333,13.258 L6.56133333,13.258 L6.56133333,13.222 C5.66933333,12.9186667 5.09866667,11.6793333 5.09866667,10.7753333 L5.09866667,10.7753333 Z M8.19066667,16.6253333 L8.07905516,16.6275183 C7.47745559,16.6442814 6.79047059,16.8087843 6.78733333,17.5573333 C6.78733333,18.3606667 7.704,18.4573333 8.314,18.4573333 C8.956,18.4573333 9.64333333,18.2966667 9.64333333,17.518 C9.64333333,16.7326667 8.79,16.6253333 8.19066667,16.6253333 L8.19066667,16.6253333 Z M17.918,6.50666667 C17.8473333,7 17.8653333,7.48866667 17.8653333,7.978 L17.8653333,7.978 L19.664,7.978 L19.664,9.67533333 C19.664,9.67533333 18.9833333,9.63933333 17.8653333,9.63933333 L17.8653333,9.63933333 L17.8653333,12.8926667 C17.8653333,13.4213333 17.982,14.0646667 18.634,14.0646667 C18.9793333,14.0646667 19.3846667,13.9646667 19.6666667,13.768 L19.6666667,13.768 L19.6666667,15.518 C19.198,15.7786667 18.5913333,15.868 18.062,15.867337 C16.176,15.867337 15.954,14.36 15.954,12.8066667 L15.954,12.8066667 L15.954,9.67466667 L15.9713333,9.67466667 L15.9713333,9.63866667 C15.7246667,9.63866667 15.714,9.582 15.1253333,9.67466667 L15.1253333,9.67466667 L15.1253333,7.978 L15.9713333,7.978 L15.9713333,7.978 L15.9714936,7.27606361 C15.9693058,6.94861157 15.9589697,6.73830303 15.9186667,6.50666667 L15.9186667,6.50666667 Z M14.3013333,7.97133333 C14.2733922,8.20133333 14.2590755,9.61744925 14.2566661,11.1834698 L14.2566356,12.1327809 C14.2590727,13.8229504 14.2746667,15.4478824 14.3013333,15.75 L14.3013333,15.75 L12.344,15.75 C12.374,15.408 12.3899862,13.3959239 12.3889908,11.4995966 L12.3880261,10.8742242 C12.3842884,9.43645675 12.3700784,8.1887451 12.344,7.97133333 L12.344,7.97133333 Z M9.12533333,10.7766667 C9.12533333,9.05133333 6.97466667,9.03333333 6.97466667,10.794 C6.97466667,11.5366667 7.30266667,12.0006667 8.078,12.0006667 L8.078,12.0006667 C8.84266667,12.0013333 9.12466667,11.5013333 9.12533333,10.7766667 Z M13.328,4 C14.0253333,4 14.5193333,4.64333333 14.5193333,5.31066667 C14.5193333,5.97933333 14.008,6.604 13.328,6.604 C12.63,6.604 12.112,5.98933333 12.112,5.31066667 C12.112,4.62066667 12.6233333,4 13.328,4 Z"/>
</svg>
