<svg xmlns="http://www.w3.org/2000/svg" width="32" height="32" viewBox="0 0 32 32">
  <path fill-rule="evenodd" d="M16.0282136,6 C21.551061,6 26.0282135,10.4771526 26.0282135,16 C26.0282135,21.5228474 21.551061,26 16.0282136,26 L16.0282136,26 L7.02821361,26 C6.62326982,26.0170498 6.24808191,25.7879877 6.07821361,25.42 C5.92161688,25.0476029 6.00446904,24.6175607 6.28821361,24.33 L6.28821361,24.33 L8.28821361,22.33 C6.81900581,20.5485381 6.01947144,18.3091344 6.02821361,16 C6.02821361,10.4771525 10.5053661,6 16.0282136,6 Z M19.0784296,8.60691339 C15.5515371,7.1487988 11.4857836,8.38498377 9.36744069,11.5595219 C7.24909779,14.7340601 7.66809693,18.9628832 10.3682136,21.66 C10.5566279,21.8446305 10.6644566,22.0962307 10.6682136,22.36 C10.6671042,22.6272459 10.5590693,22.8829286 10.3682136,23.07 L10.3682136,23.07 L9.43821361,24 L16.0282136,24 C19.8446334,23.996999 23.1275213,21.298638 23.8693403,17.5550069 C24.6111593,13.8113758 22.6053222,10.065028 19.0784296,8.60691339 Z M16.0282136,18 C16.5804984,18 17.0282136,18.4477153 17.0282136,19 C17.0282136,19.5522847 16.5804984,20 16.0282136,20 C15.4759289,20 15.0282136,19.5522847 15.0282136,19 C15.0282136,18.4477153 15.4759289,18 16.0282136,18 Z M17,12 L17,17 L15,17 L15,12 L17,12 Z"/>
</svg>
