<svg xmlns="http://www.w3.org/2000/svg" width="83" height="84" viewBox="0 0 83 84">
  <g fill="none" fill-rule="evenodd" transform="translate(1.717 1.987)">
    <circle cx="45.283" cy="35.013" r="32" fill="#00C65E"/>
    <path stroke="#0D0D0D" stroke-width="2" d="M66.9650516,64.7590969 C70.2005407,59.7585671 72.0789302,53.798026 72.0789302,47.3987635 C72.0789302,29.7256515 57.7520422,15.3987635 40.0789302,15.3987635 C22.4058182,15.3987635 8.07893022,29.7256515 8.07893022,47.3987635" transform="rotate(-135 40.079 40.079)"/>
    <path fill="#0D0D0D" fill-rule="nonzero" d="M17.4969298,9.4969297 L17.4960469,19.1129297 L20.7869064,15.797325 L22.2069531,17.2056813 L17.2526515,22.2011078 C16.8937661,22.5629722 16.3268563,22.5931492 15.9333017,22.289983 L15.8387453,22.2072458 L10.7930469,17.2072458 L12.2008126,15.7866136 L15.4960469,19.0519297 L15.4969298,9.4969297 L17.4969298,9.4969297 Z" transform="rotate(-90 40.148 11.362)"/>
  </g>
</svg>
