<svg xmlns="http://www.w3.org/2000/svg" width="24" height="24" viewBox="0 0 24 24">
    <g fill-rule="evenodd">
        <path d="M17.926 7.428l1.207-1.155V6.02H14.95l-2.981 7.42-3.392-7.42H4.191v.253l1.41 1.698c.138.125.21.309.192.493v6.673c.043.24-.035.488-.204.662L4 17.725v.25h4.505v-.253l-1.589-1.923c-.172-.175-.253-.418-.219-.662V9.365l3.955 8.613h.46l3.4-8.613v6.861c0 .181 0 .218-.118.337l-1.223 1.184V18h5.934v-.253l-1.179-1.154c-.103-.079-.157-.21-.135-.337V7.764c-.022-.128.031-.259.135-.336z"/>
    </g>
</svg>
