<svg xmlns="http://www.w3.org/2000/svg" width="40" height="40" viewBox="0 0 40 40">
  <path fill="#0D0D0D" d="M20,4 C28.836,4 36,11.164 36,20 C36,28.836 28.836,36 20,36 C11.164,36 4,28.836 4,20 C4,11.164 11.164,4 20,4 Z M20,6 C12.2685695,6 6,12.2685695 6,20 C6,27.7314305 12.2685695,34 20,34 C27.7314305,34 34,27.7314305 34,20 C34,12.2685695 27.7314305,6 20,6 Z M21,26 L21,30 L19,30 L19,26 L21,26 Z M15.0502525,23.5355339 L16.4644661,24.9497475 L13.636039,27.7781746 L12.2218254,26.363961 L15.0502525,23.5355339 Z M24.9497475,23.5355339 L27.7781746,26.363961 L26.363961,27.7781746 L23.5355339,24.9497475 L24.9497475,23.5355339 Z M14,19 L14,21 L10,21 L10,19 L14,19 Z M30,19 L30,21 L26,21 L26,19 L30,19 Z M13.636039,12.2218254 L16.4644661,15.0502525 L15.0502525,16.4644661 L12.2218254,13.636039 L13.636039,12.2218254 Z M26.363961,12.2218254 L27.7781746,13.636039 L24.9497475,16.4644661 L23.5355339,15.0502525 L26.363961,12.2218254 Z M21,10 L21,14 L19,14 L19,10 L21,10 Z"/>
</svg>
