<svg xmlns="http://www.w3.org/2000/svg" width="32" height="32" viewBox="0 0 32 32">
    <defs>
        <filter id="w9594if0ua">
            <feColorMatrix in="SourceGraphic" values="0 0 0 0 0.109804 0 0 0 0 0.109804 0 0 0 0 0.109804 0 0 0 1.000000 0"/>
        </filter>
    </defs>
    <g fill="none" fill-rule="evenodd">
        <g>
            <g>
                <g>
                    <g filter="url(#w9594if0ua)" transform="translate(-1028 -2522) translate(0 2342) translate(794 180) translate(234)">
                        <g>
                            <path fill="#000" fill-rule="nonzero" d="M17.26 7.154c-.613 0-1.153.259-1.55.66-1.461-1.025-3.431-1.686-5.614-1.756L11.23.873l3.61.822c0 .897.72 1.63 1.604 1.63.901 0 1.626-.753 1.626-1.65 0-.898-.72-1.65-1.625-1.65-.63 0-1.174.386-1.445.914L11.012.042c-.2-.054-.398.092-.451.296L9.316 6.054c-2.166.091-4.115.75-5.58 1.778-.398-.42-.959-.678-1.572-.678-2.277 0-3.022 3.1-.938 4.16-.073.327-.107.677-.107 1.025 0 3.482 3.865 6.302 8.61 6.302 4.766 0 8.631-2.82 8.631-6.302 0-.348-.036-.714-.126-1.043 2.042-1.063 1.29-4.14-.974-4.142zm-12.727 4.38c0-.915.72-1.65 1.626-1.65.884 0 1.605.73 1.605 1.65 0 .897-.72 1.629-1.605 1.629-.901.004-1.626-.732-1.626-1.63zm8.773 3.883c-1.49 1.512-5.694 1.512-7.185 0-.165-.146-.165-.403 0-.57.143-.145.397-.145.54 0 1.138 1.185 4.913 1.205 6.1 0 .144-.145.398-.145.541 0 .168.167.168.425.004.57zm-.033-2.251c-.884 0-1.604-.731-1.604-1.628 0-.914.72-1.65 1.604-1.65.901 0 1.626.731 1.626 1.65-.005.893-.725 1.628-1.626 1.628z" transform="translate(6.287 6.667)"/>
                        </g>
                    </g>
                </g>
            </g>
        </g>
    </g>
</svg>
