<svg xmlns="http://www.w3.org/2000/svg" width="24" height="24" viewBox="0 0 24 24">
    <g fill-rule="evenodd">
        <path d="M17.66 10.366c-.46 0-.864.193-1.162.495-1.096-.77-2.574-1.265-4.21-1.318l.85-3.888 2.708.616c0 .673.54 1.222 1.203 1.222.675 0 1.219-.564 1.219-1.237 0-.673-.54-1.237-1.219-1.237-.472 0-.88.29-1.084.685l-2.99-.672c-.151-.041-.299.068-.339.221l-.933 4.287c-1.625.069-3.087.564-4.186 1.334-.298-.315-.719-.508-1.179-.508-1.707 0-2.266 2.324-.703 3.119-.055.246-.08.508-.08.77 0 2.61 2.899 4.726 6.458 4.726 3.574 0 6.473-2.116 6.473-4.726 0-.262-.028-.536-.095-.783 1.532-.798.968-3.105-.73-3.106zM8.117 13.65c0-.685.54-1.237 1.218-1.237.663 0 1.204.548 1.204 1.237 0 .673-.54 1.222-1.204 1.222-.675.003-1.218-.549-1.218-1.222zm6.58 2.913c-1.118 1.134-4.272 1.134-5.39 0-.123-.11-.123-.303 0-.427.107-.11.298-.11.405 0 .854.888 3.685.903 4.576 0 .107-.11.298-.11.405 0 .126.125.126.318.003.427zm-.026-1.689c-.662 0-1.203-.548-1.203-1.22 0-.686.54-1.238 1.203-1.238.676 0 1.22.549 1.22 1.238-.004.67-.544 1.22-1.22 1.22z"/>
    </g>
</svg>
