<svg xmlns="http://www.w3.org/2000/svg" width="80" height="80" viewBox="0 0 80 80">
  <defs>
    <filter id="2-a">
      <feColorMatrix in="SourceGraphic" values="0 0 0 0 0.050980 0 0 0 0 0.050980 0 0 0 0 0.050980 0 0 0 1.000000 0"/>
    </filter>
  </defs>
  <g fill="none" fill-rule="evenodd">
    <path fill="#00C65E" d="M29.9995,22.8085938 C30.1359824,30.4981283 30.6818034,36.1106364 31.6369629,39.6461182 C32.5921224,43.1815999 34.0268555,48.737915 35.9411621,56.3150635 L39.5767822,64.1800537 C41.6760661,62.1558838 42.9145915,60.492391 43.2923584,59.1895752 C43.8590088,57.2353516 48.1157227,43.7679443 48.5151367,40.7745361 C48.7814128,38.7789307 49.2762005,34.81486 49.9995,28.8823242 L49.7983398,22.8085938 C46.3836263,21.8491211 44.3798014,20.931722 43.7868652,20.0563965 C43.193929,19.181071 41.931474,18.023234 39.9995,16.5828857 L37.0494385,19.3743896 L33.2687988,21.4703369 L29.9995,22.8085938 Z"/>
    <g stroke-linejoin="round" filter="url(#2-a)">
      <g transform="translate(13 9)">
        <path stroke="#222829" stroke-width="2" d="M26.9995,-0.0002 L27.9995,-0.0002 C27.9995,-0.0002 33.9995,8.9998 40.9995,8.9998 L53.9995,8.9998 L53.9995,12.9998 C53.9995,50.9998 26.9995,61.9998 26.9995,61.9998 C26.9995,61.9998 -0.0005,50.9998 -0.0005,12.9998 L-0.0005,8.9998 L12.9995,8.9998 C19.9995,8.9998 25.9995,-0.0002 25.9995,-0.0002 L26.9995,-0.0002 Z"/>
        <path stroke="#222829" stroke-width="2" d="M26.9995 55.9998C26.9995 55.9998 48.9995 43.9998 48.9995 13.9998L40.9995 13.9998C30.9995 13.9998 26.9995 6.9998 26.9995 6.9998 26.9995 6.9998 22.9995 13.9998 12.9995 13.9998L4.9995 13.9998C4.9995 43.9998 26.9995 55.9998 26.9995 55.9998zM16.9995 13.9998C16.9995 40.9998 26.9995 55.9998 26.9995 55.9998M36.9995 13.9998C36.9995 40.9998 26.9995 55.9998 26.9995 55.9998"/>
        <line x1="27" x2="27" y1="17" y2="19" stroke="#222829" stroke-width="2"/>
        <line x1="27" x2="27" y1="13" y2="15" stroke="#222829" stroke-width="2"/>
        <line x1="27" x2="27" y1="21" y2="23" stroke="#222829" stroke-width="2"/>
        <line x1="10.999" x2="10.999" y1="17" y2="19" stroke="#222829" stroke-width="2"/>
        <line x1="10.999" x2="10.999" y1="21" y2="23" stroke="#222829" stroke-width="2"/>
        <line x1="42.999" x2="42.999" y1="17" y2="19" stroke="#222829" stroke-width="2"/>
        <line x1="42.999" x2="42.999" y1="21" y2="23" stroke="#222829" stroke-width="2"/>
      </g>
    </g>
  </g>
</svg>
