<svg xmlns="http://www.w3.org/2000/svg" width="80" height="80" viewBox="0 0 80 80">
    <defs>
        <filter id="589p9xvkwa">
            <feColorMatrix in="SourceGraphic" values="0 0 0 0 0.050980 0 0 0 0 0.050980 0 0 0 0 0.050980 0 0 0 1.000000 0"/>
        </filter>
        <filter id="y85n5y5inb">
            <feColorMatrix in="SourceGraphic" values="0 0 0 0 0.000000 0 0 0 0 0.776471 0 0 0 0 0.368627 0 0 0 1.000000 0"/>
        </filter>
    </defs>
    <g fill="none" fill-rule="evenodd">
        <g>
            <g>
                <g>
                    <path fill="#00C65E" d="M40 11c17.121 0 31 13.879 31 31 0 8.52-3.438 16.396-9 22H18c-5.564-5.604-9-13.479-9-22 0-17.121 13.879-31 31-31zm0 5c-13.807 0-25 11.26-25 25.15 0 6.914 2.771 13.303 7.258 17.85h35.484C62.227 54.453 65 48.063 65 41.15 65 27.26 53.807 16 40 16z" transform="translate(-1144 -1661) translate(0 1544) translate(1144 117)"/>
                    <g filter="url(#589p9xvkwa)" transform="translate(-1144 -1661) translate(0 1544) translate(1144 117)">
                        <g stroke="#222829" stroke-width="2" filter="url(#y85n5y5inb)" transform="translate(9 11)">
                            <path d="M34 31c0 1.656-1.344 3-3 3s-3-1.344-3-3 1.344-3 3-3 3 1.344 3 3z"/>
                            <path d="M11 46.003C7.86 41.823 6 36.629 6 31 6 17.193 17.193 6 31 6s25 11.193 25 25c0 5.628-1.859 10.82-4.998 15"/>
                            <path d="M53 53H9c-5.564-5.604-9-13.479-9-22C0 13.879 13.879 0 31 0c17.121 0 31 13.879 31 31 0 8.52-3.438 16.396-9 22zM31 46L31 48M27 46L27 48M35 46L35 48M39 46L39 48M23 46L23 48M6 31L9 31M31 6L31 9M56 31L53 31M13 13L16 16M46 16L49 13M33 29L43 19"/>
                            <path d="M23 37.002c-1.256-1.672-2-3.75-2-6.002 0-5.522 4.477-10 10-10s10 4.478 10 10c0 2.25-.744 4.328-1.999 6M11 60.5L51 60.5"/>
                        </g>
                    </g>
                </g>
            </g>
        </g>
    </g>
</svg>
