<svg xmlns="http://www.w3.org/2000/svg" width="32" height="32" viewBox="0 0 32 32">
    <defs>
        <filter id="ezb37sca8a">
            <feColorMatrix in="SourceGraphic" values="0 0 0 0 0.109804 0 0 0 0 0.109804 0 0 0 0 0.109804 0 0 0 1.000000 0"/>
        </filter>
    </defs>
    <g fill="none" fill-rule="evenodd">
        <g>
            <g>
                <g>
                    <g filter="url(#ezb37sca8a)" transform="translate(-1386 -2522) translate(0 2342) translate(794 180) translate(592)">
                        <g>
                            <path fill="#000" fill-rule="nonzero" d="M18.722 5.35c-1.218 0-2.341-.404-3.243-1.084-1.035-.78-1.778-1.924-2.04-3.243-.066-.326-.1-.662-.104-1.007H9.857V9.52l-.004 5.205c0 1.392-.906 2.572-2.163 2.987-.364.12-.758.177-1.168.155-.523-.03-1.014-.187-1.44-.442-.907-.543-1.522-1.527-1.539-2.652-.026-1.76 1.397-3.195 3.155-3.195.347 0 .68.057.992.16V8.207c-.329-.05-.664-.075-1.003-.075-1.924 0-3.724.8-5.01 2.242C.703 11.463.12 12.852.03 14.31c-.117 1.914.583 3.733 1.941 5.076.2.197.41.38.629.549 1.164.896 2.588 1.382 4.088 1.382.338 0 .673-.025 1.002-.074 1.401-.208 2.694-.849 3.714-1.857 1.253-1.239 1.946-2.883 1.953-4.634L13.34 6.98c.598.461 1.252.843 1.954 1.139 1.09.46 2.248.694 3.439.693V5.35h-.01z" transform="translate(6.667 5.333)"/>
                        </g>
                    </g>
                </g>
            </g>
        </g>
    </g>
</svg>
