<svg xmlns="http://www.w3.org/2000/svg" width="24" height="24" viewBox="0 0 24 24">
    <g fill-rule="evenodd">
        <path d="M19.041 8.012c-.913 0-1.755-.302-2.432-.813-.776-.585-1.333-1.443-1.53-2.432-.049-.244-.075-.496-.078-.755h-2.608v7.128l-.003 3.904c0 1.043-.68 1.928-1.622 2.24-.274.09-.569.133-.876.116-.393-.022-.76-.14-1.08-.331-.68-.407-1.142-1.145-1.154-1.99-.02-1.32 1.047-2.395 2.365-2.395.26 0 .51.042.745.12v-2.649c-.247-.037-.498-.056-.752-.056-1.444 0-2.794.6-3.759 1.681-.73.817-1.167 1.86-1.234 2.952-.089 1.436.437 2.8 1.455 3.807.15.148.307.285.472.412.873.672 1.94 1.037 3.066 1.037.254 0 .505-.02.752-.056 1.05-.155 2.02-.636 2.785-1.393.94-.929 1.46-2.162 1.465-3.475l-.014-5.83c.449.346.94.632 1.465.854.819.346 1.687.52 2.58.52V8.012h-.008z"/>
    </g>
</svg>
