<svg xmlns="http://www.w3.org/2000/svg" width="24" height="24" viewBox="0 0 24 24">
    <g fill-rule="evenodd">
        <path d="M18.22 8.995c.6-.425 1.103-.956 1.514-1.568-.548.24-1.132.4-1.74.477.626-.374 1.104-.962 1.328-1.67-.583.348-1.228.594-1.915.731-.554-.59-1.344-.955-2.206-.955-1.673 0-3.019 1.357-3.019 3.02 0 .24.02.47.07.69-2.51-.123-4.733-1.327-6.226-3.16-.26.452-.414.97-.414 1.526 0 1.047.538 1.974 1.342 2.51-.486-.008-.961-.15-1.365-.371v.033c0 1.468 1.047 2.687 2.42 2.968-.246.068-.513.1-.792.1-.193 0-.388-.012-.571-.052.39 1.196 1.502 2.076 2.822 2.104-1.028.804-2.333 1.288-3.745 1.288-.248 0-.485-.01-.723-.04 1.338.862 2.923 1.355 4.634 1.355 5.33 0 8.804-4.447 8.586-8.986z"/>
    </g>
</svg>
