<svg xmlns="http://www.w3.org/2000/svg" width="32" height="32" viewBox="0 0 32 32">
    <defs>
        <filter id="sfiklfri1a">
            <feColorMatrix in="SourceGraphic" values="0 0 0 0 0.109804 0 0 0 0 0.109804 0 0 0 0 0.109804 0 0 0 1.000000 0"/>
        </filter>
    </defs>
    <g fill="none" fill-rule="evenodd">
        <g>
            <g>
                <g>
                    <g filter="url(#sfiklfri1a)" transform="translate(-914 -2522) translate(0 2342) translate(794 180) translate(120)">
                        <g>
                            <path fill="#000" fill-rule="nonzero" d="M17.627 3.993c.798-.567 1.47-1.275 2.018-2.09v-.001c-.73.32-1.508.533-2.32.636.834-.498 1.472-1.282 1.772-2.226-.779.464-1.638.792-2.554.975C15.803.5 14.75.013 13.6.013c-2.23 0-4.025 1.81-4.025 4.028 0 .32.027.626.093.918C6.322 4.796 3.36 3.191 1.368.746 1.02 1.35.816 2.04.816 2.782c0 1.395.718 2.63 1.79 3.347-.648-.012-1.282-.2-1.82-.496v.044c0 1.957 1.395 3.583 3.227 3.958-.329.09-.686.132-1.056.132-.258 0-.519-.014-.762-.068.52 1.594 2.002 2.767 3.762 2.806-1.37 1.071-3.11 1.717-4.994 1.717-.33 0-.646-.015-.963-.055 1.784 1.15 3.898 1.807 6.178 1.807 7.108 0 11.74-5.93 11.449-11.98z" transform="translate(6.667 8)"/>
                        </g>
                    </g>
                </g>
            </g>
        </g>
    </g>
</svg>
