<svg xmlns="http://www.w3.org/2000/svg" width="32" height="32" viewBox="0 0 32 32">
    <defs>
        <filter id="28rlgib7da">
            <feColorMatrix in="SourceGraphic" values="0 0 0 0 0.109804 0 0 0 0 0.109804 0 0 0 0 0.109804 0 0 0 1.000000 0"/>
        </filter>
    </defs>
    <g fill="none" fill-rule="evenodd">
        <g>
            <g>
                <g>
                    <g filter="url(#28rlgib7da)" transform="translate(-1262 -2522) translate(0 2342) translate(794 180) translate(468)">
                        <g>
                            <path fill="#1C1C1C" fill-rule="nonzero" d="M22.052 2.307l.028.184c-.272-.965-1.007-1.71-1.94-1.98l-.02-.005C18.367.029 11.307.029 11.307.029S4.264.02 2.491.506C1.541.78.805 1.526.538 2.47l-.005.02c-.655 3.423-.66 7.537.03 11.203l-.03-.186c.272.965 1.007 1.71 1.94 1.98l.02.005c1.752.478 8.814.478 8.814.478s7.041 0 8.815-.478c.951-.275 1.687-1.02 1.954-1.965l.005-.02c.298-1.592.468-3.424.468-5.296v-.207-.216c0-1.873-.17-3.705-.497-5.482zM9.054 11.424v-6.84l5.875 3.425-5.875 3.415z" transform="translate(4.667 8)"/>
                        </g>
                    </g>
                </g>
            </g>
        </g>
    </g>
</svg>
