<svg xmlns="http://www.w3.org/2000/svg" width="24" height="24" viewBox="0 0 24 24">
    <g fill-rule="evenodd">
        <path d="M20.039 7.73l.02.138c-.203-.724-.754-1.282-1.454-1.485l-.014-.004c-1.316-.357-6.611-.357-6.611-.357s-5.282-.007-6.611.357c-.714.207-1.265.765-1.465 1.474l-.004.015c-.492 2.568-.495 5.653.022 8.402l-.022-.139c.204.724.755 1.282 1.455 1.486l.014.003c1.315.358 6.611.358 6.611.358s5.281 0 6.611-.358c.714-.207 1.265-.765 1.466-1.474l.003-.015c.224-1.194.352-2.568.352-3.972v-.155-.162c0-1.405-.128-2.779-.373-4.112zm-9.749 6.838v-5.13l4.407 2.569-4.407 2.56z"/>
    </g>
</svg>
