<svg xmlns="http://www.w3.org/2000/svg" viewBox="0 0 173 131.5"><defs><style>.cls-1{fill:#00c65e;fill-rule:evenodd;}.cls-2{fill:none;stroke:#0d0d0d;stroke-width:2px;}</style></defs><g id="Layer_2" data-name="Layer 2"><g id="Layer_1-2" data-name="Layer 1"><path class="cls-1" d="M112,50.39V80.61L142,99.5l30-18.89V50.39L142.94,31.5Z"/><path class="cls-2" d="M125.61,89.18,142,99.5l30-18.89V50.39l-13.27-8.63"/><path class="cls-2" d="M78,19.5l16-10,16,10v16l-16,10-16-10Z"/><path class="cls-2" d="M110,19.5l-16,10-16-10m16.5,10v16m20,42v44M92,70h4M84,70h4m12,0h4m-6,61.5v-24a4,4,0,0,0-8,0v24M71,5.5H66c-13.24,8.55-20,21.07-20,38a48.29,48.29,0,0,0,28,44v44"/><path class="cls-2" d="M94,91.5a48,48,0,0,0,48-48c0-16.93-6.76-29.45-20-38h-4v36l-24,16-24-16V5.5"/><path class="cls-2" d="M118,11.5a40,40,0,1,1-64,32"/><path class="cls-2" d="M29,12H0m34,9H15M44,1H25"/></g></g></svg>
