<svg xmlns="http://www.w3.org/2000/svg" viewBox="0 0 193 114"><defs><style>.cls-1{fill:#00c65e;}.cls-2,.cls-3{fill:none;stroke:#0d0d0d;stroke-width:2px;}.cls-2{stroke-linejoin:round;}</style></defs><g id="Layer_2" data-name="Layer 2"><g id="Layer_1-2" data-name="Layer 1"><rect class="cls-1" x="79" y="10" width="40" height="40" rx="2"/><path class="cls-2" d="M149,49l-8,8-8-8M91,57h4m4,0h4m4,0h4m18,20V73H105V85"/><path class="cls-2" d="M105,85h16l8-8h32v36H105ZM61,5V1H37V13"/><path class="cls-2" d="M37,13H53l8-8H93V41H37Zm66,4h30a8,8,0,0,1,8,8V57M95,97H69a8,8,0,0,1-8-8V57"/><path class="cls-3" d="M29,69H0m34,9H15M44,58H25M164,28h29m-34,9h19M149,17h19"/></g></g></svg>
