<svg xmlns="http://www.w3.org/2000/svg" viewBox="0 0 171 126"><defs><style>.cls-1{fill:#40b75e;fill-rule:evenodd;}.cls-2,.cls-3{fill:none;stroke:#0f0f0f;stroke-width:2px;}.cls-2{stroke-linejoin:round;}</style></defs><g id="Layer_2" data-name="Layer 2"><g id="Layer_1-2" data-name="Layer 1"><path class="cls-1" d="M107.89,26.18a23.09,23.09,0,0,1,9.26,1.94l-9.26,21.06,22,6.63a23,23,0,1,1-22-29.63Z"/><path class="cls-2" d="M115.89,45.18l-10,10-6-6"/><path class="cls-2" d="M123.89,49.18a16,16,0,1,1-16-16A16,16,0,0,1,123.89,49.18Z"/><path class="cls-3" d="M156,45h14v80H46V45H60"/><path class="cls-3" d="M150,65V17L134,1H66V65"/><path class="cls-2" d="M72,9h56M72,17h56M108,77,46,125H170ZM46,45,86,85m84-40L130,85"/><path class="cls-3" d="M150,17H134V1M106,117h4m4,0h4m-20,0h4"/><path class="cls-3" d="M29,45H0m34,9H15M44,34H25"/></g></g></svg>