<svg xmlns="http://www.w3.org/2000/svg" viewBox="0 0 378 146" preserveAspectRatio="none">
  <defs>
    <pattern id="diagonalHatch" patternUnits="userSpaceOnUse" width="8" height="8">
      <path d="M-2,2 l6,-6
              M0,8 l8,-8
              M7,10 l6,-6" stroke="#d4dddb" />
    </pattern>
    <style>.cls-1{fill:#f5f7f7;}.cls-2{fill:#d4dddb; opacity: 0.5;}.cls-3{fill:url(#diagonalHatch);}.cls-4{fill:#80e3af;}</style>
  </defs>
  <g id="Layer_2" data-name="Layer 2">
    <g id="Layer_1-2" data-name="Layer 1">
      <rect class="cls-1" width="2" height="146" rx="1"/>
      <rect class="cls-1" x="4" width="4" height="146" rx="2"/>
      <rect class="cls-1" x="10" width="6" height="146" rx="2"/>
      <rect class="cls-1" x="18" width="8" height="146" rx="2"/>
      <rect class="cls-1" x="28" width="10" height="146" rx="2"/>
      <rect class="cls-1" x="40" width="12" height="146" rx="2"/>
      <rect class="cls-1" x="54" width="14" height="146" rx="2"/>
      <rect class="cls-1" x="70" width="16" height="146" rx="2"/>
      <rect class="cls-1" x="88" width="18" height="146" rx="2"/>
      <rect class="cls-1" x="108" width="20" height="146" rx="2"/>
      <rect class="cls-1" x="130" width="22" height="146" rx="2"/>
      <rect class="cls-1" x="154" width="24" height="146" rx="2"/>
      <rect class="cls-1" x="180" width="26" height="146" rx="2"/>
      <rect class="cls-1" x="208" width="28" height="146" rx="2"/>
      <rect class="cls-2" x="238" width="30" height="146" rx="2"/>
      <rect class="cls-2" x="270" width="32" height="146" rx="2"/>
      <rect class="cls-2" x="304" width="34" height="146" rx="2"/>
      <rect class="cls-3" x="340" width="38" height="146" rx="2"/>
      <path class="cls-4" d="M304,144h34a0,0,0,0,1,0,0v0a2,2,0,0,1-2,2H306a2,2,0,0,1-2-2v0A0,0,0,0,1,304,144Z"/>
      <path class="cls-4" d="M270,144h32a0,0,0,0,1,0,0v0a2,2,0,0,1-2,2H272a2,2,0,0,1-2-2v0A0,0,0,0,1,270,144Z"/>
      <path class="cls-4" d="M238,144h30a0,0,0,0,1,0,0v0a2,2,0,0,1-2,2H240a2,2,0,0,1-2-2v0A0,0,0,0,1,238,144Z"/>
    </g>
  </g>
</svg>
