<svg viewBox="0 0 622 151" width="622" xmlns="http://www.w3.org/2000/svg" xmlns:xlink="http://www.w3.org/1999/xlink"><defs><filter x="-1.7%" y="-1.7%" width="103.4%" height="103.4%" filterUnits="objectBoundingBox" id="a"><feMorphology radius="1" operator="dilate" in="SourceAlpha" result="shadowSpreadOuter1"/><feOffset in="shadowSpreadOuter1" result="shadowOffsetOuter1"/><feMorphology radius="1" in="SourceAlpha" result="shadowInner"/><feOffset in="shadowInner" result="shadowInner"/><feComposite in="shadowOffsetOuter1" in2="shadowInner" operator="out" result="shadowOffsetOuter1"/><feGaussianBlur stdDeviation="4" in="shadowOffsetOuter1" result="shadowBlurOuter1"/><feColorMatrix values="0 0 0 0 0.341176471 0 0 0 0 0.709803922 0 0 0 0 0.376470588 0 0 0 0.3 0" in="shadowBlurOuter1"/></filter><path d="M384 768c212.077 0 384-171.923 384-384S596.077 0 384 0 0 171.923 0 384s171.923 384 384 384zm192-51.446c-91.832 53.02-252.238-52.89-358.277-236.554C111.684 296.336 100.168 104.466 192 51.446" id="b"/></defs><g fill="none" fill-rule="evenodd"><g stroke-linejoin="round" transform="translate(-73 -626)"><use fill="#000" filter="url(#a)" xlink:href="#b"/><use stroke="#57B560" stroke-width="2" xlink:href="#b"/></g><path d="M119.706-574.998l-.78.524C27.13-521.461 38.642-329.612 144.64-145.968 250.637 37.676 410.982 143.572 502.779 90.559l.218-.052C446.488 123.254 380.859 142 310.853 142 98.857 142-73-29.904-73-241.957c0-142.44 77.542-266.765 192.706-333.04z" fill="#57B560"/></g></svg>