<svg xmlns="http://www.w3.org/2000/svg" width="80" height="80" viewBox="0 0 80 80">
  <defs>
    <filter id="1-a">
      <feColorMatrix in="SourceGraphic" values="0 0 0 0 0.050980 0 0 0 0 0.050980 0 0 0 0 0.050980 0 0 0 1.000000 0"/>
    </filter>
  </defs>
  <g fill="none" fill-rule="evenodd">
    <path fill="#00C65E" d="M29.031876,20.9098666 L28.9376,20.9996 L26.0006,32.418457 L26.0002217,47.4850772 C15.5253909,39.5307935 9.94339742,30.0594707 13.1535,24.4995 C15.3983377,20.6113901 21.4491262,19.4904168 29.031876,20.9098666 Z"/>
    <g filter="url(#1-a)">
      <g transform="translate(10 9)">
        <path stroke="#222829" stroke-width="2" d="M25.1486,1.9116 C26.6606,0.6766 28.2946,-0.0004 30.0006,-0.0004 C37.7326,-0.0004 44.0006,13.8786 44.0006,30.9996 C44.0006,48.1206 37.7326,61.9996 30.0006,61.9996 C22.2676,61.9996 16.0006,48.1206 16.0006,30.9996 C16.0006,23.8406 17.0956,17.2476 18.9376,11.9996"/>
        <path stroke="#222829" stroke-width="2" d="M57.6955,41.9185 C57.8795,43.6185 57.6145,45.1705 56.8465,46.4995 C52.9805,53.1955 37.8275,51.6855 23.0005,43.1245 C8.1735,34.5645 -0.7125,22.1955 3.1535,15.4995 C7.0195,8.8035 22.1735,10.3145 37.0005,18.8745 C43.2405,22.4785 48.4285,26.7565 52.0565,31.0025"/>
        <path stroke="#222829" stroke-width="2" d="M2.3049,41.9155 C2.1199,43.6165 2.3859,45.1695 3.1539,46.4995 C7.0199,53.1955 22.1729,51.6855 36.9999,43.1245 C51.8269,34.5645 60.7129,22.1955 56.8469,15.4995 C52.9809,8.8035 37.8269,10.3145 22.9999,18.8745 C16.7599,22.4785 11.5729,26.7545 7.9459,30.9995"/>
        <path stroke="#222829" stroke-width="2" d="M6.0002 38.9995C6.0002 40.6565 4.6562 41.9995 3.0002 41.9995 1.3442 41.9995.0002 40.6565.0002 38.9995.0002 37.3435 1.3442 35.9995 3.0002 35.9995 4.6562 35.9995 6.0002 37.3435 6.0002 38.9995zM60.0002 38.9995C60.0002 40.6565 58.6562 41.9995 57.0002 41.9995 55.3442 41.9995 54.0002 40.6565 54.0002 38.9995 54.0002 37.3435 55.3442 35.9995 57.0002 35.9995 58.6562 35.9995 60.0002 37.3435 60.0002 38.9995zM26.0002 3.9995C26.0002 5.6565 24.6562 6.9995 23.0002 6.9995 21.3442 6.9995 20.0002 5.6565 20.0002 3.9995 20.0002 2.3435 21.3442.9995 23.0002.9995 24.6562.9995 26.0002 2.3435 26.0002 3.9995zM21.0002 38.9995C21.0002 32.9995 27.0002 31.9995 27.0002 31.9995M39.0002 38.9995C39.0002 32.9995 33.0002 31.9995 33.0002 31.9995"/>
        <path stroke="#222829" stroke-width="2" d="M35.0002,26.4995 C35.0002,29.9995 33.0372,32.9995 30.0002,32.9995 C26.9632,32.9995 25.0002,29.9995 25.0002,26.4995 C25.0002,22.9995 26.0002,20.9995 30.0002,20.9995 C34.0002,20.9995 35.0002,22.9995 35.0002,26.4995 Z"/>
      </g>
    </g>
  </g>
</svg>
