<svg xmlns="http://www.w3.org/2000/svg" width="155" height="41" viewBox="0 0 155 41">
  <defs>
    <filter id="white_typ-a">
      <feColorMatrix in="SourceGraphic" values="0 0 0 0 1.000000 0 0 0 0 1.000000 0 0 0 0 1.000000 0 0 0 1.000000 0"/>
    </filter>
  </defs>
  <g fill="none" fill-rule="evenodd">
    <path fill="#00C65E" d="M3.55271368e-14,8.76163496 L43.4400019,31.6804999 C44.5792363,32.2758669 44.7870073,33.8171854 43.8459487,34.6923565 L43.8459487,34.6923565 L43.8238062,34.6923565 C42.4590867,35.9273283 40.9330956,36.9720776 39.2875348,37.7978498 C25.2498932,44.8445621 8.84041496,34.0689722 9.75010491,18.4017881 L9.75010491,18.4017881 L15.5588351,22.4089951 C17.2973947,31.5547908 26.9700007,36.8323599 35.6126088,33.3504767 L35.6126088,33.3504767 L3.55271368e-14,8.76163496 Z M17.5627363,15.1539965 L46.7392425,26.6742559 C47.5850881,27.0060394 48.0415938,27.9239737 47.7947043,28.7976702 L47.7947043,28.7976702 L47.7947043,28.834535 C47.4824943,29.9253653 46.2373446,30.4447908 45.2409297,29.8999286 L45.2409297,29.8999286 L17.5627363,15.1539965 Z M28.3055657,0.0652215167 C33.8079906,-0.40664831 40.6832538,1.66146866 44.7796264,6.93682586 C48.2301745,11.3900974 48.9424267,16.8313463 48.6988586,22.4495464 L48.6988586,22.4495464 L48.6988586,22.4348005 C48.6018004,23.6266404 47.3799004,24.3856873 46.266868,23.9462585 L46.266868,23.9462585 L26.4345199,16.1161686 L44.8460541,21.0486829 C45.1619545,17.8086329 44.3998816,14.554943 42.6775599,11.7911867 C36.6492494,2.11859256 22.3994083,2.59193698 17.0276246,12.6435016 C16.719843,13.2226481 16.4500729,13.8209643 16.2194213,14.4351323 L16.2194213,14.4351323 L11.2816316,11.8066699 C11.4218678,11.6002269 11.5694848,11.4048433 11.7171019,11.2057732 C11.9532891,10.715471 12.2079285,10.2177958 12.4884008,9.73117999 C15.7618085,4.06874208 21.2420908,0.736161426 27.0212976,0.201621388 L27.0212976,0.201621388 Z"/>
    <g filter="url(#white_typ-a)">
      <path fill="#333" fill-rule="nonzero" d="M8.75828877,20.8916667 C10.3099465,20.8916667 11.6590267,20.6419444 12.8055294,20.1425 C13.9520321,19.6430556 14.835615,18.94125 15.4562781,18.0370833 C16.0769412,17.1329167 16.3872727,16.0866667 16.3872727,14.8983333 C16.3872727,13.7788889 16.1071123,12.8230556 15.5467914,12.0308333 C14.9864706,11.2386111 14.1977112,10.61 13.1805134,10.145 C12.1633155,9.68 10.9823316,9.39583333 9.6375615,9.2925 L9.6375615,9.2925 L7.98245989,9.1375 C7.05146524,9.06861111 6.37045989,8.81458333 5.93944385,8.37541667 C5.50842781,7.93625 5.29291979,7.42388889 5.29291979,6.83833333 C5.29291979,6.35611111 5.41360428,5.90833333 5.65497326,5.495 C5.89634225,5.08166667 6.25839572,4.75444444 6.74113369,4.51333333 C7.22387166,4.27222222 7.82729412,4.15166667 8.55140107,4.15166667 C9.3099893,4.15166667 9.93496257,4.28513889 10.4263209,4.55208333 C10.9176791,4.81902778 11.2883529,5.17208333 11.5383422,5.61125 C11.7883316,6.05041667 11.9133262,6.52833333 11.9133262,7.045 L11.9133262,7.045 L15.508,7.045 C15.508,5.82222222 15.2235294,4.75875 14.6545882,3.85458333 C14.0856471,2.95041667 13.2839572,2.24861111 12.2495187,1.74916667 C11.2150802,1.24972222 9.98237433,1 8.55140107,1 C7.17214973,1 5.96961497,1.23680556 4.94379679,1.71041667 C3.91797861,2.18402778 3.12059893,2.85569444 2.55165775,3.72541667 C1.98271658,4.59513889 1.69824599,5.63277778 1.69824599,6.83833333 C1.69824599,8.44 2.23701604,9.72736111 3.31455615,10.7004167 C4.39209626,11.6734722 5.836,12.2375 7.64626738,12.3925 L7.64626738,12.3925 L9.30136898,12.5216667 C10.4909733,12.625 11.370246,12.8790278 11.9391872,13.28375 C12.5081283,13.6884722 12.7925989,14.2266667 12.7925989,14.8983333 C12.7925989,15.4322222 12.6460535,15.9101389 12.3529626,16.3320833 C12.0598717,16.7540278 11.611615,17.0941667 11.0081925,17.3525 C10.4047701,17.6108333 9.65480214,17.74 8.75828877,17.74 C7.75833155,17.74 6.95233155,17.5936111 6.34028877,17.3008333 C5.72824599,17.0080556 5.28429947,16.6248611 5.0084492,16.15125 C4.73259893,15.6776389 4.5946738,15.1911111 4.5946738,14.6916667 L4.5946738,14.6916667 L1,14.6916667 C1,15.88 1.30171123,16.9434722 1.90513369,17.8820833 C2.50855615,18.8206944 3.38351872,19.5569444 4.53002139,20.0908333 C5.67652406,20.6247222 7.08594652,20.8916667 8.75828877,20.8916667 Z M23.2679572,20.4008333 L23.2675401,13.8391667 L24.793754,13.8391667 L29.5004492,20.4008333 L33.5606203,20.4008333 L27.6468021,12.35375 L32.422738,6.37333333 L28.6728984,6.37333333 L23.2675401,13.12875 L23.2679572,1.5425 L19.6732834,1.5425 L19.6732834,20.4008333 L23.2679572,20.4008333 Z M37.4931551,25.9291667 C38.6482781,25.9291667 39.6180642,25.7913889 40.4025134,25.5158333 C41.1869626,25.2402778 41.8291765,24.7881944 42.3291551,24.1595833 C42.8291337,23.5309722 43.2170481,22.7 43.4928984,21.6666667 L43.4928984,21.6666667 L47.6565134,6.37333333 L44.2170053,6.37333333 L41.3885668,17.2491667 L40.8396471,17.2491667 L37.4155722,6.37333333 L33.7950374,6.37333333 L38.3465668,20.0908333 L40.6494439,20.0908333 L40.4413048,20.8916667 C40.3326888,21.3256667 40.182178,21.6829417 39.9897724,21.9634917 L39.9240856,22.0541667 C39.6999572,22.3469444 39.4197968,22.5536111 39.0836043,22.6741667 C38.7474118,22.7947222 38.3293262,22.855 37.8293476,22.855 L37.8293476,22.855 L35.1915294,22.855 L35.1915294,25.9291667 L37.4931551,25.9291667 Z M53.9423957,20.4008333 L53.9423957,12.16 C53.9423957,11.2472222 54.2139358,10.5195833 54.757016,9.97708333 C55.3000963,9.43458333 56.0112727,9.16333333 56.8905455,9.16333333 C57.7525775,9.16333333 58.4292727,9.43027778 58.920631,9.96416667 C59.4119893,10.4980556 59.6576684,11.1955556 59.6576684,12.0566667 L59.6576684,12.0566667 L59.6576684,20.4008333 L63.2523422,20.4008333 L63.2523422,12.3666667 C63.2523422,10.2311111 62.8213262,8.62513889 61.9592941,7.54875 C61.097262,6.47236111 59.8300749,5.93416667 58.1577326,5.93416667 L58.1577326,5.93416667 L58.0025668,5.93416667 C56.8819251,5.93416667 55.9466203,6.17527778 55.1966524,6.6575 C54.4466845,7.13972222 53.8820535,7.85875 53.5027594,8.81458333 C53.3973999,9.08009259 53.3066737,9.36387389 53.2305807,9.66592721 L53.1924278,9.825 L53.1924278,6.37333333 L50.3477219,6.37333333 L50.3477219,20.4008333 L53.9423957,20.4008333 Z M73.5983957,20.8916667 C74.7535187,20.8916667 75.7836471,20.6936111 76.6887807,20.2975 C77.5939144,19.9013889 78.3395722,19.3416667 78.925754,18.6183333 C79.5119358,17.895 79.9084706,17.0511111 80.1153583,16.0866667 L80.1153583,16.0866667 L76.8051551,16.0866667 C76.6499893,16.6033333 76.2965561,17.0381944 75.7448556,17.39125 C75.1931551,17.7443056 74.4776684,17.9208333 73.5983957,17.9208333 C72.719123,17.9208333 71.995016,17.7270833 71.4260749,17.3395833 C70.8571337,16.9520833 70.434738,16.4181944 70.1588877,15.7379167 C69.9891337,15.3192842 69.8716117,14.8631501 69.8063217,14.3695143 L69.792246,14.2525 L80.348107,14.2525 L80.348107,12.9608333 C80.348107,11.7208333 80.0894973,10.5626389 79.5722781,9.48625 C79.0550588,8.40986111 78.2835401,7.54013889 77.2577219,6.87708333 C76.2319037,6.21402778 74.9604064,5.8825 73.4432299,5.8825 C72.288107,5.8825 71.2709091,6.08486111 70.3916364,6.48958333 C69.5123636,6.89430556 68.7753262,7.43680556 68.1805241,8.11708333 C67.5857219,8.79736111 67.1374652,9.57236111 66.835754,10.4420833 C66.5340428,11.3118056 66.3831872,12.2116667 66.3831872,13.1416667 L66.3831872,13.1416667 L66.3831872,13.6325 C66.3831872,14.5280556 66.5340428,15.4063889 66.835754,16.2675 C67.1374652,17.1286111 67.5857219,17.9079167 68.1805241,18.6054167 C68.7753262,19.3029167 69.5252941,19.8583333 70.4304278,20.2716667 C71.3355615,20.685 72.3915508,20.8916667 73.5983957,20.8916667 Z M76.9140214,12.0570833 L69.8556471,12.0570833 L69.8844448,11.9069388 C69.9425001,11.6231236 70.0186975,11.3563329 70.1130373,11.1065668 L70.1718182,10.95875 C70.4562888,10.2784722 70.8743743,9.7575 71.4260749,9.39583333 C71.9777754,9.03416667 72.6501604,8.85333333 73.4432299,8.85333333 C74.2362995,8.85333333 74.895754,9.02555556 75.4215936,9.37 C75.9474332,9.71444444 76.3396578,10.2052778 76.5982674,10.8425 C76.7275722,11.1611111 76.8245508,11.5120139 76.8892032,11.8952083 L76.9140214,12.0570833 Z M91.676877,20.5816667 L91.676877,17.5075 L89.4786952,17.5075 C88.7890695,17.5075 88.2589198,17.3223611 87.888246,16.9520833 C87.5175722,16.5818056 87.3322353,16.0522222 87.3322353,15.3633333 L87.3322353,15.3633333 L87.3447487,9.00833333 L91.676877,9.00833333 L91.676877,6.37333333 L87.3501711,6.37333333 L87.3580963,2.42083333 L83.9961711,2.42083333 L83.988246,6.37333333 L81.7462674,6.37333333 L81.7462674,9.00833333 L83.9828235,9.00833333 L83.9703102,15.1308333 C83.9703102,16.4233611 84.1570263,17.4633142 84.5304586,18.2506927 L84.5909733,18.3729167 C85.0047487,19.17375 85.6297219,19.7420833 86.465893,20.0779167 C87.3020642,20.41375 88.3666738,20.5816667 89.6597219,20.5816667 L89.6597219,20.5816667 L91.676877,20.5816667 Z" transform="translate(63 10)"/>
    </g>
  </g>
</svg>
