<svg xmlns="http://www.w3.org/2000/svg" width="80" height="80" viewBox="0 0 80 80">
  <defs>
    <filter id="backed-by-sia-a">
      <feColorMatrix in="SourceGraphic" values="0 0 0 0 0.050980 0 0 0 0 0.050980 0 0 0 0 0.050980 0 0 0 1.000000 0"/>
    </filter>
    <filter id="backed-by-sia-b">
      <feColorMatrix in="SourceGraphic" values="0 0 0 0 0.000000 0 0 0 0 0.776471 0 0 0 0 0.368627 0 0 0 1.000000 0"/>
    </filter>
  </defs>
  <g fill="none" fill-rule="evenodd">
    <polygon fill="#00C65E" points="69 59 54 71 39 59 39 29 47 32 50 29 58 29 61 32 69 29"/>
    <g stroke-linejoin="round" filter="url(#backed-by-sia-a)">
      <g filter="url(#backed-by-sia-b)" transform="translate(0 -1)">
        <g transform="translate(11 9)">
          <path stroke="#222829" stroke-width="2" d="M46,7 C46,10.866 35.703,14 23,14 C10.297,14 0,10.866 0,7 C0,3.134 10.297,0 23,0 C35.703,0 46,3.134 46,7 Z"/>
          <path stroke="#222829" stroke-width="2" d="M23,26 C10.297,26 0,22.866 0,19 L0,7"/>
          <line x1="46" x2="46" y1="7" y2="17" stroke="#222829" stroke-width="2"/>
          <path stroke="#222829" stroke-width="2" d="M23 38C10.297 38 0 34.866 0 31L0 24M23 50C10.297 50 0 46.866 0 43L0 36M35 60.9729C31.507 61.6249 27.397 61.9999 23 61.9999 10.297 61.9999 0 58.8659 0 54.9999L0 47.9999"/>
          <line x1="23" x2="25" y1="26" y2="26" stroke="#222829" stroke-width="2"/>
          <line x1="23" x2="25" y1="38" y2="38" stroke="#222829" stroke-width="2"/>
          <line x1="23" x2="25" y1="50" y2="50" stroke="#222829" stroke-width="2"/>
          <polygon stroke="#222829" stroke-width="2" points="58 50 43 62 28 50 28 20 36 23 39 20 47 20 50 23 58 20"/>
          <line x1="50" x2="50" y1="31" y2="33" stroke="#222829" stroke-width="2"/>
          <line x1="50" x2="50" y1="43" y2="45" stroke="#222829" stroke-width="2"/>
          <line x1="46" x2="46" y1="31" y2="33" stroke="#222829" stroke-width="2"/>
          <line x1="46" x2="46" y1="35" y2="37" stroke="#222829" stroke-width="2"/>
          <line x1="46" x2="46" y1="43" y2="45" stroke="#222829" stroke-width="2"/>
          <line x1="46" x2="46" y1="47" y2="49" stroke="#222829" stroke-width="2"/>
          <line x1="50" x2="50" y1="35" y2="37" stroke="#222829" stroke-width="2"/>
          <line x1="36" x2="36" y1="31" y2="33" stroke="#222829" stroke-width="2"/>
          <line x1="36" x2="36" y1="43" y2="45" stroke="#222829" stroke-width="2"/>
          <line x1="40" x2="40" y1="31" y2="33" stroke="#222829" stroke-width="2"/>
          <line x1="40" x2="40" y1="35" y2="37" stroke="#222829" stroke-width="2"/>
          <line x1="40" x2="40" y1="43" y2="45" stroke="#222829" stroke-width="2"/>
          <line x1="40" x2="40" y1="47" y2="49" stroke="#222829" stroke-width="2"/>
          <line x1="36" x2="36" y1="35" y2="37" stroke="#222829" stroke-width="2"/>
          <line x1="46" x2="46" y1="39" y2="41" stroke="#222829" stroke-width="2"/>
          <line x1="50" x2="50" y1="39" y2="41" stroke="#222829" stroke-width="2"/>
          <line x1="40" x2="40" y1="39" y2="41" stroke="#222829" stroke-width="2"/>
          <line x1="36" x2="36" y1="39" y2="41" stroke="#222829" stroke-width="2"/>
          <line x1="36" x2="36" y1="23" y2="27" stroke="#222829" stroke-width="2"/>
          <line x1="50" x2="50" y1="23" y2="27" stroke="#222829" stroke-width="2"/>
          <line x1="24" x2="22" y1="20" y2="20" stroke="#222829" stroke-width="2"/>
          <line x1="24" x2="22" y1="32" y2="32" stroke="#222829" stroke-width="2"/>
          <line x1="24" x2="22" y1="44" y2="44" stroke="#222829" stroke-width="2"/>
          <line x1="24" x2="22" y1="56" y2="56" stroke="#222829" stroke-width="2"/>
        </g>
      </g>
    </g>
  </g>
</svg>
