<svg xmlns="http://www.w3.org/2000/svg" width="80" height="80" viewBox="0 0 80 80">
  <defs>
    <filter id="easy-to-use-a">
      <feColorMatrix in="SourceGraphic" values="0 0 0 0 0.050980 0 0 0 0 0.050980 0 0 0 0 0.050980 0 0 0 1.000000 0"/>
    </filter>
  </defs>
  <g fill="none" fill-rule="evenodd">
    <path fill="#00C65E" d="M39,11 C40.1045695,11 41,11.8954305 41,13 L41,24.0001 L37.8808594,24.5 L34.4633789,26.8000488 L32.9999,31.0001 L34.8979492,35.8710938 L37,36.675293 L37,50 L36.672,50 L34.4633789,46 L31,43 L29.5330956,43.5 L28.6076952,44.5 L28.9998,46.5 L30.4584961,50 L13,50 C11.8954305,50 11,49.1045695 11,48 L11,13 C11,11.8954305 11.8954305,11 13,11 L39,11 Z"/>
    <g filter="url(#easy-to-use-a)">
      <g transform="translate(11 12)">
        <line x1="42" x2="42" y1="34" y2="37" stroke="#222829" stroke-width="2"/>
        <line x1="37" x2="37" y1="33" y2="36" stroke="#222829" stroke-width="2"/>
        <line x1="32" x2="32" y1="31" y2="35" stroke="#222829" stroke-width="2"/>
        <g stroke="#222829" stroke-width="2">
          <path d="M26,63 L26,59 C26,58.447 26.447,58 27,58 L46,58 C46.553,58 47,58.447 47,59 L47,63"/>
          <path stroke-linejoin="round" d="M44 32C45.656 32 47 33.344 47 35L47 42C47 49 45 53 45 55L45 58M39 30C40.656 30 42 31.344 42 33L42 35M34 28C35.656 28 37 29.344 37 31L37 33"/>
          <path stroke-linecap="round" stroke-linejoin="round" d="M26,40 L26,19 C26,17.344 27.344,16 29,16 C30.656,16 32,17.344 32,19 L32,31"/>
          <path stroke-linejoin="round" d="M28 58L28 55 22 47C22 47 18.707 34.707 18 34 17 33 18 31 20 31 22 31 23 34 23 34L26 40M26.0039 25.3281C23.6369 24.2051 21.9999 21.7941 21.9999 19.0001 21.9999 15.1341 25.1339 12.0001 28.9999 12.0001 32.8659 12.0001 35.9999 15.1341 35.9999 19.0001 35.9999 21.7931 34.3649 24.2031 31.9999 25.3261"/>
          <path stroke-linejoin="round" d="M19.7778,25 C18.6528,23.273 17.9998,21.213 17.9998,19 C17.9998,12.925 22.9248,8 28.9998,8 C35.0748,8 39.9998,12.925 39.9998,19 C39.9998,21.214 39.3458,23.274 38.2208,25"/>
          <path stroke-linejoin="round" d="M14,19 C14,10.716 20.716,4 29,4 C37.284,4 44,10.716 44,19"/>
          <path stroke-linejoin="round" d="M14,38 L1,38 C0.448,38 0,37.553 0,37 L0,1 C0,0.447 0.448,0 1,0 L57,0 C57.552,0 58,0.447 58,1 L58,37 C58,37.553 57.552,38 57,38 L50,38"/>
          <line x1="4" x2="4" y1="38" y2="3" stroke-linejoin="round"/>
          <line x1="54" x2="54" y1="35" stroke-linejoin="round"/>
        </g>
      </g>
    </g>
  </g>
</svg>
