<svg xmlns="http://www.w3.org/2000/svg" width="80" height="80" viewBox="0 0 80 80">
  <defs>
    <filter id="speed-a">
      <feColorMatrix in="SourceGraphic" values="0 0 0 0 0.050980 0 0 0 0 0.050980 0 0 0 0 0.050980 0 0 0 1.000000 0"/>
    </filter>
    <filter id="speed-b">
      <feColorMatrix in="SourceGraphic" values="0 0 0 0 0.000000 0 0 0 0 0.776471 0 0 0 0 0.368627 0 0 0 1.000000 0"/>
    </filter>
  </defs>
  <g fill="none" fill-rule="evenodd">
    <path fill="#00C65E" d="M40,11 C57.121,11 71,24.879 71,42 C71,50.52 67.562,58.396 62,64 L18,64 C12.436,58.396 9,50.521 9,42 C9,24.879 22.879,11 40,11 Z M40,16 C26.1927419,16 15,27.2603208 15,41.1509434 C15,48.0642075 17.7709677,54.4533585 22.2580645,59 L22.2580645,59 L57.7419355,59 C62.2274194,54.4533585 65,48.0633962 65,41.1509434 C65,27.2603208 53.8072581,16 40,16 Z"/>
    <g filter="url(#speed-a)">
      <g filter="url(#speed-b)">
        <g transform="translate(9 11)">
          <path stroke="#222829" stroke-width="2" d="M34,31 C34,32.656 32.656,34 31,34 C29.344,34 28,32.656 28,31 C28,29.344 29.344,28 31,28 C32.656,28 34,29.344 34,31 Z"/>
          <path stroke="#222829" stroke-width="2" d="M11,46.0029 C7.86,41.8239 6,36.6289 6,30.9999 C6,17.1929 17.193,5.9999 31,5.9999 C44.807,5.9999 56,17.1929 56,30.9999 C56,36.6279 54.141,41.8209 51.002,45.9999"/>
          <path stroke="#222829" stroke-width="2" d="M53,53 L9,53 C3.436,47.396 0,39.521 0,31 C0,13.879 13.879,0 31,0 C48.121,0 62,13.879 62,31 C62,39.52 58.562,47.396 53,53 Z"/>
          <line x1="31" x2="31" y1="46" y2="48" stroke="#222829" stroke-width="2"/>
          <line x1="27" x2="27" y1="46" y2="48" stroke="#222829" stroke-width="2"/>
          <line x1="35" x2="35" y1="46" y2="48" stroke="#222829" stroke-width="2"/>
          <line x1="39" x2="39" y1="46" y2="48" stroke="#222829" stroke-width="2"/>
          <line x1="23" x2="23" y1="46" y2="48" stroke="#222829" stroke-width="2"/>
          <line x1="6" x2="9" y1="31" y2="31" stroke="#222829" stroke-width="2"/>
          <line x1="31" x2="31" y1="6" y2="9" stroke="#222829" stroke-width="2"/>
          <line x1="56" x2="53" y1="31" y2="31" stroke="#222829" stroke-width="2"/>
          <line x1="13" x2="16" y1="13" y2="16" stroke="#222829" stroke-width="2"/>
          <line x1="46" x2="49" y1="16" y2="13" stroke="#222829" stroke-width="2"/>
          <line x1="33" x2="43" y1="29" y2="19" stroke="#222829" stroke-width="2"/>
          <path stroke="#222829" stroke-width="2" d="M23,37.0019 C21.744,35.3299 21,33.2519 21,30.9999 C21,25.4779 25.477,20.9999 31,20.9999 C36.523,20.9999 41,25.4779 41,30.9999 C41,33.2509 40.256,35.3279 39.001,36.9999"/>
          <line x1="11" x2="51" y1="60.5" y2="60.5" stroke="#222829" stroke-width="2"/>
        </g>
      </g>
    </g>
  </g>
</svg>
